<svg width="44" height="38" viewBox="0 0 44 38" fill="none" xmlns="http://www.w3.org/2000/svg">
    <mask id="path-1-outside-1_77_494" maskUnits="userSpaceOnUse" x="-0.511597" y="-0.0351562"
        width="45" height="38" fill="black">
        <rect fill="white" x="-0.511597" y="-0.0351562" width="45" height="38" />
        <path
            d="M21.4242 1.14131C21.6752 1.04936 21.9467 0.88522 22.2174 1.00983C24.5653 1.91733 26.9105 2.83256 29.2557 3.74694C29.4972 3.81999 29.6906 4.03913 29.6639 4.30381C29.6682 5.82061 29.6674 7.33827 29.6639 8.85506C29.6502 11.1109 28.9549 13.3539 27.6908 15.2222C28.3087 15.5238 28.9094 15.859 29.48 16.2423C30.3918 15.8469 31.3071 15.4611 32.2146 15.0572C32.0324 14.3026 32.5059 13.4596 33.2596 13.2533C34.8331 12.8116 36.4083 12.3768 37.9835 11.9394C38.7656 11.7013 39.6567 12.2212 39.8535 13.0101C41.0575 17.191 42.2667 21.3719 43.4664 25.5544C43.6941 26.3184 43.206 27.1958 42.4385 27.4064C40.8547 27.8524 39.2692 28.2933 37.6819 28.7273C36.8844 28.9533 36.0216 28.4041 35.8239 27.6126C34.6328 28.2881 33.2896 28.6482 31.9378 28.8166C31.6207 29.7731 30.6978 30.464 29.6974 30.5302C29.8685 30.9633 29.9484 31.4369 29.8736 31.9001C29.7438 32.8454 29.022 33.6833 28.1007 33.9394C27.4957 34.1181 26.8331 34.0433 26.2703 33.7649C26.2067 34.3527 25.9566 34.9242 25.5226 35.3324C24.8394 36.0182 23.7403 36.2339 22.8465 35.8635C22.3257 35.6701 21.9459 35.2516 21.5669 34.8649C21.3976 36.239 19.9659 37.2944 18.6029 36.9927C17.851 36.8801 17.3061 36.3207 16.806 35.7982C16.4347 36.0328 15.9921 36.1703 15.5504 36.1058C14.85 36.0311 14.2493 35.4991 14.0405 34.8331C13.3702 35.2044 12.4739 35.1219 11.9187 34.5805C11.361 34.0872 11.2037 33.2484 11.4735 32.5652C10.8342 32.3873 10.2928 31.8657 10.1553 31.2083C10.0685 30.8671 10.1209 30.5139 10.2146 30.1805C9.52361 30.0069 8.94096 29.4268 8.83526 28.7126C8.76908 28.4282 8.86104 28.1429 8.85588 27.8593C8.67971 27.6444 8.46487 27.4648 8.27494 27.262C8.16666 27.7201 7.99307 28.2039 7.58401 28.4789C7.21018 28.7556 6.71002 28.8458 6.26401 28.7126C4.71885 28.2795 3.17197 27.8558 1.62682 27.4227C0.824161 27.2371 0.307677 26.3262 0.547442 25.5398C1.74799 21.3564 2.95627 17.1755 4.16111 12.993C4.35447 12.2281 5.21041 11.7228 5.97354 11.9273C7.41041 12.3175 8.84299 12.7231 10.279 13.1176C10.6546 13.2164 11.0559 13.3092 11.3446 13.5894C11.7425 13.9503 11.8869 14.5192 11.8061 15.04C13.1553 14.7805 14.5278 14.6601 15.8993 14.5965C14.8045 12.742 14.2656 10.5773 14.3146 8.4271C14.3164 7.05467 14.3112 5.68139 14.3163 4.30897C14.294 4.07178 14.4427 3.85006 14.6653 3.77358C16.9177 2.8953 19.1727 2.02131 21.4242 1.14131ZM15.3021 4.58053C15.3029 5.95038 15.3012 7.32022 15.3029 8.69006C15.2883 10.7594 15.8907 12.8288 17.0303 14.557C17.2786 14.557 17.5338 14.5974 17.7779 14.5347C18.0478 14.4152 18.297 14.2554 18.566 14.1351C17.4419 12.5873 16.8085 10.6864 16.8094 8.77085C16.812 7.82639 16.7991 6.88108 16.8146 5.93663C16.806 5.69514 17.0036 5.51725 17.2176 5.45022C18.7421 4.86241 20.2641 4.26514 21.7886 3.67475C21.9665 3.59311 22.1607 3.64639 22.3335 3.716C23.8167 4.29608 25.3026 4.86928 26.7859 5.45022C26.9981 5.52069 27.1941 5.69858 27.1855 5.94006C27.2001 6.91116 27.1906 7.88397 27.1898 8.85506C27.1692 10.811 26.4937 12.748 25.3026 14.2983C25.8071 14.4513 26.3012 14.6378 26.7945 14.8243C27.995 13.1133 28.6619 11.0387 28.6937 8.94874C28.7031 7.49124 28.6954 6.03459 28.698 4.57709C26.4671 3.71084 24.2378 2.84116 22.006 1.97749C19.7717 2.84545 17.5356 3.70999 15.3021 4.58053ZM17.7865 6.29155C17.7865 7.14749 17.7822 8.00342 17.7882 8.85936C17.8089 10.6331 18.4371 12.3871 19.5328 13.7801C20.0071 13.6667 20.4884 13.5748 20.9765 13.5541C22.0971 13.4914 23.1997 13.7509 24.2825 14.0044C25.0843 13.0428 25.679 11.9058 25.9746 10.6881C26.3459 9.25038 26.1757 7.75506 26.2144 6.28811C24.8102 5.74155 23.4085 5.19069 22.0035 4.6467C20.5984 5.19585 19.1907 5.73897 17.7865 6.29155ZM5.35479 12.9345C5.20783 13.0136 5.12533 13.1674 5.08322 13.323C3.89041 17.4617 2.6976 21.6005 1.50479 25.7392C1.38361 26.04 1.56236 26.4112 1.88549 26.4757C3.43322 26.9097 4.9801 27.3471 6.52955 27.7733C6.83807 27.879 7.17065 27.647 7.22565 27.3368C8.4219 23.1851 9.6233 19.0335 10.8135 14.8801C10.9253 14.5742 10.7113 14.2287 10.3959 14.1729C8.89971 13.7535 7.40268 13.3376 5.90736 12.9156C5.72776 12.8658 5.52151 12.8228 5.35479 12.9345ZM38.0918 12.9165C36.679 13.3101 35.2662 13.7037 33.8525 14.0938C33.6308 14.16 33.3541 14.1961 33.2321 14.4221C33.1014 14.6206 33.1771 14.8595 33.2424 15.0666C34.4249 19.183 35.6091 23.2994 36.8019 27.4124C36.8853 27.7201 37.2514 27.8636 37.5375 27.7484C39.0225 27.3359 40.5075 26.9243 41.9934 26.5144C42.1696 26.4645 42.3672 26.4001 42.4583 26.2248C42.6096 25.9747 42.4746 25.6876 42.4085 25.4333C41.2749 21.5119 40.1457 17.588 39.0165 13.665C38.9306 13.4055 38.9056 13.0737 38.6375 12.9302C38.4708 12.8211 38.2689 12.8692 38.0918 12.9165ZM18.4139 15.327C16.9056 16.1821 15.791 17.5803 14.9274 19.0558C14.722 19.4108 14.5028 19.7812 14.4874 20.2031C14.4349 20.9233 14.8818 21.6512 15.5556 21.9184C16.1975 22.1926 16.9959 22.0336 17.4763 21.5248C18.2231 20.723 18.9587 19.9109 19.7029 19.1074C20.2675 18.4973 21.0839 18.1208 21.9184 18.126C22.7331 18.1191 23.5426 18.4543 24.1115 19.0387C26.5169 21.4449 28.9249 23.8486 31.3277 26.2565C31.7462 26.6673 31.9903 27.2268 32.0607 27.8051C33.2819 27.641 34.4807 27.2689 35.5464 26.6441C34.546 23.0958 33.5079 19.5577 32.4921 16.0137C31.5924 16.3987 30.6926 16.7837 29.7963 17.1764C29.6227 17.2451 29.4233 17.3423 29.2394 17.2494C28.9816 17.1197 28.759 16.9298 28.5098 16.7854C26.9114 15.8091 25.1196 15.1947 23.2994 14.783C22.8164 14.6782 22.3292 14.5905 21.8367 14.545C20.6517 14.435 19.4356 14.7203 18.4139 15.327ZM11.6678 16.0601C11.4443 16.0558 11.4409 16.3041 11.385 16.4605C10.4586 19.7047 9.51588 22.9445 8.5869 26.1887C8.87049 26.4731 9.15494 26.7576 9.44283 27.0386C9.94385 26.5462 10.432 26.0408 10.9364 25.5519C11.5311 24.9812 12.528 24.9245 13.1897 25.4109C13.6787 25.7478 13.9468 26.3339 13.952 26.92C14.4349 26.9303 14.9231 27.097 15.2634 27.4502C15.6183 27.7914 15.7893 28.2804 15.7979 28.7659C16.262 28.7814 16.7312 28.9344 17.0672 29.2644C17.441 29.6047 17.6241 30.1065 17.6396 30.605C18.3838 30.599 19.1134 31.0665 19.3592 31.7789C19.5981 32.4148 19.4374 33.178 18.9544 33.6592C18.4766 34.1473 17.9859 34.6234 17.5081 35.1115C17.8432 35.4244 18.1337 35.8265 18.5892 35.9709C19.1787 36.178 19.8842 35.9778 20.2675 35.4819C20.6921 34.9586 20.7049 34.1362 20.2649 33.6188C20.1283 33.4478 19.9521 33.2527 20.0269 33.0147C20.0914 32.6795 20.546 32.5145 20.8003 32.7526C21.4749 33.3902 22.1092 34.0717 22.7821 34.7119C23.4094 35.2929 24.5154 35.1683 24.9984 34.4627C25.4306 33.8818 25.3696 32.9872 24.8256 32.4965C23.6818 31.3251 22.5139 30.177 21.3581 29.0169C21.1845 28.833 20.9275 28.6551 20.9524 28.3698C20.9585 28.038 21.3529 27.7914 21.6494 27.959C21.8703 28.1016 22.0335 28.3139 22.2235 28.4935C23.3905 29.6451 24.5326 30.8215 25.7108 31.9619C26.1482 32.408 26.5693 32.9932 27.2491 33.0413C28.1394 33.1685 28.9962 32.3598 28.9197 31.4635C28.9163 30.8387 28.4393 30.3919 28.0071 30.0094C26.6638 28.6301 25.2854 27.2835 23.9319 25.9145C23.736 25.7358 23.7291 25.4032 23.9242 25.2219C24.1029 25.0242 24.4381 25.0251 24.6185 25.221C25.9342 26.5152 27.2199 27.8421 28.545 29.1269C29.0624 29.6674 29.9939 29.6657 30.5499 29.1827C31.2065 28.6448 31.2564 27.537 30.6402 26.9475C28.2528 24.549 25.8535 22.1625 23.4635 19.7674C23.1705 19.4683 22.801 19.2415 22.3893 19.1538C21.6906 18.9897 20.9215 19.2286 20.436 19.7554C19.69 20.5563 18.9544 21.3658 18.211 22.1685C17.6894 22.7314 16.9228 23.0554 16.1554 23.033C15.4439 23.021 14.7495 22.7073 14.2571 22.1951C13.4707 21.4037 13.2645 20.1069 13.7758 19.1134C14.4642 17.7994 15.3347 16.5671 16.4278 15.5582C14.8328 15.6106 13.2344 15.7455 11.6678 16.0601ZM11.8878 26.0958C11.6738 26.1672 11.5208 26.3416 11.3644 26.4946C10.9407 26.9303 10.5007 27.3505 10.0779 27.7862C9.83643 28.0294 9.69979 28.4067 9.85447 28.7333C10.0229 29.1896 10.6468 29.3769 11.0378 29.0882C11.3489 28.8605 11.6042 28.5674 11.8792 28.2993C12.2212 27.9237 12.6526 27.6144 12.9001 27.1649C13.1631 26.5642 12.5082 25.8526 11.8878 26.0958ZM13.6821 27.9624C13.5326 28.0312 13.4183 28.1532 13.2989 28.2632C12.6492 28.906 12.0158 29.5651 11.367 30.2088C11.1702 30.3979 11.0585 30.6772 11.1109 30.9513C11.1667 31.3483 11.5492 31.6689 11.9531 31.6371C12.2006 31.6371 12.3939 31.4669 12.5598 31.3037C13.1656 30.7038 13.7655 30.098 14.3696 29.4964C14.606 29.2652 14.8621 28.9782 14.795 28.619C14.7503 28.1051 14.1548 27.7476 13.6821 27.9624ZM15.5942 29.7972C15.4181 29.853 15.2849 29.9888 15.1525 30.1117C14.2837 30.9633 13.4372 31.8373 12.5684 32.6881C12.1817 33.049 12.2917 33.7632 12.7703 33.9892C13.1218 34.1757 13.5584 34.0425 13.8102 33.7529C14.6661 32.8591 15.5796 32.0212 16.4244 31.1163C16.647 30.8963 16.7106 30.5448 16.5877 30.2587C16.445 29.8719 15.981 29.6605 15.5942 29.7972ZM17.3757 31.6517C17.1231 31.7849 16.9383 32.0144 16.7321 32.2077C16.2078 32.7448 15.6553 33.2562 15.1517 33.8122C14.8569 34.1258 14.9205 34.6698 15.2445 34.9397C15.5453 35.2078 16.0437 35.188 16.3299 34.9079C16.9718 34.2857 17.5983 33.6455 18.2317 33.0147C18.4783 32.7861 18.5823 32.408 18.4422 32.0951C18.2832 31.6921 17.7753 31.4695 17.3757 31.6517Z" />
    </mask>
    <path
        d="M21.4242 1.14131C21.6752 1.04936 21.9467 0.88522 22.2174 1.00983C24.5653 1.91733 26.9105 2.83256 29.2557 3.74694C29.4972 3.81999 29.6906 4.03913 29.6639 4.30381C29.6682 5.82061 29.6674 7.33827 29.6639 8.85506C29.6502 11.1109 28.9549 13.3539 27.6908 15.2222C28.3087 15.5238 28.9094 15.859 29.48 16.2423C30.3918 15.8469 31.3071 15.4611 32.2146 15.0572C32.0324 14.3026 32.5059 13.4596 33.2596 13.2533C34.8331 12.8116 36.4083 12.3768 37.9835 11.9394C38.7656 11.7013 39.6567 12.2212 39.8535 13.0101C41.0575 17.191 42.2667 21.3719 43.4664 25.5544C43.6941 26.3184 43.206 27.1958 42.4385 27.4064C40.8547 27.8524 39.2692 28.2933 37.6819 28.7273C36.8844 28.9533 36.0216 28.4041 35.8239 27.6126C34.6328 28.2881 33.2896 28.6482 31.9378 28.8166C31.6207 29.7731 30.6978 30.464 29.6974 30.5302C29.8685 30.9633 29.9484 31.4369 29.8736 31.9001C29.7438 32.8454 29.022 33.6833 28.1007 33.9394C27.4957 34.1181 26.8331 34.0433 26.2703 33.7649C26.2067 34.3527 25.9566 34.9242 25.5226 35.3324C24.8394 36.0182 23.7403 36.2339 22.8465 35.8635C22.3257 35.6701 21.9459 35.2516 21.5669 34.8649C21.3976 36.239 19.9659 37.2944 18.6029 36.9927C17.851 36.8801 17.3061 36.3207 16.806 35.7982C16.4347 36.0328 15.9921 36.1703 15.5504 36.1058C14.85 36.0311 14.2493 35.4991 14.0405 34.8331C13.3702 35.2044 12.4739 35.1219 11.9187 34.5805C11.361 34.0872 11.2037 33.2484 11.4735 32.5652C10.8342 32.3873 10.2928 31.8657 10.1553 31.2083C10.0685 30.8671 10.1209 30.5139 10.2146 30.1805C9.52361 30.0069 8.94096 29.4268 8.83526 28.7126C8.76908 28.4282 8.86104 28.1429 8.85588 27.8593C8.67971 27.6444 8.46487 27.4648 8.27494 27.262C8.16666 27.7201 7.99307 28.2039 7.58401 28.4789C7.21018 28.7556 6.71002 28.8458 6.26401 28.7126C4.71885 28.2795 3.17197 27.8558 1.62682 27.4227C0.824161 27.2371 0.307677 26.3262 0.547442 25.5398C1.74799 21.3564 2.95627 17.1755 4.16111 12.993C4.35447 12.2281 5.21041 11.7228 5.97354 11.9273C7.41041 12.3175 8.84299 12.7231 10.279 13.1176C10.6546 13.2164 11.0559 13.3092 11.3446 13.5894C11.7425 13.9503 11.8869 14.5192 11.8061 15.04C13.1553 14.7805 14.5278 14.6601 15.8993 14.5965C14.8045 12.742 14.2656 10.5773 14.3146 8.4271C14.3164 7.05467 14.3112 5.68139 14.3163 4.30897C14.294 4.07178 14.4427 3.85006 14.6653 3.77358C16.9177 2.8953 19.1727 2.02131 21.4242 1.14131ZM15.3021 4.58053C15.3029 5.95038 15.3012 7.32022 15.3029 8.69006C15.2883 10.7594 15.8907 12.8288 17.0303 14.557C17.2786 14.557 17.5338 14.5974 17.7779 14.5347C18.0478 14.4152 18.297 14.2554 18.566 14.1351C17.4419 12.5873 16.8085 10.6864 16.8094 8.77085C16.812 7.82639 16.7991 6.88108 16.8146 5.93663C16.806 5.69514 17.0036 5.51725 17.2176 5.45022C18.7421 4.86241 20.2641 4.26514 21.7886 3.67475C21.9665 3.59311 22.1607 3.64639 22.3335 3.716C23.8167 4.29608 25.3026 4.86928 26.7859 5.45022C26.9981 5.52069 27.1941 5.69858 27.1855 5.94006C27.2001 6.91116 27.1906 7.88397 27.1898 8.85506C27.1692 10.811 26.4937 12.748 25.3026 14.2983C25.8071 14.4513 26.3012 14.6378 26.7945 14.8243C27.995 13.1133 28.6619 11.0387 28.6937 8.94874C28.7031 7.49124 28.6954 6.03459 28.698 4.57709C26.4671 3.71084 24.2378 2.84116 22.006 1.97749C19.7717 2.84545 17.5356 3.70999 15.3021 4.58053ZM17.7865 6.29155C17.7865 7.14749 17.7822 8.00342 17.7882 8.85936C17.8089 10.6331 18.4371 12.3871 19.5328 13.7801C20.0071 13.6667 20.4884 13.5748 20.9765 13.5541C22.0971 13.4914 23.1997 13.7509 24.2825 14.0044C25.0843 13.0428 25.679 11.9058 25.9746 10.6881C26.3459 9.25038 26.1757 7.75506 26.2144 6.28811C24.8102 5.74155 23.4085 5.19069 22.0035 4.6467C20.5984 5.19585 19.1907 5.73897 17.7865 6.29155ZM5.35479 12.9345C5.20783 13.0136 5.12533 13.1674 5.08322 13.323C3.89041 17.4617 2.6976 21.6005 1.50479 25.7392C1.38361 26.04 1.56236 26.4112 1.88549 26.4757C3.43322 26.9097 4.9801 27.3471 6.52955 27.7733C6.83807 27.879 7.17065 27.647 7.22565 27.3368C8.4219 23.1851 9.6233 19.0335 10.8135 14.8801C10.9253 14.5742 10.7113 14.2287 10.3959 14.1729C8.89971 13.7535 7.40268 13.3376 5.90736 12.9156C5.72776 12.8658 5.52151 12.8228 5.35479 12.9345ZM38.0918 12.9165C36.679 13.3101 35.2662 13.7037 33.8525 14.0938C33.6308 14.16 33.3541 14.1961 33.2321 14.4221C33.1014 14.6206 33.1771 14.8595 33.2424 15.0666C34.4249 19.183 35.6091 23.2994 36.8019 27.4124C36.8853 27.7201 37.2514 27.8636 37.5375 27.7484C39.0225 27.3359 40.5075 26.9243 41.9934 26.5144C42.1696 26.4645 42.3672 26.4001 42.4583 26.2248C42.6096 25.9747 42.4746 25.6876 42.4085 25.4333C41.2749 21.5119 40.1457 17.588 39.0165 13.665C38.9306 13.4055 38.9056 13.0737 38.6375 12.9302C38.4708 12.8211 38.2689 12.8692 38.0918 12.9165ZM18.4139 15.327C16.9056 16.1821 15.791 17.5803 14.9274 19.0558C14.722 19.4108 14.5028 19.7812 14.4874 20.2031C14.4349 20.9233 14.8818 21.6512 15.5556 21.9184C16.1975 22.1926 16.9959 22.0336 17.4763 21.5248C18.2231 20.723 18.9587 19.9109 19.7029 19.1074C20.2675 18.4973 21.0839 18.1208 21.9184 18.126C22.7331 18.1191 23.5426 18.4543 24.1115 19.0387C26.5169 21.4449 28.9249 23.8486 31.3277 26.2565C31.7462 26.6673 31.9903 27.2268 32.0607 27.8051C33.2819 27.641 34.4807 27.2689 35.5464 26.6441C34.546 23.0958 33.5079 19.5577 32.4921 16.0137C31.5924 16.3987 30.6926 16.7837 29.7963 17.1764C29.6227 17.2451 29.4233 17.3423 29.2394 17.2494C28.9816 17.1197 28.759 16.9298 28.5098 16.7854C26.9114 15.8091 25.1196 15.1947 23.2994 14.783C22.8164 14.6782 22.3292 14.5905 21.8367 14.545C20.6517 14.435 19.4356 14.7203 18.4139 15.327ZM11.6678 16.0601C11.4443 16.0558 11.4409 16.3041 11.385 16.4605C10.4586 19.7047 9.51588 22.9445 8.5869 26.1887C8.87049 26.4731 9.15494 26.7576 9.44283 27.0386C9.94385 26.5462 10.432 26.0408 10.9364 25.5519C11.5311 24.9812 12.528 24.9245 13.1897 25.4109C13.6787 25.7478 13.9468 26.3339 13.952 26.92C14.4349 26.9303 14.9231 27.097 15.2634 27.4502C15.6183 27.7914 15.7893 28.2804 15.7979 28.7659C16.262 28.7814 16.7312 28.9344 17.0672 29.2644C17.441 29.6047 17.6241 30.1065 17.6396 30.605C18.3838 30.599 19.1134 31.0665 19.3592 31.7789C19.5981 32.4148 19.4374 33.178 18.9544 33.6592C18.4766 34.1473 17.9859 34.6234 17.5081 35.1115C17.8432 35.4244 18.1337 35.8265 18.5892 35.9709C19.1787 36.178 19.8842 35.9778 20.2675 35.4819C20.6921 34.9586 20.7049 34.1362 20.2649 33.6188C20.1283 33.4478 19.9521 33.2527 20.0269 33.0147C20.0914 32.6795 20.546 32.5145 20.8003 32.7526C21.4749 33.3902 22.1092 34.0717 22.7821 34.7119C23.4094 35.2929 24.5154 35.1683 24.9984 34.4627C25.4306 33.8818 25.3696 32.9872 24.8256 32.4965C23.6818 31.3251 22.5139 30.177 21.3581 29.0169C21.1845 28.833 20.9275 28.6551 20.9524 28.3698C20.9585 28.038 21.3529 27.7914 21.6494 27.959C21.8703 28.1016 22.0335 28.3139 22.2235 28.4935C23.3905 29.6451 24.5326 30.8215 25.7108 31.9619C26.1482 32.408 26.5693 32.9932 27.2491 33.0413C28.1394 33.1685 28.9962 32.3598 28.9197 31.4635C28.9163 30.8387 28.4393 30.3919 28.0071 30.0094C26.6638 28.6301 25.2854 27.2835 23.9319 25.9145C23.736 25.7358 23.7291 25.4032 23.9242 25.2219C24.1029 25.0242 24.4381 25.0251 24.6185 25.221C25.9342 26.5152 27.2199 27.8421 28.545 29.1269C29.0624 29.6674 29.9939 29.6657 30.5499 29.1827C31.2065 28.6448 31.2564 27.537 30.6402 26.9475C28.2528 24.549 25.8535 22.1625 23.4635 19.7674C23.1705 19.4683 22.801 19.2415 22.3893 19.1538C21.6906 18.9897 20.9215 19.2286 20.436 19.7554C19.69 20.5563 18.9544 21.3658 18.211 22.1685C17.6894 22.7314 16.9228 23.0554 16.1554 23.033C15.4439 23.021 14.7495 22.7073 14.2571 22.1951C13.4707 21.4037 13.2645 20.1069 13.7758 19.1134C14.4642 17.7994 15.3347 16.5671 16.4278 15.5582C14.8328 15.6106 13.2344 15.7455 11.6678 16.0601ZM11.8878 26.0958C11.6738 26.1672 11.5208 26.3416 11.3644 26.4946C10.9407 26.9303 10.5007 27.3505 10.0779 27.7862C9.83643 28.0294 9.69979 28.4067 9.85447 28.7333C10.0229 29.1896 10.6468 29.3769 11.0378 29.0882C11.3489 28.8605 11.6042 28.5674 11.8792 28.2993C12.2212 27.9237 12.6526 27.6144 12.9001 27.1649C13.1631 26.5642 12.5082 25.8526 11.8878 26.0958ZM13.6821 27.9624C13.5326 28.0312 13.4183 28.1532 13.2989 28.2632C12.6492 28.906 12.0158 29.5651 11.367 30.2088C11.1702 30.3979 11.0585 30.6772 11.1109 30.9513C11.1667 31.3483 11.5492 31.6689 11.9531 31.6371C12.2006 31.6371 12.3939 31.4669 12.5598 31.3037C13.1656 30.7038 13.7655 30.098 14.3696 29.4964C14.606 29.2652 14.8621 28.9782 14.795 28.619C14.7503 28.1051 14.1548 27.7476 13.6821 27.9624ZM15.5942 29.7972C15.4181 29.853 15.2849 29.9888 15.1525 30.1117C14.2837 30.9633 13.4372 31.8373 12.5684 32.6881C12.1817 33.049 12.2917 33.7632 12.7703 33.9892C13.1218 34.1757 13.5584 34.0425 13.8102 33.7529C14.6661 32.8591 15.5796 32.0212 16.4244 31.1163C16.647 30.8963 16.7106 30.5448 16.5877 30.2587C16.445 29.8719 15.981 29.6605 15.5942 29.7972ZM17.3757 31.6517C17.1231 31.7849 16.9383 32.0144 16.7321 32.2077C16.2078 32.7448 15.6553 33.2562 15.1517 33.8122C14.8569 34.1258 14.9205 34.6698 15.2445 34.9397C15.5453 35.2078 16.0437 35.188 16.3299 34.9079C16.9718 34.2857 17.5983 33.6455 18.2317 33.0147C18.4783 32.7861 18.5823 32.408 18.4422 32.0951C18.2832 31.6921 17.7753 31.4695 17.3757 31.6517Z"
        fill="black" />
    <path
        d="M21.4242 1.14131C21.6752 1.04936 21.9467 0.88522 22.2174 1.00983C24.5653 1.91733 26.9105 2.83256 29.2557 3.74694C29.4972 3.81999 29.6906 4.03913 29.6639 4.30381C29.6682 5.82061 29.6674 7.33827 29.6639 8.85506C29.6502 11.1109 28.9549 13.3539 27.6908 15.2222C28.3087 15.5238 28.9094 15.859 29.48 16.2423C30.3918 15.8469 31.3071 15.4611 32.2146 15.0572C32.0324 14.3026 32.5059 13.4596 33.2596 13.2533C34.8331 12.8116 36.4083 12.3768 37.9835 11.9394C38.7656 11.7013 39.6567 12.2212 39.8535 13.0101C41.0575 17.191 42.2667 21.3719 43.4664 25.5544C43.6941 26.3184 43.206 27.1958 42.4385 27.4064C40.8547 27.8524 39.2692 28.2933 37.6819 28.7273C36.8844 28.9533 36.0216 28.4041 35.8239 27.6126C34.6328 28.2881 33.2896 28.6482 31.9378 28.8166C31.6207 29.7731 30.6978 30.464 29.6974 30.5302C29.8685 30.9633 29.9484 31.4369 29.8736 31.9001C29.7438 32.8454 29.022 33.6833 28.1007 33.9394C27.4957 34.1181 26.8331 34.0433 26.2703 33.7649C26.2067 34.3527 25.9566 34.9242 25.5226 35.3324C24.8394 36.0182 23.7403 36.2339 22.8465 35.8635C22.3257 35.6701 21.9459 35.2516 21.5669 34.8649C21.3976 36.239 19.9659 37.2944 18.6029 36.9927C17.851 36.8801 17.3061 36.3207 16.806 35.7982C16.4347 36.0328 15.9921 36.1703 15.5504 36.1058C14.85 36.0311 14.2493 35.4991 14.0405 34.8331C13.3702 35.2044 12.4739 35.1219 11.9187 34.5805C11.361 34.0872 11.2037 33.2484 11.4735 32.5652C10.8342 32.3873 10.2928 31.8657 10.1553 31.2083C10.0685 30.8671 10.1209 30.5139 10.2146 30.1805C9.52361 30.0069 8.94096 29.4268 8.83526 28.7126C8.76908 28.4282 8.86104 28.1429 8.85588 27.8593C8.67971 27.6444 8.46487 27.4648 8.27494 27.262C8.16666 27.7201 7.99307 28.2039 7.58401 28.4789C7.21018 28.7556 6.71002 28.8458 6.26401 28.7126C4.71885 28.2795 3.17197 27.8558 1.62682 27.4227C0.824161 27.2371 0.307677 26.3262 0.547442 25.5398C1.74799 21.3564 2.95627 17.1755 4.16111 12.993C4.35447 12.2281 5.21041 11.7228 5.97354 11.9273C7.41041 12.3175 8.84299 12.7231 10.279 13.1176C10.6546 13.2164 11.0559 13.3092 11.3446 13.5894C11.7425 13.9503 11.8869 14.5192 11.8061 15.04C13.1553 14.7805 14.5278 14.6601 15.8993 14.5965C14.8045 12.742 14.2656 10.5773 14.3146 8.4271C14.3164 7.05467 14.3112 5.68139 14.3163 4.30897C14.294 4.07178 14.4427 3.85006 14.6653 3.77358C16.9177 2.8953 19.1727 2.02131 21.4242 1.14131ZM15.3021 4.58053C15.3029 5.95038 15.3012 7.32022 15.3029 8.69006C15.2883 10.7594 15.8907 12.8288 17.0303 14.557C17.2786 14.557 17.5338 14.5974 17.7779 14.5347C18.0478 14.4152 18.297 14.2554 18.566 14.1351C17.4419 12.5873 16.8085 10.6864 16.8094 8.77085C16.812 7.82639 16.7991 6.88108 16.8146 5.93663C16.806 5.69514 17.0036 5.51725 17.2176 5.45022C18.7421 4.86241 20.2641 4.26514 21.7886 3.67475C21.9665 3.59311 22.1607 3.64639 22.3335 3.716C23.8167 4.29608 25.3026 4.86928 26.7859 5.45022C26.9981 5.52069 27.1941 5.69858 27.1855 5.94006C27.2001 6.91116 27.1906 7.88397 27.1898 8.85506C27.1692 10.811 26.4937 12.748 25.3026 14.2983C25.8071 14.4513 26.3012 14.6378 26.7945 14.8243C27.995 13.1133 28.6619 11.0387 28.6937 8.94874C28.7031 7.49124 28.6954 6.03459 28.698 4.57709C26.4671 3.71084 24.2378 2.84116 22.006 1.97749C19.7717 2.84545 17.5356 3.70999 15.3021 4.58053ZM17.7865 6.29155C17.7865 7.14749 17.7822 8.00342 17.7882 8.85936C17.8089 10.6331 18.4371 12.3871 19.5328 13.7801C20.0071 13.6667 20.4884 13.5748 20.9765 13.5541C22.0971 13.4914 23.1997 13.7509 24.2825 14.0044C25.0843 13.0428 25.679 11.9058 25.9746 10.6881C26.3459 9.25038 26.1757 7.75506 26.2144 6.28811C24.8102 5.74155 23.4085 5.19069 22.0035 4.6467C20.5984 5.19585 19.1907 5.73897 17.7865 6.29155ZM5.35479 12.9345C5.20783 13.0136 5.12533 13.1674 5.08322 13.323C3.89041 17.4617 2.6976 21.6005 1.50479 25.7392C1.38361 26.04 1.56236 26.4112 1.88549 26.4757C3.43322 26.9097 4.9801 27.3471 6.52955 27.7733C6.83807 27.879 7.17065 27.647 7.22565 27.3368C8.4219 23.1851 9.6233 19.0335 10.8135 14.8801C10.9253 14.5742 10.7113 14.2287 10.3959 14.1729C8.89971 13.7535 7.40268 13.3376 5.90736 12.9156C5.72776 12.8658 5.52151 12.8228 5.35479 12.9345ZM38.0918 12.9165C36.679 13.3101 35.2662 13.7037 33.8525 14.0938C33.6308 14.16 33.3541 14.1961 33.2321 14.4221C33.1014 14.6206 33.1771 14.8595 33.2424 15.0666C34.4249 19.183 35.6091 23.2994 36.8019 27.4124C36.8853 27.7201 37.2514 27.8636 37.5375 27.7484C39.0225 27.3359 40.5075 26.9243 41.9934 26.5144C42.1696 26.4645 42.3672 26.4001 42.4583 26.2248C42.6096 25.9747 42.4746 25.6876 42.4085 25.4333C41.2749 21.5119 40.1457 17.588 39.0165 13.665C38.9306 13.4055 38.9056 13.0737 38.6375 12.9302C38.4708 12.8211 38.2689 12.8692 38.0918 12.9165ZM18.4139 15.327C16.9056 16.1821 15.791 17.5803 14.9274 19.0558C14.722 19.4108 14.5028 19.7812 14.4874 20.2031C14.4349 20.9233 14.8818 21.6512 15.5556 21.9184C16.1975 22.1926 16.9959 22.0336 17.4763 21.5248C18.2231 20.723 18.9587 19.9109 19.7029 19.1074C20.2675 18.4973 21.0839 18.1208 21.9184 18.126C22.7331 18.1191 23.5426 18.4543 24.1115 19.0387C26.5169 21.4449 28.9249 23.8486 31.3277 26.2565C31.7462 26.6673 31.9903 27.2268 32.0607 27.8051C33.2819 27.641 34.4807 27.2689 35.5464 26.6441C34.546 23.0958 33.5079 19.5577 32.4921 16.0137C31.5924 16.3987 30.6926 16.7837 29.7963 17.1764C29.6227 17.2451 29.4233 17.3423 29.2394 17.2494C28.9816 17.1197 28.759 16.9298 28.5098 16.7854C26.9114 15.8091 25.1196 15.1947 23.2994 14.783C22.8164 14.6782 22.3292 14.5905 21.8367 14.545C20.6517 14.435 19.4356 14.7203 18.4139 15.327ZM11.6678 16.0601C11.4443 16.0558 11.4409 16.3041 11.385 16.4605C10.4586 19.7047 9.51588 22.9445 8.5869 26.1887C8.87049 26.4731 9.15494 26.7576 9.44283 27.0386C9.94385 26.5462 10.432 26.0408 10.9364 25.5519C11.5311 24.9812 12.528 24.9245 13.1897 25.4109C13.6787 25.7478 13.9468 26.3339 13.952 26.92C14.4349 26.9303 14.9231 27.097 15.2634 27.4502C15.6183 27.7914 15.7893 28.2804 15.7979 28.7659C16.262 28.7814 16.7312 28.9344 17.0672 29.2644C17.441 29.6047 17.6241 30.1065 17.6396 30.605C18.3838 30.599 19.1134 31.0665 19.3592 31.7789C19.5981 32.4148 19.4374 33.178 18.9544 33.6592C18.4766 34.1473 17.9859 34.6234 17.5081 35.1115C17.8432 35.4244 18.1337 35.8265 18.5892 35.9709C19.1787 36.178 19.8842 35.9778 20.2675 35.4819C20.6921 34.9586 20.7049 34.1362 20.2649 33.6188C20.1283 33.4478 19.9521 33.2527 20.0269 33.0147C20.0914 32.6795 20.546 32.5145 20.8003 32.7526C21.4749 33.3902 22.1092 34.0717 22.7821 34.7119C23.4094 35.2929 24.5154 35.1683 24.9984 34.4627C25.4306 33.8818 25.3696 32.9872 24.8256 32.4965C23.6818 31.3251 22.5139 30.177 21.3581 29.0169C21.1845 28.833 20.9275 28.6551 20.9524 28.3698C20.9585 28.038 21.3529 27.7914 21.6494 27.959C21.8703 28.1016 22.0335 28.3139 22.2235 28.4935C23.3905 29.6451 24.5326 30.8215 25.7108 31.9619C26.1482 32.408 26.5693 32.9932 27.2491 33.0413C28.1394 33.1685 28.9962 32.3598 28.9197 31.4635C28.9163 30.8387 28.4393 30.3919 28.0071 30.0094C26.6638 28.6301 25.2854 27.2835 23.9319 25.9145C23.736 25.7358 23.7291 25.4032 23.9242 25.2219C24.1029 25.0242 24.4381 25.0251 24.6185 25.221C25.9342 26.5152 27.2199 27.8421 28.545 29.1269C29.0624 29.6674 29.9939 29.6657 30.5499 29.1827C31.2065 28.6448 31.2564 27.537 30.6402 26.9475C28.2528 24.549 25.8535 22.1625 23.4635 19.7674C23.1705 19.4683 22.801 19.2415 22.3893 19.1538C21.6906 18.9897 20.9215 19.2286 20.436 19.7554C19.69 20.5563 18.9544 21.3658 18.211 22.1685C17.6894 22.7314 16.9228 23.0554 16.1554 23.033C15.4439 23.021 14.7495 22.7073 14.2571 22.1951C13.4707 21.4037 13.2645 20.1069 13.7758 19.1134C14.4642 17.7994 15.3347 16.5671 16.4278 15.5582C14.8328 15.6106 13.2344 15.7455 11.6678 16.0601ZM11.8878 26.0958C11.6738 26.1672 11.5208 26.3416 11.3644 26.4946C10.9407 26.9303 10.5007 27.3505 10.0779 27.7862C9.83643 28.0294 9.69979 28.4067 9.85447 28.7333C10.0229 29.1896 10.6468 29.3769 11.0378 29.0882C11.3489 28.8605 11.6042 28.5674 11.8792 28.2993C12.2212 27.9237 12.6526 27.6144 12.9001 27.1649C13.1631 26.5642 12.5082 25.8526 11.8878 26.0958ZM13.6821 27.9624C13.5326 28.0312 13.4183 28.1532 13.2989 28.2632C12.6492 28.906 12.0158 29.5651 11.367 30.2088C11.1702 30.3979 11.0585 30.6772 11.1109 30.9513C11.1667 31.3483 11.5492 31.6689 11.9531 31.6371C12.2006 31.6371 12.3939 31.4669 12.5598 31.3037C13.1656 30.7038 13.7655 30.098 14.3696 29.4964C14.606 29.2652 14.8621 28.9782 14.795 28.619C14.7503 28.1051 14.1548 27.7476 13.6821 27.9624ZM15.5942 29.7972C15.4181 29.853 15.2849 29.9888 15.1525 30.1117C14.2837 30.9633 13.4372 31.8373 12.5684 32.6881C12.1817 33.049 12.2917 33.7632 12.7703 33.9892C13.1218 34.1757 13.5584 34.0425 13.8102 33.7529C14.6661 32.8591 15.5796 32.0212 16.4244 31.1163C16.647 30.8963 16.7106 30.5448 16.5877 30.2587C16.445 29.8719 15.981 29.6605 15.5942 29.7972ZM17.3757 31.6517C17.1231 31.7849 16.9383 32.0144 16.7321 32.2077C16.2078 32.7448 15.6553 33.2562 15.1517 33.8122C14.8569 34.1258 14.9205 34.6698 15.2445 34.9397C15.5453 35.2078 16.0437 35.188 16.3299 34.9079C16.9718 34.2857 17.5983 33.6455 18.2317 33.0147C18.4783 32.7861 18.5823 32.408 18.4422 32.0951C18.2832 31.6921 17.7753 31.4695 17.3757 31.6517Z"
        stroke="black" stroke-width="0.4" mask="url(#path-1-outside-1_77_494)" />
    <path
        d="M21.606 11.7272L21.606 11.7272L21.6069 11.7262C22.2534 11.0749 22.9024 10.4268 23.5516 9.77859C23.9329 9.39784 24.3142 9.01705 24.6951 8.63553C24.8821 8.46713 25.0029 8.17216 24.8685 7.90851C24.7844 7.72305 24.6081 7.61364 24.426 7.58499C24.2439 7.55634 24.0425 7.60629 23.9052 7.75643C23.295 8.3634 22.6863 8.97218 22.0778 9.58084C21.7354 9.9233 21.3931 10.2657 21.0505 10.6078C20.9306 10.4919 20.8144 10.3719 20.6968 10.2504C20.6554 10.2076 20.6138 10.1647 20.5719 10.1217C20.3889 9.93415 20.1999 9.74721 19.9928 9.57923L19.9931 9.57888L19.9852 9.57364C19.7352 9.40732 19.4528 9.49217 19.2799 9.66301C19.1074 9.83355 19.0183 10.1151 19.1765 10.3667L19.1759 10.3671L19.184 10.377C19.3672 10.5997 19.5699 10.8038 19.773 11.0021C19.8143 11.0425 19.8556 11.0826 19.8968 11.1225C20.059 11.28 20.2192 11.4355 20.3715 11.5986L20.3712 11.5988L20.3769 11.604C20.4122 11.6364 20.4469 11.6725 20.4848 11.7119C20.4915 11.719 20.4984 11.7262 20.5054 11.7334C20.5503 11.78 20.5994 11.8299 20.6528 11.8745C20.7595 11.9636 20.8929 12.0394 21.0643 12.0291C21.3009 12.0266 21.475 11.8557 21.5978 11.7352C21.6006 11.7325 21.6033 11.7298 21.606 11.7272Z"
        fill="black" stroke="black" stroke-width="0.2" />
    <path
        d="M7.18343 15.7822L7.1835 15.7826L7.1918 15.7804C7.38791 15.7287 7.59089 15.8094 7.7273 15.9619C7.86348 16.1141 7.91995 16.3228 7.84207 16.5129L7.84163 16.5127L7.83884 16.522C7.78068 16.7154 7.60779 16.8428 7.40759 16.8777C7.20724 16.9126 6.99945 16.8515 6.87715 16.6912L6.87744 16.691L6.8717 16.6847C6.74074 16.5404 6.71597 16.334 6.78002 16.1486C6.84408 15.9632 6.99115 15.8156 7.18343 15.7822ZM9.04477 16.5192C9.10825 15.9183 8.83648 15.2963 8.34929 14.9375C7.93458 14.6247 7.37815 14.5261 6.88021 14.6561C6.25419 14.814 5.73782 15.3392 5.60845 15.9765C5.45713 16.6505 5.76148 17.3879 6.33218 17.7703C6.81243 18.1047 7.45884 18.1593 7.9936 17.9369C8.57389 17.7085 8.99054 17.1363 9.04477 16.5192Z"
        fill="black" stroke="black" stroke-width="0.2" />
    <path
        d="M36.4971 15.7949L36.4971 15.7951L36.503 15.7929C36.6548 15.7371 36.8241 15.768 36.962 15.8597C37.1002 15.9516 37.197 16.098 37.2101 16.2589L37.2098 16.2589L37.211 16.2662C37.2582 16.5697 36.9996 16.8768 36.6913 16.8891L36.6913 16.8889L36.686 16.8894C36.3824 16.9179 36.0958 16.6427 36.0958 16.3359H36.0958L36.0957 16.3332C36.0893 16.0935 36.2642 15.8645 36.4971 15.7949ZM37.9435 15.1775C37.5169 14.6958 36.8153 14.4806 36.1928 14.6571C35.3536 14.863 34.7802 15.7577 34.9363 16.6058C35.0605 17.439 35.8484 18.0973 36.6909 18.0704C37.4061 18.0829 38.0623 17.5776 38.29 16.9168C38.5052 16.3301 38.3649 15.6369 37.9435 15.1775Z"
        fill="black" stroke="black" stroke-width="0.2" />
</svg>
    