<svg width="40" height="44" viewBox="0 0 40 44" fill="none" xmlns="http://www.w3.org/2000/svg">
    <path
        d="M23.9068 0.821618C24.6407 0.575837 25.4786 0.675524 26.1352 1.08545C26.4643 1.29427 26.7625 1.54779 27.0796 1.77381C27.4122 2.01271 27.7362 2.3092 28.1573 2.36763C28.7589 2.45271 29.3699 2.43552 29.974 2.50084C30.8042 2.59107 31.5716 3.10584 31.9772 3.83459C32.4164 4.62607 32.3708 5.58599 32.7687 6.39209C33.3316 7.19388 34.3027 7.6631 34.7049 8.58693C35.0804 9.38959 34.9842 10.3547 34.5407 11.1118C34.2511 11.764 33.7321 12.3922 33.8541 13.1502C33.9048 13.9477 34.1626 14.7615 33.9314 15.5522C33.7114 16.3875 33.0497 17.0518 32.2557 17.3646C32.9303 18.9338 33.6049 20.503 34.2838 22.0714C34.368 22.2613 34.4256 22.4796 34.3491 22.6824C34.2546 22.9969 33.9031 23.1954 33.5842 23.1336C32.6424 22.9591 31.7082 22.7434 30.7672 22.5647C30.3014 23.3226 29.8288 24.0754 29.363 24.8343C29.2427 25.0311 29.0889 25.239 28.8474 25.2872C28.5217 25.3817 28.1642 25.178 28.0421 24.8704C27.4354 23.4653 26.827 22.0594 26.2271 20.6508C25.8181 20.5271 25.4133 20.3836 24.9939 20.2976C24.6201 20.216 24.2497 20.3492 23.8948 20.4506C23.0913 22.2269 22.2491 23.9852 21.4361 25.7572C21.3442 25.9618 21.2282 26.1801 21.0082 26.2694C20.6807 26.4353 20.2657 26.2626 20.1058 25.9446C19.634 25.1402 19.17 24.3324 18.699 23.528C17.7528 23.6862 16.8092 23.8692 15.8614 24.0179C15.3509 24.1107 14.9126 23.522 15.1489 23.0588C15.9937 21.2232 16.8548 19.3953 17.7039 17.5614C17.2639 17.3715 16.7989 17.2125 16.4251 16.9014C15.7711 16.3754 15.393 15.5264 15.448 14.6876C15.4892 14.0869 15.6096 13.4931 15.6328 12.8907C15.6517 12.4627 15.4196 12.0872 15.24 11.7168C15.0535 11.3266 14.8275 10.9537 14.6797 10.5463C14.3789 9.69982 14.5517 8.7081 15.1197 8.01287C15.6027 7.43709 16.2524 7.01685 16.6958 6.40756C17.0602 5.67795 17.0645 4.82802 17.3747 4.07779C17.7004 3.3181 18.4008 2.73459 19.2069 2.55068C19.976 2.38912 20.7804 2.50771 21.5435 2.31177C22.4046 1.94052 23.0045 1.11896 23.9068 0.821618ZM24.4921 2.08662C24.0916 2.1631 23.79 2.45787 23.4711 2.68904C22.9615 3.06029 22.4622 3.4874 21.8409 3.65584C21.1242 3.83631 20.3782 3.78904 19.6486 3.86982C19.1605 3.92224 18.7274 4.28834 18.589 4.75842C18.369 5.51295 18.2925 6.3199 17.9247 7.02545C17.4993 7.75334 16.7835 8.23717 16.218 8.84474C15.9026 9.19967 15.8201 9.73678 16.0092 10.1716C16.3263 10.8926 16.7878 11.5595 16.9596 12.3381C17.0963 13.1528 16.872 13.9675 16.823 14.7804C16.7921 15.2488 17.049 15.7189 17.4589 15.9466C18.1971 16.3299 19.0385 16.5361 19.689 17.0733C20.2897 17.6138 20.6343 18.3623 21.1113 19.0008C21.4026 19.385 21.9234 19.5697 22.3935 19.458C23.1712 19.2724 23.9206 18.9175 24.7318 18.8986C25.5396 18.9149 26.2873 19.2647 27.0607 19.4537C27.4303 19.544 27.8367 19.4606 28.1367 19.226C28.4314 18.9914 28.5982 18.6451 28.807 18.34C29.1533 17.8175 29.4833 17.2512 30.0161 16.8962C30.616 16.5052 31.3078 16.2955 31.948 15.9836C32.3932 15.767 32.6836 15.2754 32.651 14.7796C32.6011 13.964 32.3743 13.1468 32.516 12.3287C32.6871 11.5621 33.14 10.9029 33.4545 10.1931C33.665 9.73248 33.5645 9.15412 33.2087 8.79318C32.73 8.30248 32.1792 7.87967 31.7546 7.33826C31.3232 6.7874 31.2081 6.07842 31.0474 5.41756C30.9571 5.05662 30.9159 4.66388 30.6813 4.36052C30.4733 4.07951 30.1433 3.8999 29.797 3.86552C29.0029 3.77959 28.1779 3.85177 27.4131 3.58537C26.6775 3.28888 26.1008 2.7217 25.452 2.28256C25.1727 2.09521 24.8221 2.02131 24.4921 2.08662ZM29.1155 20.1988C28.7477 20.5322 28.2802 20.7299 27.8007 20.8356C28.1315 21.6039 28.4615 22.3722 28.7932 23.1396C29.1482 22.5776 29.4902 22.0069 29.8468 21.4458C29.9886 21.2026 30.2825 21.0582 30.5618 21.1209C31.2261 21.2438 31.8853 21.3925 32.5478 21.5231C32.0279 20.3148 31.5106 19.1057 30.9855 17.8991C30.1158 18.4379 29.8735 19.5448 29.1155 20.1988ZM18.9164 18.2231C18.2582 19.6256 17.6067 21.0315 16.9528 22.4358C17.6007 22.3275 18.247 22.2054 18.8958 22.0989C19.188 22.0319 19.506 22.1651 19.6503 22.4315C19.9932 23.0038 20.3189 23.5865 20.6592 24.1614C21.1706 23.0665 21.6785 21.97 22.1898 20.8751C21.4782 20.8683 20.7632 20.6122 20.2562 20.1043C19.7208 19.5448 19.402 18.8221 18.9164 18.2231Z"
        fill="black" />
    <path
        d="M23.8337 4.53844C25.0815 4.35797 26.3826 4.5582 27.5127 5.11852C28.7536 5.72781 29.7832 6.75649 30.3925 7.99828C31.0207 9.26242 31.1977 10.7414 30.8943 12.1198C30.6047 13.4648 29.8545 14.7031 28.8026 15.5883C27.8943 16.36 26.7625 16.8679 25.58 17.0226C24.2256 17.2091 22.8136 16.9375 21.6277 16.2577C20.3825 15.5522 19.3907 14.4118 18.8691 13.0789C18.283 11.5999 18.289 9.8975 18.8889 8.42453C19.6984 6.37664 21.65 4.83492 23.8337 4.53844ZM23.9927 5.90742C22.5171 6.12313 21.1739 7.05813 20.4469 8.3575C19.7586 9.56063 19.6219 11.0611 20.0765 12.3699C20.4323 13.4192 21.1576 14.3362 22.0918 14.93C23.1178 15.5883 24.3966 15.8495 25.5963 15.6261C26.9318 15.3966 28.1495 14.5802 28.8782 13.439C29.5846 12.3502 29.8364 10.9734 29.5443 9.70672C29.2641 8.42797 28.446 7.27984 27.3322 6.59234C26.3474 5.97445 25.14 5.73125 23.9927 5.90742Z"
        fill="black" />
    <path
        d="M27.3004 8.32825C27.584 8.04466 28.1005 8.09364 28.3257 8.42536C28.5517 8.71927 28.4666 9.16099 28.1804 9.38356C26.7693 10.6623 25.3625 11.9462 23.9471 13.2215C23.6971 13.4682 23.2614 13.4785 23.0104 13.2293C22.4149 12.6509 21.8331 12.0562 21.2453 11.4693C21.0201 11.263 20.9445 10.9098 21.0957 10.6391C21.2848 10.2464 21.8649 10.145 22.1708 10.4604C22.6211 10.89 23.0517 11.3412 23.496 11.7778C24.7653 10.6288 26.0294 9.47466 27.3004 8.32825Z"
        fill="black" />
    <path
        d="M11.2929 27.6479C12.4032 26.9948 13.6089 26.3752 14.9272 26.3571C15.9 26.3227 16.8023 26.7344 17.7012 27.0455C19.4836 27.6831 21.2745 28.3302 23.1393 28.6826C24.2668 28.8828 25.2044 29.8728 25.3239 31.0149C25.3986 31.5512 25.2517 32.0866 25.0308 32.5721C25.6547 32.3762 26.1979 32.0067 26.7608 31.6861C28.409 30.7262 30.0573 29.7663 31.7065 28.8055C32.8933 28.1137 34.0878 27.3471 35.4654 27.1074C36.3943 26.932 37.4436 27.0764 38.1621 27.733C39.2879 28.7264 39.3257 30.6385 38.334 31.7368C38.0401 32.0617 37.6439 32.261 37.2795 32.4913C33.5945 34.7635 29.9086 37.0323 26.2219 39.301C25.6608 39.6396 25.1176 40.0212 24.504 40.2618C23.7297 40.5738 22.8798 40.6932 22.0497 40.6124C21.394 40.5566 20.7675 40.3452 20.1341 40.1827C17.5964 39.5013 15.0569 38.8267 12.5209 38.1392C12.4264 38.1263 12.3215 38.067 12.2304 38.122C11.8858 38.305 11.5567 38.5164 11.2129 38.7038C11.4656 39.2082 11.8446 39.6637 11.958 40.2274C12.0835 40.9184 11.7311 41.6583 11.1167 41.9969C10.4618 42.3716 9.80528 42.7445 9.14528 43.1089C8.5695 43.4277 7.81411 43.3581 7.29935 42.9525C7.06817 42.7798 6.90833 42.534 6.76997 42.2856C4.90857 38.9882 3.03942 35.6951 1.1763 32.3985C0.725986 31.6449 0.988955 30.5724 1.74435 30.1229C2.41294 29.7319 3.09099 29.3555 3.76474 28.9748C4.38607 28.6173 5.2231 28.7204 5.74388 29.2094C6.09364 29.5437 6.26896 30.0077 6.51989 30.4117C8.1106 29.4913 9.70216 28.57 11.2929 27.6479ZM12.0886 28.7763C10.4584 29.7207 8.82732 30.6643 7.19708 31.6088C8.30997 33.575 9.42286 35.5413 10.5366 37.5075C10.9843 37.2574 11.4209 36.9859 11.8721 36.7427C12.1299 36.5863 12.429 36.6971 12.6954 36.7633C15.3457 37.4774 17.9977 38.183 20.6472 38.8971C21.1972 39.0389 21.7429 39.2228 22.3143 39.2538C23.0173 39.3019 23.7306 39.1481 24.3528 38.8181C24.7593 38.6015 25.1434 38.3471 25.537 38.1082C29.3664 35.7544 33.1906 33.3911 37.0208 31.0381C37.7161 30.6643 37.8329 29.6717 37.4703 29.0272C37.1815 28.5142 36.5379 28.3586 35.9896 28.4239C34.8483 28.5434 33.8411 29.1475 32.8718 29.7181C31.0447 30.7829 29.2168 31.8459 27.3907 32.9116C26.8776 33.2081 26.374 33.5312 25.8189 33.7443C25.0377 34.0485 24.1801 34.1345 23.3499 34.0348C21.4997 33.8217 19.7319 33.2124 17.9393 32.7414C17.6737 32.6598 17.3558 32.6185 17.189 32.3693C16.9458 32.0522 17.0661 31.5426 17.4254 31.3664C17.7554 31.1842 18.1232 31.3759 18.454 31.4549C19.7689 31.8099 21.07 32.2267 22.408 32.4922C22.9958 32.6117 23.7091 32.3504 23.8896 31.7334C24.1801 31.0167 23.6498 30.177 22.9116 30.0421C20.8216 29.6451 18.8176 28.9112 16.8229 28.1902C16.2085 27.9822 15.5932 27.702 14.9289 27.7338C13.8968 27.7639 12.9618 28.2709 12.0886 28.7763ZM4.46513 30.1684C3.81028 30.5139 3.17091 30.892 2.52638 31.2573C2.33216 31.3449 2.27458 31.6027 2.40263 31.7712C4.26146 35.066 6.13146 38.3557 7.99028 41.6514C8.05646 41.7511 8.11317 41.8809 8.2395 41.917C8.42341 41.9806 8.58669 41.8405 8.74224 41.7657C9.30169 41.4357 9.87833 41.1324 10.4352 40.7972C10.6114 40.7078 10.6483 40.4698 10.5409 40.3134C8.67091 36.9979 6.79146 33.6867 4.91802 30.3738C4.84067 30.208 4.64732 30.0679 4.46513 30.1684Z"
        fill="black" />
    <path
        d="M4.04919 31.4996C4.41184 31.3647 4.84669 31.6001 4.93606 31.9748C5.04177 32.3289 4.80544 32.7311 4.4488 32.8179C4.08786 32.9261 3.67708 32.6786 3.59973 32.3117C3.51122 31.9765 3.72005 31.6027 4.04919 31.4996Z"
        fill="black" />
</svg>
    