<svg width="44" height="44" viewBox="0 0 44 44" fill="none" xmlns="http://www.w3.org/2000/svg">
    <path
        d="M0.691917 1.36892C0.681605 1.00627 1.00387 0.683143 1.36653 0.691737C2.60145 0.682284 3.83723 0.68744 5.07215 0.690018C5.44684 0.667674 5.79231 0.995096 5.78371 1.37064C5.7966 1.75135 5.44684 2.08221 5.06957 2.05986C4.06754 2.06674 3.06551 2.05986 2.06262 2.06244C2.05918 3.06877 2.06778 4.0751 2.06004 5.08056C2.07723 5.45439 1.74637 5.79557 1.37168 5.78353C0.996136 5.79127 0.668714 5.44838 0.690198 5.07455C0.686761 3.83963 0.683323 2.60385 0.691917 1.36892Z"
        fill="black" />
    <path
        d="M21.371 1.38015C21.3538 0.998589 21.7079 0.659136 22.0886 0.690073C22.4435 0.697807 22.7477 1.02007 22.7383 1.37414C22.7503 2.00578 22.7374 2.63828 22.7426 3.27078C25.7349 3.37992 28.6963 4.21867 31.2977 5.70109C32.8909 4.11039 34.4825 2.5171 36.0758 0.926401C36.4342 0.485542 37.2162 0.715854 37.2781 1.28046C37.4602 2.09429 37.6278 2.9107 37.8083 3.72453C38.0773 3.46843 38.3188 3.17882 38.6195 2.9571C39.2306 2.52226 40.1243 2.55664 40.7009 3.03703C41.2716 3.4839 41.5002 4.3046 41.2458 4.98351C41.0765 5.4914 40.6279 5.8171 40.2756 6.19265C41.037 6.35765 41.7992 6.51921 42.5615 6.68164C42.7901 6.73234 43.0479 6.79593 43.1828 7.00734C43.3942 7.28406 43.3263 7.6957 43.0745 7.92343C41.4847 9.51843 39.8888 11.1083 38.299 12.7024C39.8003 15.3364 40.6382 18.3399 40.7336 21.3701C41.3644 21.3735 41.996 21.3623 42.6277 21.3727C43.0084 21.3563 43.3409 21.7147 43.31 22.0919C43.2988 22.4443 42.98 22.7451 42.6277 22.7399C41.9934 22.7545 41.3575 22.7391 40.7233 22.7451C40.5849 25.9832 39.6018 29.1861 37.8581 31.9206C36.0569 34.7634 33.4822 37.1147 30.477 38.6315C28.0527 39.8655 25.3517 40.535 22.6343 40.6209C22.6274 41.2887 22.642 41.9564 22.6292 42.6233C22.6429 43.004 22.288 43.3391 21.9107 43.3099C21.5584 43.3005 21.2533 42.9825 21.2619 42.6301C21.2499 41.9581 21.2627 41.2861 21.2576 40.6141C19.086 40.5152 16.9298 40.0529 14.9197 39.221C9.89408 37.1645 5.86962 32.8066 4.24541 27.6212C3.73064 26.0073 3.44877 24.3229 3.38259 22.6308C2.714 22.6256 2.04627 22.6377 1.37853 22.6273C0.996109 22.6454 0.657515 22.2879 0.690171 21.908C0.699625 21.5531 1.02103 21.2523 1.37423 21.2601C2.04369 21.2463 2.71314 21.2601 3.38173 21.2549C3.50806 17.6782 4.68025 14.1427 6.75048 11.22C8.78205 8.33335 11.6343 6.02249 14.9008 4.67585C16.9487 3.82249 19.1521 3.35929 21.3667 3.27164C21.3719 2.64085 21.359 2.01093 21.371 1.38015ZM30.9505 7.99476C31.1026 8.7046 31.2556 9.41445 31.4094 10.1243C33.1565 8.37804 34.9027 6.63093 36.6499 4.88382C36.4977 4.17398 36.3448 3.46414 36.1909 2.75515C34.443 4.50054 32.6967 6.24851 30.9505 7.99476ZM39.4609 4.05539C39.2546 4.18773 39.1017 4.38367 38.9263 4.55124C33.526 9.94984 28.1292 15.3519 22.7263 20.7487C22.5613 20.9189 22.294 21.1131 22.4031 21.3864C22.4917 21.6459 22.8638 21.6958 23.0331 21.4869C28.6233 15.9044 34.2058 10.3151 39.7934 4.73C39.9069 4.62085 40.0169 4.46789 39.961 4.30031C39.9163 4.08632 39.6568 3.96515 39.4609 4.05539ZM20.0098 4.75749C16.6032 5.15109 13.3324 6.60515 10.7449 8.85328C8.00517 11.214 6.02775 14.4487 5.20619 17.973C4.40267 21.3727 4.65533 25.0181 5.94267 28.2674C6.97994 30.9117 8.6858 33.2887 10.8506 35.1261C12.6673 36.6755 14.808 37.8417 17.0948 38.5284C19.4555 39.2356 21.9674 39.4281 24.4089 39.0921C27.7527 38.6452 30.9462 37.174 33.4736 34.9413C35.7845 32.9115 37.547 30.2594 38.5027 27.3333C39.9834 22.8809 39.5348 17.8329 37.2867 13.713C36.9472 13.9958 36.6877 14.5071 36.1858 14.4822C35.4845 14.3653 34.7953 14.184 34.0975 14.0456C35.121 15.6209 35.8455 17.3903 36.1961 19.2362C36.9386 23.0175 36.0672 27.0789 33.8328 30.2182C31.9792 32.8608 29.2171 34.8562 26.1165 35.7594C23.7034 36.4762 21.1003 36.5294 18.6554 35.9356C16.0017 35.2988 13.5499 33.8723 11.6644 31.9026C9.75658 29.9191 8.43142 27.3788 7.9158 24.6744C7.39244 21.9596 7.664 19.0927 8.71158 16.5327C9.73595 14.0061 11.4985 11.788 13.7209 10.2102C16.024 8.56195 18.8247 7.62007 21.6563 7.55304C24.5774 7.45937 27.5061 8.30671 29.9536 9.89742C29.8187 9.25976 29.6743 8.62382 29.5428 7.98617C29.3727 7.40867 29.9674 7.08039 30.2879 6.71171C27.1718 5.02132 23.5289 4.33125 20.0098 4.75749ZM33.8767 12.5907C34.5856 12.7445 35.2955 12.8975 36.0053 13.0496C37.7524 11.3034 39.4995 9.5571 41.2458 7.80914C40.5359 7.65531 39.8261 7.50234 39.1154 7.35023C37.37 9.0982 35.6229 10.8436 33.8767 12.5907ZM15.0271 10.9837C12.8185 12.3999 11.0517 14.4959 10.0402 16.9177C8.97111 19.4468 8.74681 22.3188 9.38962 24.9872C10.0127 27.6066 11.4839 30.0102 13.5181 31.7719C15.584 33.5766 18.2317 34.7033 20.9671 34.9233C23.3863 35.1278 25.8621 34.644 28.0166 33.5216C30.2088 32.3916 32.0659 30.6247 33.3077 28.4943C34.4129 26.6097 35.0265 24.4415 35.0738 22.2569C35.1545 19.3248 34.1938 16.3823 32.4157 14.0516C31.1765 15.29 29.9381 16.5292 28.6989 17.7684C29.6417 18.3786 30.2484 19.4915 30.1805 20.6216C30.1504 21.4216 29.7895 22.1865 29.2309 22.7537C31.0923 23.5434 32.4604 25.398 32.6065 27.4209C32.6168 27.7991 32.2627 28.1222 31.8889 28.0947C25.325 28.0964 18.7602 28.0981 12.1963 28.0938C11.8302 28.1119 11.4917 27.7879 11.5028 27.4201C11.6481 25.3971 13.0179 23.5434 14.8776 22.7537C14.1901 22.0653 13.8223 21.0667 13.9477 20.0965C14.0689 18.9733 14.8415 17.9549 15.8856 17.5261C16.5431 17.2434 17.289 17.2116 17.9791 17.3877C18.505 16.8541 19.1263 16.4149 19.8138 16.1141C18.9124 15.2316 18.6013 13.8076 19.0911 12.6388C19.587 11.3601 20.9731 10.5033 22.3404 10.6511C23.7627 10.7525 25.0096 11.923 25.2107 13.3332C25.3809 14.3395 25.0139 15.3948 24.2972 16.1133C24.5499 16.2353 24.7974 16.3668 25.0457 16.4983C26.6699 14.85 28.3156 13.2232 29.9502 11.5844C27.6204 9.8046 24.677 8.84554 21.7457 8.92546C19.373 8.97445 17.0209 9.69718 15.0271 10.9837ZM21.6821 12.0493C20.9783 12.1877 20.3913 12.7832 20.2667 13.4905C20.1249 14.1814 20.4343 14.9325 21.017 15.3278C21.5618 15.7154 22.3249 15.7592 22.9119 15.4378C23.4645 15.1465 23.846 14.5552 23.8727 13.9296C23.9079 13.3667 23.6578 12.7978 23.2247 12.4377C22.8062 12.0802 22.2201 11.9359 21.6821 12.0493ZM19.2449 18.0787C19.8147 18.6003 20.1928 19.3153 20.2977 20.081C20.6827 20.0802 21.0677 20.0802 21.4527 20.081C22.3095 19.2216 23.1688 18.3648 24.0265 17.5063C22.508 16.7028 20.5314 16.9417 19.2449 18.0787ZM16.7081 18.6983C15.8788 18.8762 15.2497 19.6952 15.3013 20.5434C15.3167 21.3916 16.0068 22.1607 16.8473 22.2716C17.6207 22.403 18.4388 21.963 18.7645 21.2515C19.0817 20.6061 18.9596 19.7802 18.4715 19.2526C18.041 18.7653 17.3397 18.5462 16.7081 18.6983ZM25.2984 21.1673C25.4574 21.4852 25.6705 21.7843 25.973 21.9794C26.5488 22.3773 27.3592 22.3979 27.9495 22.018C28.5872 21.633 28.9361 20.8312 28.7694 20.1034C28.6568 19.5138 28.2245 19.0266 27.6849 18.7816C26.8899 19.5774 26.095 20.3732 25.2984 21.1673ZM19.361 22.7537C20.4919 23.2435 21.4492 24.1089 22.0534 25.1823C22.6609 24.1106 23.6166 23.2435 24.7484 22.7545C24.5834 22.5723 24.4287 22.3807 24.2835 22.1822C24.0506 22.4185 23.8202 22.6729 23.5152 22.8173C22.9763 23.0854 22.2983 23.0476 21.7973 22.7141C21.3564 22.4409 21.0943 21.9562 21.0084 21.456C20.7274 21.4552 20.4463 21.4552 20.1662 21.456C19.9926 21.9407 19.7202 22.385 19.361 22.7537ZM15.1285 24.1587C14.117 24.683 13.347 25.6309 13.0188 26.7197C15.7524 26.7223 18.487 26.7205 21.2215 26.7205C20.8949 25.6412 20.137 24.6976 19.1358 24.1725C17.9103 23.5073 16.3592 23.5082 15.1285 24.1587ZM25.1824 24.0676C24.0841 24.5704 23.2342 25.5638 22.8887 26.7205C25.6224 26.7214 28.3569 26.7214 31.0914 26.7197C30.7709 25.6652 30.0404 24.7397 29.071 24.2086C27.8963 23.5443 26.4035 23.497 25.1824 24.0676Z"
        fill="black" />
    <path
        d="M1.13692 38.2584C1.53911 38.0917 2.04013 38.4062 2.05388 38.8428C2.07536 39.874 2.0556 40.9061 2.06247 41.9374C3.09286 41.9434 4.12411 41.9254 5.1545 41.9451C5.61599 41.9563 5.93052 42.5106 5.71825 42.9171C5.59364 43.1981 5.27825 43.3373 4.98177 43.3132C3.77607 43.3081 2.5695 43.3201 1.3638 43.3072C1.00372 43.3141 0.683174 42.9936 0.691768 42.6335C0.680596 41.4269 0.691768 40.2212 0.686612 39.0147C0.657393 38.6993 0.82583 38.3624 1.13692 38.2584Z"
        fill="black" />
    <path
        d="M41.94 38.9236C41.9194 38.5489 42.2477 38.2052 42.6232 38.2164C42.9996 38.2043 43.3288 38.5481 43.3098 38.9228C43.3184 40.0692 43.3073 41.2164 43.315 42.3637C43.3098 42.5837 43.327 42.8295 43.1878 43.0168C43.0486 43.2282 42.7899 43.3236 42.5441 43.3125C41.335 43.3107 40.1259 43.3168 38.9176 43.3099C38.5455 43.3271 38.2069 42.9988 38.2155 42.6258C38.2043 42.2477 38.5498 41.9177 38.9262 41.94C39.9299 41.9332 40.9337 41.94 41.9374 41.9375C41.94 40.9329 41.9323 39.9282 41.94 38.9236Z"
        fill="black" />
</svg>
    