<svg width="44" height="44" viewBox="0 0 44 44" fill="none" xmlns="http://www.w3.org/2000/svg">
    <path
        d="M12.9525 3.89381C15.4172 1.88717 18.5642 0.736467 21.7431 0.691779C25.0929 0.615295 28.4428 1.77889 31.0424 3.88779C32.505 3.32576 34.0304 2.88834 35.5996 2.7792C36.1479 1.82529 37.0786 1.09397 38.1485 0.821545C39.4342 0.478654 40.8753 0.812092 41.8765 1.69037C42.9146 2.57123 43.4595 3.98748 43.2773 5.3367C43.126 6.60772 42.3294 7.76186 41.226 8.39779C41.0524 10.6648 40.2463 12.8279 39.2786 14.8663C38.0626 17.3937 36.5286 19.7544 34.8588 22.0026C35.3899 22.715 35.8944 23.4463 36.4057 24.1725C37.6853 23.7694 39.1617 24.5102 39.6567 25.7443C40.1036 26.7506 39.8321 27.9675 39.0861 28.7572C39.9549 30.4983 40.6889 32.3262 41.0575 34.2435C41.3179 35.652 41.3841 37.1611 40.8315 38.5103C40.4053 39.5759 39.5244 40.4508 38.4442 40.8469C36.9196 41.427 35.2301 41.2792 33.6703 40.9294C31.5975 40.4473 29.6338 39.5802 27.7647 38.5773C27.6693 38.518 27.5576 38.5069 27.4493 38.4948C27.2989 39.7177 26.7197 40.8813 25.8363 41.7407C24.909 42.6559 23.644 43.2222 22.3421 43.2979C21.0771 43.3812 19.7888 43.0057 18.7679 42.2529C17.5571 41.3755 16.7278 39.9858 16.5533 38.4983C16.4622 38.5 16.3754 38.5163 16.2929 38.549C13.8317 39.8466 11.2054 41.0008 8.39869 41.2233C7.85986 42.1515 6.96525 42.8725 5.92627 43.1569C4.60283 43.5411 3.09893 43.1922 2.07713 42.2675C1.0665 41.3866 0.544005 39.9919 0.721895 38.6641C0.873145 37.3914 1.66979 36.2321 2.7801 35.5996C2.90041 33.9221 3.3851 32.2936 4.009 30.7398C5.30408 27.5412 7.19213 24.6254 9.23143 21.8582C8.82838 21.1303 8.52502 20.3526 8.26119 19.5654C7.73182 19.8541 7.11736 19.9951 6.51666 19.9117C5.54643 19.794 4.67416 19.1108 4.3201 18.2007C3.91361 17.2141 4.16541 16.0179 4.91221 15.2608C3.84658 13.0565 2.90643 10.7207 2.75604 8.25084C2.67525 6.81139 2.98033 5.25162 4.00729 4.17826C4.99385 3.11694 6.50549 2.74654 7.91057 2.7749C9.64736 2.80069 11.3369 3.29139 12.9525 3.89381ZM14.4169 4.50912C17.1067 5.76467 19.6238 7.36311 22.0009 9.136C24.3762 7.3674 26.8839 5.75608 29.5763 4.5117C27.2766 2.84108 24.4123 1.96881 21.5712 2.07108C19.0137 2.1467 16.494 3.01811 14.4169 4.50912ZM38.8592 2.08311C37.9431 2.18623 37.1053 2.7878 36.7117 3.62053C36.3121 4.43264 36.3559 5.4424 36.8251 6.21584C37.4524 7.31069 38.8816 7.84436 40.071 7.41467C41.3652 7.00217 42.1979 5.53694 41.8688 4.21436C41.5998 2.87287 40.2153 1.88889 38.8592 2.08311ZM5.4433 4.75147C4.88299 5.12272 4.504 5.72084 4.3244 6.36194C4.05541 7.32615 4.11041 8.34709 4.27197 9.32506C4.59252 11.1555 5.29377 12.894 6.10158 14.5587C6.58455 14.416 7.10018 14.398 7.584 14.5432C7.63643 13.8136 7.70088 13.084 7.84611 12.3672C8.37721 9.56569 9.77713 6.94459 11.7881 4.92678C10.5093 4.49194 9.17815 4.14904 7.82033 4.14217C6.99705 4.14475 6.13768 4.28311 5.4433 4.75147ZM32.2085 4.92334C33.4443 6.17373 34.4661 7.63811 35.182 9.24514C36.3439 11.8258 36.7074 14.7537 36.2287 17.5424C36.606 16.9228 36.9781 16.2997 37.321 15.6604C38.4545 13.5377 39.4556 11.2913 39.7994 8.89194C38.4888 9.09045 37.1001 8.61608 36.1952 7.64498C35.3263 6.74264 34.9207 5.43209 35.1089 4.19545C34.1181 4.32865 33.1513 4.59678 32.2085 4.92334ZM9.13432 12.882C8.67197 15.5014 9.0415 18.2548 10.1673 20.6637C13.3178 16.7191 16.9237 13.1424 20.8708 9.99623C18.4757 8.2517 15.9517 6.66014 13.2258 5.48279C11.0946 7.40608 9.62244 10.0512 9.13432 12.882ZM23.1464 10.0117C27.091 13.1476 30.6857 16.7269 33.825 20.6697C35.011 18.1594 35.3547 15.2633 34.8013 12.5434C34.2599 9.83811 32.8161 7.33303 30.776 5.48022C28.0569 6.66701 25.5346 8.26115 23.1464 10.0117ZM10.8823 22C12.1258 24.0169 13.9348 25.6772 16.0454 26.7523C16.3041 26.8649 16.5078 27.1158 16.4966 27.408C16.506 28.1256 16.4966 28.844 16.5 29.5625C17.417 29.5625 18.3331 29.5625 19.25 29.5625C19.2492 26.2187 19.2517 22.8757 19.2492 19.5327C18.6287 18.9131 18.0091 18.2935 17.3895 17.6739C17.7126 17.349 18.0366 17.0251 18.3614 16.7019C19.0472 17.3903 19.7381 18.0726 20.4205 18.7644C20.6749 18.9999 20.6224 19.3677 20.6259 19.6797C20.6233 22.9737 20.6259 26.2676 20.625 29.5625C21.542 29.5625 22.4581 29.5625 23.375 29.5625C23.375 26.1533 23.375 22.7451 23.375 19.3359C23.3596 19.1047 23.4455 18.8779 23.6182 18.7223C24.2911 18.0486 24.9657 17.3757 25.6386 16.7019C25.9635 17.0259 26.2892 17.3473 26.6106 17.6739C25.9901 18.2926 25.3731 18.914 24.7517 19.5319C24.7483 22.8748 24.7509 26.2187 24.75 29.5625C25.667 29.5625 26.5831 29.5625 27.5 29.5625C27.5035 28.8449 27.494 28.1265 27.5026 27.4089C27.4897 27.1133 27.7028 26.8632 27.9615 26.7489C30.073 25.673 31.8717 24.0058 33.1229 21.994C29.8874 17.8569 26.1448 14.1144 22.0155 10.8694C17.8656 14.1023 14.1153 17.8492 10.8823 22ZM5.62635 16.6169C5.2826 17.3009 5.66072 18.2007 6.37057 18.4654C6.88361 18.6828 7.49119 18.5187 7.87619 18.1311C7.73611 17.4358 7.62955 16.732 7.60119 16.0239C6.93604 15.5762 5.93486 15.8795 5.62635 16.6169ZM9.99713 23.1662C8.34541 25.4186 6.83807 27.7905 5.67533 30.3342C4.99127 31.857 4.41807 33.4486 4.19463 35.1097C5.5301 34.9018 6.94721 35.3994 7.85127 36.4048C8.68744 37.3037 9.07416 38.5876 8.89111 39.8002C10.7267 39.5493 12.4721 38.8772 14.1428 38.0987C13.8394 37.7635 13.7071 37.314 13.7483 36.8672C13.7973 36.251 13.6099 35.5661 13.9674 35.0126C14.2081 34.6113 14.6678 34.3904 15.125 34.3638C15.125 34.1421 15.125 33.9204 15.125 33.6995C14.4315 33.684 13.7835 33.1134 13.7569 32.407C13.7474 31.8596 13.738 31.3105 13.7629 30.763C13.8317 30.0867 14.4564 29.5668 15.125 29.5513C15.125 28.9755 15.1242 28.3997 15.1259 27.8248C13.0703 26.718 11.3051 25.0972 9.99713 23.1662ZM34.0021 23.161C32.7053 25.1023 30.9255 26.7111 28.875 27.8257C28.875 28.4006 28.875 28.9755 28.875 29.5504C29.5685 29.5642 30.2148 30.1357 30.2431 30.8412C30.2552 31.362 30.256 31.8845 30.2431 32.4062C30.2165 33.1126 29.5694 33.684 28.875 33.6987C28.8742 33.9204 28.8742 34.1412 28.875 34.3629C29.4534 34.3827 30.0042 34.7651 30.1813 35.3229C30.3179 35.854 30.2208 36.4126 30.2517 36.9548C30.2853 37.3759 30.1331 37.7867 29.8547 38.1012C31.3844 38.8145 32.9742 39.4358 34.6431 39.7306C35.6881 39.9076 36.7907 39.9652 37.8099 39.624C38.5464 39.3808 39.1849 38.836 39.4952 38.1193C39.9549 37.0777 39.912 35.8961 39.7461 34.7944C39.4385 32.9201 38.7235 31.1412 37.8976 29.4405C37.5031 29.5479 37.0889 29.6003 36.6842 29.5247C35.6005 29.3605 34.6672 28.4848 34.4429 27.4097C34.2272 26.4988 34.5374 25.5071 35.1966 24.8505C34.8073 24.2816 34.4171 23.7119 34.0021 23.161ZM36.8827 25.4581C36.3662 25.5492 35.9271 25.9531 35.7956 26.461C35.5661 27.2293 36.1548 28.0921 36.9471 28.1754C37.736 28.3026 38.5215 27.61 38.4992 26.8133C38.5249 25.9909 37.6905 25.2871 36.8827 25.4581ZM15.125 30.9375C15.125 31.3955 15.125 31.8536 15.125 32.3125C19.7081 32.3125 24.292 32.3125 28.875 32.3125C28.8759 31.8536 28.875 31.3955 28.875 30.9375C24.292 30.9375 19.7081 30.9375 15.125 30.9375ZM16.5 33.6875C16.5 33.9161 16.5 34.1455 16.5 34.375C20.167 34.375 23.8331 34.375 27.5 34.375C27.5 34.1455 27.5 33.9161 27.5 33.6875C23.8331 33.6875 20.167 33.6875 16.5 33.6875ZM15.125 35.75C15.125 36.208 15.125 36.6661 15.125 37.125C19.7089 37.125 24.292 37.125 28.875 37.125C28.8759 36.6661 28.875 36.208 28.875 35.75C24.292 35.75 19.7081 35.75 15.125 35.75ZM4.48338 36.4581C3.569 36.5612 2.73283 37.1611 2.33838 37.9912C1.95596 38.7672 1.97572 39.7255 2.38994 40.4843C2.9769 41.6264 4.42065 42.2202 5.6401 41.8077C6.96354 41.4176 7.82807 39.9334 7.49377 38.5911C7.22565 37.2479 5.84119 36.2639 4.48338 36.4581ZM17.9352 38.5008C18.1517 39.7676 18.9845 40.9097 20.1352 41.4872C21.34 42.1137 22.8577 42.0784 24.0324 41.3961C25.0989 40.798 25.856 39.7031 26.0649 38.5008C23.3553 38.4991 20.6448 38.4991 17.9352 38.5008Z"
        fill="black" />
</svg>
    