<svg width="39" height="41" viewBox="0 0 39 41" fill="none" xmlns="http://www.w3.org/2000/svg">
    <path
        d="M15.8277 17.4466C15.6417 17.0939 15.6473 16.6949 15.6528 16.304C15.6541 16.2069 15.6555 16.1102 15.6539 16.0148C15.652 15.8802 15.653 15.7449 15.6541 15.6094C15.658 15.1202 15.6618 14.6281 15.5258 14.1546C15.3032 13.3445 14.8078 12.6504 14.3267 11.9764L14.3262 11.9757M15.8277 17.4466L15.737 17.4889C15.7374 17.4897 15.7377 17.4904 15.7381 17.4911M15.8277 17.4466L15.7392 17.4933C15.7388 17.4926 15.7384 17.4918 15.7381 17.4911M15.8277 17.4466C16.0751 17.9767 16.6092 18.3299 17.181 18.4124M15.7381 17.4911C15.6134 17.2536 15.5706 17.0001 15.5568 16.7507C15.5499 16.6256 15.5503 16.5 15.5518 16.3774C15.5521 16.3521 15.5524 16.3269 15.5528 16.3018C15.5541 16.2049 15.5555 16.1102 15.5539 16.0165L15.5539 16.0163C15.5519 15.8765 15.553 15.7378 15.554 15.6002C15.5577 15.1134 15.5613 14.6404 15.4297 14.1822L15.4293 14.1811C15.2122 13.3908 14.728 12.7108 14.2449 12.0339M15.7381 17.4911C15.9895 18.0277 16.5138 18.3892 17.0815 18.4971M14.2449 12.0339C14.2449 12.0339 14.2449 12.034 14.245 12.034L14.3262 11.9757M14.2449 12.0339C14.2449 12.0339 14.2448 12.0338 14.2448 12.0338L14.3262 11.9757M14.2449 12.0339C13.6503 11.2056 13.0554 10.3425 12.7057 9.35958M14.3262 11.9757C13.7312 11.1469 13.1442 10.2941 12.7999 9.32591M12.7999 9.32591L12.7058 9.35974C12.7058 9.35969 12.7058 9.35963 12.7057 9.35958M12.7999 9.32591C12.3643 8.11433 12.2618 6.78583 12.4788 5.51899L26.6338 8.03089C26.8458 6.65792 26.7286 5.19844 26.1133 3.92776C25.5823 2.81291 24.6816 1.9011 23.6239 1.28533C22.0926 0.393027 20.2665 0.0860292 18.5212 0.273747L18.5211 0.273763C16.9617 0.44379 15.4185 1.04483 14.2455 2.11358C13.2661 2.99291 12.6042 4.20712 12.3803 5.50195L12.3802 5.50211C12.1604 6.78515 12.2641 8.1311 12.7057 9.35958M12.7999 9.32591L12.7057 9.35942C12.7057 9.35947 12.7057 9.35953 12.7057 9.35958M17.0815 18.4971C17.0815 18.4691 17.0814 18.4413 17.081 18.4137L17.181 18.4124M17.0815 18.4971C17.0816 18.5536 17.081 18.611 17.0805 18.6689C17.0784 18.8815 17.0763 19.1021 17.1025 19.3181L17.1027 19.3195C17.1982 20.0203 17.8318 20.595 18.5396 20.62L18.5408 20.62C19.0318 20.6316 19.5242 20.6287 20.0146 20.6259C20.1368 20.6252 20.2589 20.6245 20.3808 20.624M17.0815 18.4971C17.1098 18.5025 17.1382 18.5072 17.1667 18.5113L17.181 18.4124M17.181 18.4124C17.1822 18.5005 17.1813 18.5887 17.1805 18.677C17.1784 18.8869 17.1764 19.0969 17.2018 19.306C17.2907 19.9587 17.8841 20.4968 18.5431 20.52C19.0326 20.5316 19.523 20.5287 20.0133 20.5259C20.1358 20.5252 20.2584 20.5245 20.3809 20.524M20.3808 20.624C20.3808 20.624 20.3808 20.624 20.3807 20.624L20.3809 20.524M20.3808 20.624C20.381 20.624 20.3811 20.624 20.3813 20.624L20.3809 20.524M20.3808 20.624L21.6437 19.7633C21.4027 20.2229 20.899 20.5248 20.3809 20.524M15.3048 2.94422L15.3052 2.94392C16.4867 1.96835 18.0516 1.5336 19.5766 1.54461C21.0695 1.56605 22.5946 2.01104 23.738 2.98071L23.7384 2.9811C24.5782 3.68454 25.1468 4.69597 25.3256 5.77635C25.5527 7.14931 25.3221 8.60178 24.6349 9.81309L24.6342 9.81439C24.3691 10.2985 24.0485 10.7483 23.724 11.2036C23.6652 11.2861 23.6063 11.3688 23.5476 11.4518C23.1667 11.9907 22.795 12.5448 22.5314 13.1665C22.2857 13.7143 22.1618 14.3075 22.1275 14.9012C21.9779 14.9014 21.8283 14.9014 21.6786 14.9014C21.5306 14.9014 21.3825 14.9014 21.2343 14.9017C21.2328 13.4953 21.2321 12.0898 21.2351 10.6843C22.2076 10.2831 23.0315 9.50877 23.4345 8.52588C23.6957 7.90312 23.8826 7.16493 23.6569 6.47515C23.4905 5.94089 22.964 5.51532 22.38 5.55531C21.7106 5.59018 21.1892 6.08398 20.8585 6.5902L20.8581 6.59088C20.2672 7.51161 20.0544 8.60732 19.9562 9.66342C19.6528 9.69802 19.347 9.69801 19.0436 9.66339C18.9393 8.57296 18.7186 7.43221 18.0771 6.49626L18.0766 6.49555C17.7505 6.02855 17.2502 5.59021 16.6269 5.55613C16.0864 5.51621 15.5847 5.87627 15.3878 6.35733C15.1335 6.95496 15.2467 7.62527 15.4371 8.19417C15.7945 9.31978 16.6758 10.2426 17.765 10.6833C17.768 12.0893 17.7673 13.4955 17.7658 14.9017C17.6173 14.9014 17.469 14.9014 17.3208 14.9014C17.1711 14.9014 17.0215 14.9014 16.8719 14.9012C16.8361 14.2684 16.691 13.6403 16.4247 13.0616C16.1299 12.4123 15.7234 11.8328 15.3189 11.2638C15.3042 11.2432 15.2895 11.2226 15.2749 11.2019C14.8836 10.6517 14.4978 10.1093 14.2063 9.51037L14.206 9.50973C13.6386 8.36472 13.4679 7.03601 13.6737 5.77628C13.8548 4.67642 14.4415 3.65008 15.3048 2.94422ZM16.8199 8.10167L16.8197 8.10127C16.6415 7.70589 16.5001 7.28324 16.5957 6.88601C16.8412 7.00896 17.0169 7.24969 17.1567 7.5117C17.4162 8.00612 17.5555 8.5553 17.6448 9.11343C17.2908 8.84796 16.9989 8.50354 16.8199 8.10167ZM17.4102 17.1913L17.4102 17.191L17.4032 17.1915C17.1661 17.2076 16.9307 17.0361 16.8914 16.8082C16.8678 16.6402 16.8709 16.4727 16.8742 16.2964C16.8747 16.2718 16.8752 16.2471 16.8756 16.2221C17.4476 16.2221 18.0197 16.2222 18.5918 16.2223C19.7681 16.2225 20.9445 16.2227 22.1212 16.2222C22.1215 16.2762 22.1235 16.3304 22.1254 16.383L22.1255 16.3857C22.1288 16.4755 22.1319 16.5613 22.1277 16.6442C22.1194 16.8093 22.0827 16.9461 21.9752 17.0506L21.9751 17.0506L21.9717 17.0542C21.8639 17.17 21.6916 17.1976 21.5037 17.1929L21.5015 17.1929C20.7516 17.1907 20.001 17.1911 19.2506 17.1916C18.6368 17.192 18.0231 17.1924 17.4102 17.1913ZM22.4062 6.88856C22.4992 7.32622 22.3353 7.78387 22.129 8.20544C21.9506 8.56472 21.6774 8.86887 21.3552 9.11301C21.4575 8.4755 21.6194 7.84704 21.961 7.31061C22.0782 7.1286 22.2242 6.97222 22.4062 6.88856ZM19.9118 14.9013C19.6373 14.9018 19.3628 14.9018 19.0882 14.9013C19.0872 13.9071 19.0873 12.9134 19.0874 11.9193C19.0875 11.6124 19.0875 11.3054 19.0875 10.9984C19.3622 11.0147 19.6372 11.0147 19.9118 10.9984C19.9125 12.2996 19.9125 13.6001 19.9118 14.9013ZM18.9845 19.3108C18.8201 19.3138 18.6651 19.3086 18.5177 19.2724C18.4195 19.1964 18.3917 19.0827 18.3923 18.9261C18.3925 18.8652 18.3968 18.8037 18.4014 18.7389C18.4031 18.716 18.4047 18.6926 18.4063 18.6687C18.4095 18.618 18.412 18.5654 18.4111 18.5131C19.137 18.5124 19.8629 18.5124 20.5882 18.5131C20.5874 18.5654 20.5899 18.618 20.5931 18.6686C20.5946 18.6923 20.5963 18.7154 20.5979 18.7381C20.6025 18.8033 20.6069 18.8651 20.6071 18.9265C20.6076 19.0835 20.5794 19.1974 20.4803 19.2731C20.3348 19.309 20.1819 19.3142 20.0197 19.3112C19.9732 19.3103 19.9252 19.3087 19.8765 19.3071C19.755 19.303 19.6285 19.2988 19.5057 19.3052C19.3805 19.2985 19.2516 19.3027 19.1278 19.3067C19.0791 19.3083 19.0311 19.3099 18.9845 19.3108Z"
        fill="black" stroke="black" stroke-width="0.2" />
    <path
        d="M11.499 1.24311L11.4995 1.24242L11.488 1.23667C11.4238 1.20466 11.359 1.1647 11.289 1.12122L11.2836 1.11787C11.2166 1.07624 11.1448 1.03166 11.0707 0.993707C10.9183 0.915682 10.742 0.858314 10.5428 0.907502C10.2767 0.962534 10.1104 1.18486 10.0629 1.41767C10.0152 1.65138 10.0821 1.92122 10.3121 2.07271L10.312 2.07278L10.3155 2.07487C10.3672 2.10603 10.419 2.13732 10.4709 2.16866C10.9042 2.43029 11.3433 2.6955 11.8 2.92276L11.7998 2.92307L11.8076 2.92614C12.1 3.04252 12.3821 2.9039 12.5391 2.69308C12.6961 2.4823 12.7486 2.17209 12.5552 1.92445L12.5556 1.92409L12.5481 1.91637C12.3941 1.75767 12.2097 1.6436 12.0275 1.54276C11.975 1.51372 11.9232 1.486 11.8721 1.4587C11.742 1.3891 11.617 1.32223 11.499 1.24311Z"
        fill="black" stroke="black" stroke-width="0.2" />
    <path
        d="M28.1546 0.904425L28.1545 0.90394L28.1451 0.907496C27.9443 0.983624 27.7591 1.0875 27.5817 1.19353C27.5375 1.21994 27.494 1.24636 27.4508 1.27257C27.3185 1.35292 27.1895 1.43123 27.0551 1.50077L27.0549 1.5004L27.0472 1.50532C26.9955 1.53837 26.9389 1.5692 26.8776 1.60253C26.8709 1.6062 26.8641 1.6099 26.8572 1.61364C26.7896 1.65049 26.7174 1.69049 26.6501 1.73654C26.5154 1.8286 26.3888 1.95223 26.3437 2.1439C26.2766 2.3744 26.3616 2.60425 26.5114 2.75908C26.6618 2.91453 26.8899 3.00726 27.123 2.9468L27.1231 2.94706L27.13 2.9447C27.2956 2.88852 27.4469 2.8071 27.5901 2.72277C27.6393 2.69385 27.6868 2.665 27.7336 2.63657C27.8263 2.5803 27.9163 2.52568 28.0106 2.47539L28.0109 2.47599L28.0205 2.46933C28.0852 2.42445 28.1571 2.38439 28.2342 2.34368C28.2547 2.33284 28.2758 2.32186 28.2972 2.31071C28.3544 2.28094 28.4138 2.25001 28.4707 2.21753C28.6281 2.12762 28.7866 2.01491 28.8881 1.83589L28.8881 1.83591L28.8893 1.83372C29.0171 1.59482 28.9555 1.32697 28.8089 1.14143C28.6624 0.955869 28.4163 0.834108 28.1546 0.904425Z"
        fill="black" stroke="black" stroke-width="0.2" />
    <path
        d="M9.1227 6.35854L9.12267 6.35812L9.11356 6.35956C8.75444 6.41621 8.51246 6.80282 8.60003 7.14936C8.66216 7.45024 8.95059 7.67104 9.25518 7.66103C9.75838 7.66741 10.2627 7.67061 10.7673 7.65944C11.1695 7.66908 11.4899 7.26309 11.4038 6.8771C11.3468 6.54041 11.0159 6.31639 10.6912 6.34398C10.51 6.34642 10.3258 6.34473 10.1402 6.34303C9.80206 6.33993 9.45949 6.33678 9.1227 6.35854Z"
        fill="black" stroke="black" stroke-width="0.2" />
    <path
        d="M28.0954 6.36369L28.0954 6.36325L28.0861 6.36513C27.8865 6.40554 27.7332 6.54601 27.6512 6.71482C27.5696 6.88261 27.5535 7.08849 27.6398 7.26929C27.7526 7.5433 28.0457 7.682 28.3179 7.66419C28.4857 7.66289 28.6553 7.66419 28.8259 7.66551C29.1606 7.66809 29.4989 7.67069 29.8335 7.65367L29.8335 7.65368L29.8347 7.65361C30.084 7.63793 30.2711 7.46732 30.3588 7.26433C30.4458 7.06284 30.4428 6.81121 30.2924 6.61842C30.1875 6.46047 30.0326 6.39106 29.8774 6.36132C29.7403 6.33506 29.593 6.33813 29.4693 6.34071C29.4552 6.34101 29.4413 6.3413 29.4279 6.34153L29.4279 6.34152L29.426 6.34158C29.2548 6.3478 29.0836 6.34532 28.9096 6.3428C28.8626 6.34212 28.8154 6.34144 28.768 6.34092C28.5464 6.33851 28.3209 6.33983 28.0954 6.36369Z"
        fill="black" stroke="black" stroke-width="0.2" />
    <path
        d="M11.805 11.0804L11.805 11.0803L11.8002 11.0825C11.6004 11.1748 11.4104 11.2835 11.225 11.3932C11.1848 11.417 11.1449 11.4408 11.1051 11.4645C10.9603 11.5508 10.8177 11.6358 10.6713 11.7146L10.6713 11.7146L10.6677 11.7166C10.6406 11.7327 10.6107 11.7495 10.5792 11.7672C10.4929 11.8155 10.395 11.8704 10.3123 11.9343C10.1957 12.0243 10.0912 12.1444 10.0596 12.3187C9.99984 12.5522 10.0936 12.781 10.2498 12.9312C10.407 13.0824 10.641 13.167 10.874 13.0927L10.8741 13.0931L10.8817 13.0899C11.0832 13.007 11.2715 12.901 11.4534 12.7931C11.4987 12.7662 11.5436 12.7392 11.5881 12.7124C11.7238 12.6308 11.8569 12.5508 11.9946 12.4781L11.9946 12.4782L11.9988 12.4758C12.0304 12.457 12.0658 12.4374 12.1032 12.4167C12.2006 12.3627 12.3113 12.3014 12.4032 12.2297C12.5353 12.1265 12.6499 11.9876 12.6701 11.7846C12.7087 11.5501 12.5987 11.3316 12.4333 11.1947C12.2669 11.057 12.0301 10.9904 11.805 11.0804Z"
        fill="black" stroke="black" stroke-width="0.2" />
    <path
        d="M27.5681 11.2746L27.5681 11.2746L27.5659 11.2733C27.549 11.2635 27.5314 11.2532 27.5133 11.2425C27.4245 11.1902 27.3224 11.13 27.2167 11.0901C27.087 11.0411 26.9398 11.0172 26.7844 11.0722C26.5457 11.1379 26.3928 11.3416 26.3438 11.5579C26.2944 11.7757 26.3459 12.0267 26.5412 12.1868L26.541 12.1869L26.5462 12.1907C26.7255 12.3194 26.9153 12.4301 27.1035 12.5361C27.1419 12.5577 27.1802 12.5791 27.2183 12.6004C27.3683 12.6843 27.5158 12.7667 27.659 12.8564L27.6589 12.8565L27.6616 12.858C27.6805 12.869 27.7001 12.8807 27.7204 12.8928C27.8242 12.9547 27.9456 13.0271 28.0709 13.0717C28.224 13.1262 28.3973 13.145 28.5725 13.0555C28.7972 12.9618 28.923 12.7456 28.9467 12.5284C28.9705 12.3096 28.8929 12.0701 28.6869 11.9326L28.6869 11.9326L28.6862 11.9321C28.5027 11.8117 28.3132 11.7026 28.1252 11.5963C28.0956 11.5795 28.066 11.5628 28.0365 11.5462C27.878 11.4568 27.7214 11.3685 27.5681 11.2746Z"
        fill="black" stroke="black" stroke-width="0.2" />
    <mask id="path-8-outside-1_77_542" maskUnits="userSpaceOnUse" x="-0.23584" y="16.7709"
        width="39" height="25" fill="black">
        <rect fill="white" x="-0.23584" y="16.7709" width="39" height="25" />
        <path
            d="M4.66313 18.4004C4.96983 18.1313 5.29975 17.8415 5.72176 17.7894C6.08532 17.7237 6.45208 17.8399 6.76358 18.0232C7.37778 18.374 8.00559 18.7007 8.61419 19.061C8.95612 19.2652 9.12188 19.6584 9.14671 20.0428C10.0364 20.5777 11.0053 21.0109 12.0407 21.1527C13.7264 21.4185 15.424 20.8628 17.1073 21.1583C17.8056 21.2728 18.4614 21.5611 19.0668 21.9214C20.4641 21.0206 22.1482 20.4344 23.8266 20.6642C24.5081 20.7371 25.1367 21.0406 25.815 21.1263C26.5709 21.2392 27.3533 21.1703 28.0764 20.9205C28.7074 20.7107 29.2671 20.3431 29.8509 20.0324C29.8797 19.6272 30.0735 19.2212 30.4435 19.0242C31.0761 18.6711 31.7087 18.3171 32.3429 17.9664C32.8362 17.6757 33.4945 17.7173 33.9421 18.0761C35.4788 19.2781 36.6471 20.9165 37.3927 22.7126C38.0685 24.359 38.3976 26.176 38.1558 27.9505C38.1014 28.3445 38.0413 28.7681 37.7706 29.0804C37.4351 29.4904 36.893 29.6097 36.4333 29.8259C36.0065 29.9837 35.5909 30.2712 35.116 30.2047C34.8422 30.1751 34.6124 30.0125 34.4082 29.8412C33.1717 30.4137 31.9337 30.9839 30.6981 31.558C30.6949 32.1034 30.5164 32.6567 30.1376 33.0571C29.762 33.4743 29.2143 33.7049 28.6585 33.7418C28.7178 34.2807 28.5993 34.8452 28.271 35.2833C27.8922 35.8206 27.2516 36.1321 26.6013 36.1625C26.651 36.8056 26.4148 37.4758 25.9167 37.8962C25.4706 38.2934 24.8516 38.456 24.2647 38.3807C24.2246 38.8772 24.0268 39.3681 23.6545 39.7068C23.2373 40.1064 22.6319 40.2833 22.0641 40.1961C21.5516 40.1328 21.1008 39.8645 20.6595 39.6155C20.3024 40.2185 19.653 40.6405 18.9475 40.6733C18.105 40.7374 17.2778 40.2289 16.9191 39.4706C16.4002 39.7717 15.7612 39.8822 15.183 39.698C14.5944 39.5266 14.1124 39.0774 13.8617 38.5232C13.5702 38.6666 13.2563 38.7787 12.928 38.7907C12.1729 38.8371 11.4089 38.4351 11.0261 37.7817C10.7162 37.2756 10.6538 36.6446 10.8139 36.0776C10.058 36.056 9.32288 35.6204 8.98495 34.9381C8.63581 34.2823 8.69026 33.4599 9.07864 32.8329C8.79837 32.5278 8.51249 32.2275 8.23462 31.92C8.13292 31.8063 8.02001 31.6998 7.88227 31.6325C6.76118 31.0592 5.64409 30.477 4.52219 29.9044C4.2187 30.1567 3.80309 30.2976 3.41471 30.1695C2.93505 30.0061 2.4818 29.7747 2.01094 29.5889C1.70024 29.4704 1.39114 29.3086 1.19174 29.0332C0.917877 28.6832 0.885045 28.222 0.824186 27.7984C0.594361 25.8469 1.0412 23.8617 1.87881 22.1C2.55387 20.7018 3.48839 19.4206 4.66313 18.4004ZM5.63448 19.0458C4.43251 20.0332 3.47237 21.3056 2.81813 22.7158C2.05739 24.3638 1.68503 26.2328 1.99012 28.0378C2.02376 28.1811 2.02936 28.3717 2.18712 28.4382C2.70042 28.6776 3.22893 28.8826 3.74864 29.1076C3.77266 28.0338 3.89598 26.9592 4.18426 25.9221C4.80087 23.6087 6.20383 21.5475 8.03282 20.0164C7.38819 19.6544 6.74436 19.2901 6.09333 18.9401C5.93477 18.832 5.7586 18.9377 5.63448 19.0458ZM32.9027 18.9417C32.2533 19.2909 31.6118 19.6576 30.9672 20.0164C32.2004 21.067 33.2638 22.3322 33.9917 23.7849C34.8326 25.4257 35.2242 27.2699 35.2514 29.106C35.7719 28.8874 36.2964 28.676 36.8089 28.4406C36.9691 28.3741 36.9755 28.1827 37.0099 28.0386C37.2717 26.4971 37.0323 24.9019 36.4878 23.4469C35.8456 21.7445 34.7701 20.1998 33.3623 19.0434C33.2382 18.9337 33.0604 18.8328 32.9027 18.9417ZM6.9846 22.7206C5.63848 24.4535 4.93379 26.6372 4.88174 28.8218C6.03487 29.4232 7.192 30.0173 8.34913 30.6115C8.91208 30.8509 9.23479 31.4019 9.65841 31.8143C9.97952 31.3578 10.1693 30.7949 10.6233 30.4426C11.2984 29.8812 12.3322 29.8115 13.0689 30.2952C13.5398 30.5803 13.8529 31.0672 13.9986 31.5909C14.5896 31.4267 15.2503 31.5044 15.762 31.8527C16.2136 32.1402 16.5195 32.6143 16.6564 33.1268C17.1833 32.9874 17.7647 33.0187 18.2476 33.2845C18.7857 33.56 19.1661 34.0829 19.3158 34.6627C19.6626 34.5794 20.0261 34.5426 20.3761 34.6258C21.3178 34.814 22.0425 35.7173 22.0241 36.6774C22.0457 37.4222 21.5484 38.0171 21.2145 38.6385C21.6189 38.8628 22.0513 39.1719 22.5406 39.0726C23.001 38.9837 23.2797 38.4159 23.0635 37.9987C22.9282 37.6792 22.4781 37.6047 22.4285 37.2348C22.3476 36.86 22.7336 36.4893 23.1043 36.5958C23.5319 36.7551 23.8843 37.069 24.3111 37.2332C24.7563 37.3925 25.2897 37.1211 25.4322 36.6726C25.5819 36.2642 25.3801 35.7822 24.9974 35.5844C24.7235 35.393 24.3039 35.2937 24.2262 34.9205C24.1237 34.5233 24.5593 34.1237 24.9445 34.2775C25.445 34.4865 25.8614 34.8781 26.3907 35.0198C27.0674 35.168 27.7224 34.4593 27.5182 33.7962C27.3957 33.2573 26.8232 33.0723 26.4075 32.8105C26.1201 32.6175 25.6804 32.5062 25.6236 32.109C25.5435 31.6918 26.0352 31.3178 26.4124 31.5268C26.9825 31.8311 27.531 32.1778 28.098 32.4885C28.3975 32.6583 28.7827 32.6559 29.0798 32.4813C29.4793 32.2619 29.6811 31.7382 29.5138 31.3106C29.4041 31.0151 29.1542 30.8013 28.886 30.6524C27.1715 29.6698 25.4666 28.6712 23.749 27.6951C22.9482 27.2378 22.0377 26.8847 21.0992 26.9856C19.4047 27.1489 18.073 28.4382 16.3882 28.636C15.4457 28.7553 14.4967 28.3485 13.8369 27.6863C13.4437 27.2707 13.2163 26.6733 13.3268 26.1015C13.4069 25.6515 13.708 25.2639 14.0891 25.0221C15.38 24.2117 16.6765 23.4101 17.9681 22.6005C17.1297 22.1857 16.1704 22.1344 15.2535 22.2185C14.0787 22.3074 12.8896 22.4483 11.7196 22.2393C10.6033 22.0616 9.55911 21.5915 8.59257 21.0198C8.00399 21.5331 7.45786 22.0976 6.9846 22.7206ZM28.3775 21.9999C27.1387 22.4131 25.7733 22.3803 24.5377 21.9743C23.5087 21.6211 22.37 21.6716 21.3522 22.0351C20.3745 22.3619 19.5264 22.9609 18.6552 23.4942C17.3547 24.307 16.0526 25.1158 14.7522 25.9269C14.5752 26.0326 14.3998 26.2 14.4182 26.4242C14.4631 26.8671 14.8739 27.1353 15.2302 27.3299C15.7307 27.603 16.3369 27.575 16.863 27.3916C17.8288 27.0617 18.6992 26.5051 19.6642 26.1728C20.4569 25.8893 21.3178 25.7692 22.153 25.9021C23.2421 26.0711 24.1958 26.6525 25.1343 27.1938C26.6093 28.0458 28.0852 28.897 29.5602 29.7483C29.8749 29.9325 30.1336 30.1951 30.3538 30.4826C31.607 29.9004 32.8626 29.3231 34.1167 28.7409C34.0822 27.9441 33.9797 27.1489 33.7827 26.3754C33.2694 24.2813 32.0298 22.4051 30.397 21.0101C29.7388 21.3681 29.0974 21.7749 28.3775 21.9999ZM11.6892 31.1296C11.4273 31.1969 11.2111 31.3851 11.0814 31.6189C10.729 32.2259 10.3783 32.8345 10.0276 33.4431C9.84739 33.7314 9.81936 34.1101 9.97792 34.4144C10.1581 34.7924 10.6033 35.0134 11.0141 34.9333C11.3144 34.8869 11.5691 34.6819 11.7148 34.42C12.068 33.8106 12.4203 33.202 12.7702 32.591C12.9512 32.2956 12.9744 31.908 12.8039 31.6029C12.6013 31.2113 12.1128 31.0023 11.6892 31.1296ZM14.2405 32.7032C14.0018 32.792 13.8281 32.9914 13.708 33.2092C13.1362 34.207 12.5556 35.2 11.9855 36.1986C11.6556 36.7127 11.9478 37.4758 12.5388 37.6312C12.9648 37.7681 13.4581 37.5623 13.6711 37.1723C14.2341 36.209 14.785 35.2392 15.3472 34.2759C15.5273 33.9972 15.6507 33.6537 15.5409 33.3246C15.3992 32.7872 14.749 32.4741 14.2405 32.7032ZM16.8903 34.2431C16.634 34.3408 16.4626 34.5666 16.3361 34.7996C15.8733 35.6148 15.3936 36.4212 14.9348 37.2388C14.5896 37.8234 15.0525 38.6522 15.7307 38.6626C16.1063 38.6914 16.4747 38.4776 16.6548 38.1509C17.1345 37.3237 17.6118 36.4957 18.089 35.6668C18.2916 35.3409 18.294 34.9005 18.0698 34.585C17.8216 34.2094 17.3003 34.0597 16.8903 34.2431ZM19.6081 35.7549C19.3687 35.8326 19.1805 36.0168 19.058 36.2322C18.7241 36.8048 18.3965 37.3821 18.0618 37.9547C17.9329 38.1701 17.8248 38.4143 17.8584 38.6722C17.8904 39.0862 18.2148 39.4569 18.624 39.5362C19.0227 39.6227 19.4592 39.4313 19.6634 39.0782C20.0133 38.4912 20.3448 37.8938 20.6924 37.306C20.8685 37.0306 20.9686 36.6846 20.8501 36.3659C20.6996 35.863 20.099 35.5659 19.6081 35.7549Z" />
    </mask>
    <path
        d="M4.66313 18.4004C4.96983 18.1313 5.29975 17.8415 5.72176 17.7894C6.08532 17.7237 6.45208 17.8399 6.76358 18.0232C7.37778 18.374 8.00559 18.7007 8.61419 19.061C8.95612 19.2652 9.12188 19.6584 9.14671 20.0428C10.0364 20.5777 11.0053 21.0109 12.0407 21.1527C13.7264 21.4185 15.424 20.8628 17.1073 21.1583C17.8056 21.2728 18.4614 21.5611 19.0668 21.9214C20.4641 21.0206 22.1482 20.4344 23.8266 20.6642C24.5081 20.7371 25.1367 21.0406 25.815 21.1263C26.5709 21.2392 27.3533 21.1703 28.0764 20.9205C28.7074 20.7107 29.2671 20.3431 29.8509 20.0324C29.8797 19.6272 30.0735 19.2212 30.4435 19.0242C31.0761 18.6711 31.7087 18.3171 32.3429 17.9664C32.8362 17.6757 33.4945 17.7173 33.9421 18.0761C35.4788 19.2781 36.6471 20.9165 37.3927 22.7126C38.0685 24.359 38.3976 26.176 38.1558 27.9505C38.1014 28.3445 38.0413 28.7681 37.7706 29.0804C37.4351 29.4904 36.893 29.6097 36.4333 29.8259C36.0065 29.9837 35.5909 30.2712 35.116 30.2047C34.8422 30.1751 34.6124 30.0125 34.4082 29.8412C33.1717 30.4137 31.9337 30.9839 30.6981 31.558C30.6949 32.1034 30.5164 32.6567 30.1376 33.0571C29.762 33.4743 29.2143 33.7049 28.6585 33.7418C28.7178 34.2807 28.5993 34.8452 28.271 35.2833C27.8922 35.8206 27.2516 36.1321 26.6013 36.1625C26.651 36.8056 26.4148 37.4758 25.9167 37.8962C25.4706 38.2934 24.8516 38.456 24.2647 38.3807C24.2246 38.8772 24.0268 39.3681 23.6545 39.7068C23.2373 40.1064 22.6319 40.2833 22.0641 40.1961C21.5516 40.1328 21.1008 39.8645 20.6595 39.6155C20.3024 40.2185 19.653 40.6405 18.9475 40.6733C18.105 40.7374 17.2778 40.2289 16.9191 39.4706C16.4002 39.7717 15.7612 39.8822 15.183 39.698C14.5944 39.5266 14.1124 39.0774 13.8617 38.5232C13.5702 38.6666 13.2563 38.7787 12.928 38.7907C12.1729 38.8371 11.4089 38.4351 11.0261 37.7817C10.7162 37.2756 10.6538 36.6446 10.8139 36.0776C10.058 36.056 9.32288 35.6204 8.98495 34.9381C8.63581 34.2823 8.69026 33.4599 9.07864 32.8329C8.79837 32.5278 8.51249 32.2275 8.23462 31.92C8.13292 31.8063 8.02001 31.6998 7.88227 31.6325C6.76118 31.0592 5.64409 30.477 4.52219 29.9044C4.2187 30.1567 3.80309 30.2976 3.41471 30.1695C2.93505 30.0061 2.4818 29.7747 2.01094 29.5889C1.70024 29.4704 1.39114 29.3086 1.19174 29.0332C0.917877 28.6832 0.885045 28.222 0.824186 27.7984C0.594361 25.8469 1.0412 23.8617 1.87881 22.1C2.55387 20.7018 3.48839 19.4206 4.66313 18.4004ZM5.63448 19.0458C4.43251 20.0332 3.47237 21.3056 2.81813 22.7158C2.05739 24.3638 1.68503 26.2328 1.99012 28.0378C2.02376 28.1811 2.02936 28.3717 2.18712 28.4382C2.70042 28.6776 3.22893 28.8826 3.74864 29.1076C3.77266 28.0338 3.89598 26.9592 4.18426 25.9221C4.80087 23.6087 6.20383 21.5475 8.03282 20.0164C7.38819 19.6544 6.74436 19.2901 6.09333 18.9401C5.93477 18.832 5.7586 18.9377 5.63448 19.0458ZM32.9027 18.9417C32.2533 19.2909 31.6118 19.6576 30.9672 20.0164C32.2004 21.067 33.2638 22.3322 33.9917 23.7849C34.8326 25.4257 35.2242 27.2699 35.2514 29.106C35.7719 28.8874 36.2964 28.676 36.8089 28.4406C36.9691 28.3741 36.9755 28.1827 37.0099 28.0386C37.2717 26.4971 37.0323 24.9019 36.4878 23.4469C35.8456 21.7445 34.7701 20.1998 33.3623 19.0434C33.2382 18.9337 33.0604 18.8328 32.9027 18.9417ZM6.9846 22.7206C5.63848 24.4535 4.93379 26.6372 4.88174 28.8218C6.03487 29.4232 7.192 30.0173 8.34913 30.6115C8.91208 30.8509 9.23479 31.4019 9.65841 31.8143C9.97952 31.3578 10.1693 30.7949 10.6233 30.4426C11.2984 29.8812 12.3322 29.8115 13.0689 30.2952C13.5398 30.5803 13.8529 31.0672 13.9986 31.5909C14.5896 31.4267 15.2503 31.5044 15.762 31.8527C16.2136 32.1402 16.5195 32.6143 16.6564 33.1268C17.1833 32.9874 17.7647 33.0187 18.2476 33.2845C18.7857 33.56 19.1661 34.0829 19.3158 34.6627C19.6626 34.5794 20.0261 34.5426 20.3761 34.6258C21.3178 34.814 22.0425 35.7173 22.0241 36.6774C22.0457 37.4222 21.5484 38.0171 21.2145 38.6385C21.6189 38.8628 22.0513 39.1719 22.5406 39.0726C23.001 38.9837 23.2797 38.4159 23.0635 37.9987C22.9282 37.6792 22.4781 37.6047 22.4285 37.2348C22.3476 36.86 22.7336 36.4893 23.1043 36.5958C23.5319 36.7551 23.8843 37.069 24.3111 37.2332C24.7563 37.3925 25.2897 37.1211 25.4322 36.6726C25.5819 36.2642 25.3801 35.7822 24.9974 35.5844C24.7235 35.393 24.3039 35.2937 24.2262 34.9205C24.1237 34.5233 24.5593 34.1237 24.9445 34.2775C25.445 34.4865 25.8614 34.8781 26.3907 35.0198C27.0674 35.168 27.7224 34.4593 27.5182 33.7962C27.3957 33.2573 26.8232 33.0723 26.4075 32.8105C26.1201 32.6175 25.6804 32.5062 25.6236 32.109C25.5435 31.6918 26.0352 31.3178 26.4124 31.5268C26.9825 31.8311 27.531 32.1778 28.098 32.4885C28.3975 32.6583 28.7827 32.6559 29.0798 32.4813C29.4793 32.2619 29.6811 31.7382 29.5138 31.3106C29.4041 31.0151 29.1542 30.8013 28.886 30.6524C27.1715 29.6698 25.4666 28.6712 23.749 27.6951C22.9482 27.2378 22.0377 26.8847 21.0992 26.9856C19.4047 27.1489 18.073 28.4382 16.3882 28.636C15.4457 28.7553 14.4967 28.3485 13.8369 27.6863C13.4437 27.2707 13.2163 26.6733 13.3268 26.1015C13.4069 25.6515 13.708 25.2639 14.0891 25.0221C15.38 24.2117 16.6765 23.4101 17.9681 22.6005C17.1297 22.1857 16.1704 22.1344 15.2535 22.2185C14.0787 22.3074 12.8896 22.4483 11.7196 22.2393C10.6033 22.0616 9.55911 21.5915 8.59257 21.0198C8.00399 21.5331 7.45786 22.0976 6.9846 22.7206ZM28.3775 21.9999C27.1387 22.4131 25.7733 22.3803 24.5377 21.9743C23.5087 21.6211 22.37 21.6716 21.3522 22.0351C20.3745 22.3619 19.5264 22.9609 18.6552 23.4942C17.3547 24.307 16.0526 25.1158 14.7522 25.9269C14.5752 26.0326 14.3998 26.2 14.4182 26.4242C14.4631 26.8671 14.8739 27.1353 15.2302 27.3299C15.7307 27.603 16.3369 27.575 16.863 27.3916C17.8288 27.0617 18.6992 26.5051 19.6642 26.1728C20.4569 25.8893 21.3178 25.7692 22.153 25.9021C23.2421 26.0711 24.1958 26.6525 25.1343 27.1938C26.6093 28.0458 28.0852 28.897 29.5602 29.7483C29.8749 29.9325 30.1336 30.1951 30.3538 30.4826C31.607 29.9004 32.8626 29.3231 34.1167 28.7409C34.0822 27.9441 33.9797 27.1489 33.7827 26.3754C33.2694 24.2813 32.0298 22.4051 30.397 21.0101C29.7388 21.3681 29.0974 21.7749 28.3775 21.9999ZM11.6892 31.1296C11.4273 31.1969 11.2111 31.3851 11.0814 31.6189C10.729 32.2259 10.3783 32.8345 10.0276 33.4431C9.84739 33.7314 9.81936 34.1101 9.97792 34.4144C10.1581 34.7924 10.6033 35.0134 11.0141 34.9333C11.3144 34.8869 11.5691 34.6819 11.7148 34.42C12.068 33.8106 12.4203 33.202 12.7702 32.591C12.9512 32.2956 12.9744 31.908 12.8039 31.6029C12.6013 31.2113 12.1128 31.0023 11.6892 31.1296ZM14.2405 32.7032C14.0018 32.792 13.8281 32.9914 13.708 33.2092C13.1362 34.207 12.5556 35.2 11.9855 36.1986C11.6556 36.7127 11.9478 37.4758 12.5388 37.6312C12.9648 37.7681 13.4581 37.5623 13.6711 37.1723C14.2341 36.209 14.785 35.2392 15.3472 34.2759C15.5273 33.9972 15.6507 33.6537 15.5409 33.3246C15.3992 32.7872 14.749 32.4741 14.2405 32.7032ZM16.8903 34.2431C16.634 34.3408 16.4626 34.5666 16.3361 34.7996C15.8733 35.6148 15.3936 36.4212 14.9348 37.2388C14.5896 37.8234 15.0525 38.6522 15.7307 38.6626C16.1063 38.6914 16.4747 38.4776 16.6548 38.1509C17.1345 37.3237 17.6118 36.4957 18.089 35.6668C18.2916 35.3409 18.294 34.9005 18.0698 34.585C17.8216 34.2094 17.3003 34.0597 16.8903 34.2431ZM19.6081 35.7549C19.3687 35.8326 19.1805 36.0168 19.058 36.2322C18.7241 36.8048 18.3965 37.3821 18.0618 37.9547C17.9329 38.1701 17.8248 38.4143 17.8584 38.6722C17.8904 39.0862 18.2148 39.4569 18.624 39.5362C19.0227 39.6227 19.4592 39.4313 19.6634 39.0782C20.0133 38.4912 20.3448 37.8938 20.6924 37.306C20.8685 37.0306 20.9686 36.6846 20.8501 36.3659C20.6996 35.863 20.099 35.5659 19.6081 35.7549Z"
        fill="black" />
    <path
        d="M4.66313 18.4004C4.96983 18.1313 5.29975 17.8415 5.72176 17.7894C6.08532 17.7237 6.45208 17.8399 6.76358 18.0232C7.37778 18.374 8.00559 18.7007 8.61419 19.061C8.95612 19.2652 9.12188 19.6584 9.14671 20.0428C10.0364 20.5777 11.0053 21.0109 12.0407 21.1527C13.7264 21.4185 15.424 20.8628 17.1073 21.1583C17.8056 21.2728 18.4614 21.5611 19.0668 21.9214C20.4641 21.0206 22.1482 20.4344 23.8266 20.6642C24.5081 20.7371 25.1367 21.0406 25.815 21.1263C26.5709 21.2392 27.3533 21.1703 28.0764 20.9205C28.7074 20.7107 29.2671 20.3431 29.8509 20.0324C29.8797 19.6272 30.0735 19.2212 30.4435 19.0242C31.0761 18.6711 31.7087 18.3171 32.3429 17.9664C32.8362 17.6757 33.4945 17.7173 33.9421 18.0761C35.4788 19.2781 36.6471 20.9165 37.3927 22.7126C38.0685 24.359 38.3976 26.176 38.1558 27.9505C38.1014 28.3445 38.0413 28.7681 37.7706 29.0804C37.4351 29.4904 36.893 29.6097 36.4333 29.8259C36.0065 29.9837 35.5909 30.2712 35.116 30.2047C34.8422 30.1751 34.6124 30.0125 34.4082 29.8412C33.1717 30.4137 31.9337 30.9839 30.6981 31.558C30.6949 32.1034 30.5164 32.6567 30.1376 33.0571C29.762 33.4743 29.2143 33.7049 28.6585 33.7418C28.7178 34.2807 28.5993 34.8452 28.271 35.2833C27.8922 35.8206 27.2516 36.1321 26.6013 36.1625C26.651 36.8056 26.4148 37.4758 25.9167 37.8962C25.4706 38.2934 24.8516 38.456 24.2647 38.3807C24.2246 38.8772 24.0268 39.3681 23.6545 39.7068C23.2373 40.1064 22.6319 40.2833 22.0641 40.1961C21.5516 40.1328 21.1008 39.8645 20.6595 39.6155C20.3024 40.2185 19.653 40.6405 18.9475 40.6733C18.105 40.7374 17.2778 40.2289 16.9191 39.4706C16.4002 39.7717 15.7612 39.8822 15.183 39.698C14.5944 39.5266 14.1124 39.0774 13.8617 38.5232C13.5702 38.6666 13.2563 38.7787 12.928 38.7907C12.1729 38.8371 11.4089 38.4351 11.0261 37.7817C10.7162 37.2756 10.6538 36.6446 10.8139 36.0776C10.058 36.056 9.32288 35.6204 8.98495 34.9381C8.63581 34.2823 8.69026 33.4599 9.07864 32.8329C8.79837 32.5278 8.51249 32.2275 8.23462 31.92C8.13292 31.8063 8.02001 31.6998 7.88227 31.6325C6.76118 31.0592 5.64409 30.477 4.52219 29.9044C4.2187 30.1567 3.80309 30.2976 3.41471 30.1695C2.93505 30.0061 2.4818 29.7747 2.01094 29.5889C1.70024 29.4704 1.39114 29.3086 1.19174 29.0332C0.917877 28.6832 0.885045 28.222 0.824186 27.7984C0.594361 25.8469 1.0412 23.8617 1.87881 22.1C2.55387 20.7018 3.48839 19.4206 4.66313 18.4004ZM5.63448 19.0458C4.43251 20.0332 3.47237 21.3056 2.81813 22.7158C2.05739 24.3638 1.68503 26.2328 1.99012 28.0378C2.02376 28.1811 2.02936 28.3717 2.18712 28.4382C2.70042 28.6776 3.22893 28.8826 3.74864 29.1076C3.77266 28.0338 3.89598 26.9592 4.18426 25.9221C4.80087 23.6087 6.20383 21.5475 8.03282 20.0164C7.38819 19.6544 6.74436 19.2901 6.09333 18.9401C5.93477 18.832 5.7586 18.9377 5.63448 19.0458ZM32.9027 18.9417C32.2533 19.2909 31.6118 19.6576 30.9672 20.0164C32.2004 21.067 33.2638 22.3322 33.9917 23.7849C34.8326 25.4257 35.2242 27.2699 35.2514 29.106C35.7719 28.8874 36.2964 28.676 36.8089 28.4406C36.9691 28.3741 36.9755 28.1827 37.0099 28.0386C37.2717 26.4971 37.0323 24.9019 36.4878 23.4469C35.8456 21.7445 34.7701 20.1998 33.3623 19.0434C33.2382 18.9337 33.0604 18.8328 32.9027 18.9417ZM6.9846 22.7206C5.63848 24.4535 4.93379 26.6372 4.88174 28.8218C6.03487 29.4232 7.192 30.0173 8.34913 30.6115C8.91208 30.8509 9.23479 31.4019 9.65841 31.8143C9.97952 31.3578 10.1693 30.7949 10.6233 30.4426C11.2984 29.8812 12.3322 29.8115 13.0689 30.2952C13.5398 30.5803 13.8529 31.0672 13.9986 31.5909C14.5896 31.4267 15.2503 31.5044 15.762 31.8527C16.2136 32.1402 16.5195 32.6143 16.6564 33.1268C17.1833 32.9874 17.7647 33.0187 18.2476 33.2845C18.7857 33.56 19.1661 34.0829 19.3158 34.6627C19.6626 34.5794 20.0261 34.5426 20.3761 34.6258C21.3178 34.814 22.0425 35.7173 22.0241 36.6774C22.0457 37.4222 21.5484 38.0171 21.2145 38.6385C21.6189 38.8628 22.0513 39.1719 22.5406 39.0726C23.001 38.9837 23.2797 38.4159 23.0635 37.9987C22.9282 37.6792 22.4781 37.6047 22.4285 37.2348C22.3476 36.86 22.7336 36.4893 23.1043 36.5958C23.5319 36.7551 23.8843 37.069 24.3111 37.2332C24.7563 37.3925 25.2897 37.1211 25.4322 36.6726C25.5819 36.2642 25.3801 35.7822 24.9974 35.5844C24.7235 35.393 24.3039 35.2937 24.2262 34.9205C24.1237 34.5233 24.5593 34.1237 24.9445 34.2775C25.445 34.4865 25.8614 34.8781 26.3907 35.0198C27.0674 35.168 27.7224 34.4593 27.5182 33.7962C27.3957 33.2573 26.8232 33.0723 26.4075 32.8105C26.1201 32.6175 25.6804 32.5062 25.6236 32.109C25.5435 31.6918 26.0352 31.3178 26.4124 31.5268C26.9825 31.8311 27.531 32.1778 28.098 32.4885C28.3975 32.6583 28.7827 32.6559 29.0798 32.4813C29.4793 32.2619 29.6811 31.7382 29.5138 31.3106C29.4041 31.0151 29.1542 30.8013 28.886 30.6524C27.1715 29.6698 25.4666 28.6712 23.749 27.6951C22.9482 27.2378 22.0377 26.8847 21.0992 26.9856C19.4047 27.1489 18.073 28.4382 16.3882 28.636C15.4457 28.7553 14.4967 28.3485 13.8369 27.6863C13.4437 27.2707 13.2163 26.6733 13.3268 26.1015C13.4069 25.6515 13.708 25.2639 14.0891 25.0221C15.38 24.2117 16.6765 23.4101 17.9681 22.6005C17.1297 22.1857 16.1704 22.1344 15.2535 22.2185C14.0787 22.3074 12.8896 22.4483 11.7196 22.2393C10.6033 22.0616 9.55911 21.5915 8.59257 21.0198C8.00399 21.5331 7.45786 22.0976 6.9846 22.7206ZM28.3775 21.9999C27.1387 22.4131 25.7733 22.3803 24.5377 21.9743C23.5087 21.6211 22.37 21.6716 21.3522 22.0351C20.3745 22.3619 19.5264 22.9609 18.6552 23.4942C17.3547 24.307 16.0526 25.1158 14.7522 25.9269C14.5752 26.0326 14.3998 26.2 14.4182 26.4242C14.4631 26.8671 14.8739 27.1353 15.2302 27.3299C15.7307 27.603 16.3369 27.575 16.863 27.3916C17.8288 27.0617 18.6992 26.5051 19.6642 26.1728C20.4569 25.8893 21.3178 25.7692 22.153 25.9021C23.2421 26.0711 24.1958 26.6525 25.1343 27.1938C26.6093 28.0458 28.0852 28.897 29.5602 29.7483C29.8749 29.9325 30.1336 30.1951 30.3538 30.4826C31.607 29.9004 32.8626 29.3231 34.1167 28.7409C34.0822 27.9441 33.9797 27.1489 33.7827 26.3754C33.2694 24.2813 32.0298 22.4051 30.397 21.0101C29.7388 21.3681 29.0974 21.7749 28.3775 21.9999ZM11.6892 31.1296C11.4273 31.1969 11.2111 31.3851 11.0814 31.6189C10.729 32.2259 10.3783 32.8345 10.0276 33.4431C9.84739 33.7314 9.81936 34.1101 9.97792 34.4144C10.1581 34.7924 10.6033 35.0134 11.0141 34.9333C11.3144 34.8869 11.5691 34.6819 11.7148 34.42C12.068 33.8106 12.4203 33.202 12.7702 32.591C12.9512 32.2956 12.9744 31.908 12.8039 31.6029C12.6013 31.2113 12.1128 31.0023 11.6892 31.1296ZM14.2405 32.7032C14.0018 32.792 13.8281 32.9914 13.708 33.2092C13.1362 34.207 12.5556 35.2 11.9855 36.1986C11.6556 36.7127 11.9478 37.4758 12.5388 37.6312C12.9648 37.7681 13.4581 37.5623 13.6711 37.1723C14.2341 36.209 14.785 35.2392 15.3472 34.2759C15.5273 33.9972 15.6507 33.6537 15.5409 33.3246C15.3992 32.7872 14.749 32.4741 14.2405 32.7032ZM16.8903 34.2431C16.634 34.3408 16.4626 34.5666 16.3361 34.7996C15.8733 35.6148 15.3936 36.4212 14.9348 37.2388C14.5896 37.8234 15.0525 38.6522 15.7307 38.6626C16.1063 38.6914 16.4747 38.4776 16.6548 38.1509C17.1345 37.3237 17.6118 36.4957 18.089 35.6668C18.2916 35.3409 18.294 34.9005 18.0698 34.585C17.8216 34.2094 17.3003 34.0597 16.8903 34.2431ZM19.6081 35.7549C19.3687 35.8326 19.1805 36.0168 19.058 36.2322C18.7241 36.8048 18.3965 37.3821 18.0618 37.9547C17.9329 38.1701 17.8248 38.4143 17.8584 38.6722C17.8904 39.0862 18.2148 39.4569 18.624 39.5362C19.0227 39.6227 19.4592 39.4313 19.6634 39.0782C20.0133 38.4912 20.3448 37.8938 20.6924 37.306C20.8685 37.0306 20.9686 36.6846 20.8501 36.3659C20.6996 35.863 20.099 35.5659 19.6081 35.7549Z"
        stroke="black" stroke-width="0.4" mask="url(#path-8-outside-1_77_542)" />
</svg>
    