<svg width="38" height="42" viewBox="0 0 38 42" fill="none" xmlns="http://www.w3.org/2000/svg">
    <path
        d="M16.2913 0.834815C16.8877 0.641456 17.5237 0.664659 18.1433 0.651768C18.9734 0.650909 19.8044 0.640597 20.6346 0.668097C21.084 0.692159 21.5515 0.733409 21.958 0.943956C22.2717 1.10552 22.5046 1.38567 22.6747 1.68903C23.0555 2.36708 23.2385 3.13107 23.5427 3.84177C23.7412 3.97497 23.9801 4.03083 24.1984 4.1245C24.6848 4.30583 25.1497 4.54044 25.6362 4.72177C26.5187 4.41927 27.3197 3.82286 28.2727 3.73091C28.9396 3.66989 29.5016 4.10818 29.9657 4.53013C30.7469 5.27005 31.5065 6.03403 32.2499 6.81177C32.7071 7.30677 33.1883 7.91778 33.0835 8.63708C32.9512 9.5506 32.4252 10.3369 32.0875 11.1808C32.4055 11.8743 32.6762 12.5876 32.9701 13.2906C33.5768 13.5183 34.1981 13.71 34.7911 13.9738C35.2019 14.1629 35.6195 14.4078 35.8507 14.8126C36.099 15.2526 36.1351 15.7725 36.1592 16.2675C36.1824 17.2136 36.1781 18.1607 36.1661 19.1077C36.1523 19.6319 36.1403 20.1742 35.9383 20.6658C35.7888 21.0318 35.4855 21.3094 35.146 21.4985C34.4559 21.8869 33.679 22.0768 32.9529 22.3845C32.6839 23.0986 32.3745 23.7973 32.0858 24.5046C32.2662 24.9429 32.6495 25.4078 32.4123 25.9011C32.1734 26.5035 31.2427 26.5791 30.917 26.0171C30.6412 25.4783 30.3008 24.899 30.3894 24.2691C30.4856 23.7294 30.7683 23.2499 30.9617 22.7429C31.1783 22.2496 31.3149 21.7099 31.6466 21.2768C31.9844 20.854 32.5292 20.701 33.0165 20.524C33.4865 20.3813 33.9489 20.2077 34.3786 19.9662C34.5135 19.2572 34.4405 18.5354 34.4542 17.8186C34.4405 17.1088 34.5135 16.3929 34.3777 15.69C33.6378 15.2371 32.744 15.1417 32.0015 14.6965C31.4421 14.3502 31.2762 13.6704 31.0373 13.1007C30.8311 12.5378 30.5183 12.0118 30.3945 11.4215C30.2871 10.8414 30.5887 10.3034 30.8276 9.7981C31.0554 9.37271 31.253 8.93013 31.3845 8.46521C31.0837 8.02177 30.6996 7.6488 30.312 7.28271C29.6589 6.67083 29.0977 5.95497 28.3587 5.43935C27.5053 5.6413 26.8023 6.22224 25.949 6.42247C25.313 6.55224 24.7312 6.19474 24.1632 5.96786C23.6295 5.72294 23.0503 5.57341 22.5519 5.25544C22.0534 4.93403 21.879 4.33247 21.6899 3.80482C21.5472 3.33474 21.3762 2.87239 21.133 2.44528C20.2865 2.29919 19.4254 2.39286 18.5721 2.3688C17.9989 2.36107 17.4231 2.33786 16.8576 2.44872C16.4082 3.18349 16.3102 4.06778 15.8754 4.80771C15.5497 5.35341 14.9017 5.53216 14.35 5.7556C13.7622 5.96786 13.2147 6.29528 12.6003 6.42849C12.0194 6.54364 11.4797 6.23857 10.9718 6.00224C10.5438 5.7745 10.0995 5.57341 9.63201 5.44193C8.90842 5.94294 8.36357 6.64419 7.72506 7.2406C7.32545 7.62388 6.91725 8.00544 6.60615 8.46864C6.80553 9.25583 7.29795 9.92185 7.54459 10.6901C7.67865 11.0794 7.61592 11.5031 7.46553 11.8769C7.25756 12.4037 7.01436 12.9168 6.81756 13.4479C6.63021 13.93 6.41881 14.4611 5.94271 14.7275C5.20709 15.1434 4.34084 15.2526 3.61381 15.69C3.47029 16.4497 3.55709 17.2231 3.53732 17.9897C3.5442 18.6479 3.48662 19.3122 3.61295 19.9645C4.00912 20.1828 4.42764 20.359 4.86248 20.4844C4.80232 20.7061 4.67771 20.9141 4.67943 21.1487C4.84873 20.982 4.77139 20.701 4.88568 20.499C5.31967 20.6383 5.76998 20.7809 6.13521 21.0636C6.55201 21.4117 6.7067 21.954 6.9035 22.4386C7.00318 22.7085 7.13725 22.9654 7.2249 23.2396C7.34693 23.6254 7.13725 24.0732 6.77287 24.2399C6.41623 24.4186 5.94271 24.3035 5.71412 23.9769C5.40389 23.4768 5.28873 22.8786 5.00428 22.3699C4.29357 22.0691 3.53131 21.8843 2.85584 21.5028C2.55506 21.3343 2.27662 21.1049 2.11506 20.7947C1.88818 20.3572 1.85467 19.8528 1.83318 19.3698C1.81084 18.5362 1.81857 17.7026 1.82115 16.8699C1.83576 16.2494 1.81514 15.6066 2.04115 15.0179C2.20615 14.5883 2.57912 14.2823 2.98131 14.0821C3.63529 13.7512 4.34428 13.5518 5.02576 13.2854C5.28271 12.6822 5.50357 12.0634 5.78287 11.4696C5.83014 11.3295 5.95303 11.1757 5.84732 11.0296C5.5474 10.3524 5.17529 9.70099 4.97506 8.98341C4.8599 8.57692 4.86248 8.12489 5.05842 7.74247C5.35404 7.15466 5.8499 6.70692 6.29678 6.23685C6.91639 5.62153 7.52053 4.98903 8.16936 4.4038C8.61881 4.00849 9.18256 3.64153 9.81076 3.7395C10.7122 3.87958 11.4986 4.3806 12.3236 4.73724C13.03 4.44591 13.7304 4.14083 14.4454 3.87013C14.753 3.12247 14.9472 2.32411 15.3597 1.62286C15.5677 1.26364 15.8908 0.962862 16.2913 0.834815Z"
        fill="#1A1A1A" />
    <path
        d="M18.2429 9.58758C20.1662 9.40883 22.1471 9.92703 23.7275 11.0399C25.3096 12.1382 26.4886 13.8054 26.9836 15.6677C27.4907 17.5213 27.3231 19.5512 26.511 21.2931C25.57 23.3591 23.7378 25.0013 21.573 25.6914C21.1081 25.8435 20.5718 25.5084 20.4928 25.0297C20.4008 24.5991 20.6939 24.1531 21.1124 24.0363C22.545 23.5481 23.7971 22.553 24.5825 21.2588C25.3534 20.0101 25.6843 18.4967 25.5021 17.0409C25.3302 15.5748 24.6384 14.1784 23.5814 13.1497C22.563 12.1451 21.2052 11.4945 19.7847 11.3278C18.3529 11.1491 16.8654 11.4653 15.6313 12.2121C14.2228 13.0448 13.1589 14.4319 12.706 16.0028C12.2806 17.4457 12.3794 19.0338 12.9767 20.414C13.427 21.4788 14.1747 22.4077 15.0968 23.1013C15.4414 23.3445 15.5625 23.8472 15.3477 24.2141C15.1268 24.6455 14.5124 24.7968 14.1197 24.5089C12.6157 23.4313 11.5166 21.8165 11.0259 20.0359C10.5816 18.4486 10.6289 16.7281 11.1625 15.1675C11.7598 13.3886 12.9922 11.834 14.5794 10.8363C15.6803 10.141 16.9461 9.70617 18.2429 9.58758Z"
        fill="#1A1A1A" />
    <path
        d="M21.4492 15.0316C21.7792 14.6973 22.3781 14.7282 22.6789 15.0866C22.9857 15.4183 22.9539 15.9821 22.6188 16.2837C21.3615 17.5478 20.0965 18.8034 18.8401 20.0675C18.6708 20.2385 18.486 20.4216 18.2385 20.4646C17.9352 20.535 17.6172 20.4096 17.4101 20.1853C16.7243 19.496 16.0334 18.812 15.3493 18.1219C15.0288 17.8237 14.9978 17.2806 15.2883 16.9523C15.5788 16.5896 16.1709 16.5441 16.5095 16.8638C17.0371 17.3691 17.5442 17.8967 18.0641 18.4098C19.195 17.2857 20.3156 16.1514 21.4492 15.0316Z"
        fill="#1A1A1A" />
    <path
        d="M8.12287 25.9293C8.60241 25.6956 9.08881 25.4326 9.63022 25.3862C10.188 25.3346 10.7294 25.5151 11.2587 25.6646C14.8939 26.8024 18.5256 27.9523 22.1599 29.0935C22.5578 29.2113 22.9548 29.3539 23.296 29.5954C23.9861 30.0655 24.4527 30.826 24.5988 31.645C26.9827 30.4015 29.3675 29.1597 31.7523 27.917C32.2129 27.6781 32.6683 27.4126 33.1754 27.2837C34.2298 27.0035 35.4003 27.2235 36.2837 27.8638C37.315 28.5951 37.92 29.879 37.8306 31.1406C37.773 32.1503 37.2772 33.1214 36.502 33.7694C36.099 34.1106 35.6143 34.3306 35.1511 34.5755C31.4068 36.5306 27.6616 38.4822 23.9156 40.4338C23.3218 40.7329 22.7383 41.0741 22.0894 41.2425C21.3848 41.4221 20.6526 41.3319 19.9393 41.2692C16.4468 40.9254 12.9526 40.5868 9.4592 40.2508C9.33803 40.225 9.22803 40.2903 9.12061 40.3333C8.35748 40.6796 7.60209 41.0672 6.78139 41.2571C6.29069 41.3731 5.73553 41.3491 5.31873 41.0388C4.71373 40.5946 4.36053 39.9079 4.00303 39.2668C2.95975 37.2679 1.91131 35.2707 0.878344 33.2658C0.548344 32.6041 0.178813 31.9097 0.212328 31.1483C0.240688 30.5803 0.586156 30.0818 1.02702 29.7458C1.55467 29.3299 2.16397 29.036 2.75608 28.7257C4.54444 27.7916 6.3328 26.8592 8.12287 25.9293ZM9.58639 27.1436C9.28217 27.2519 8.99858 27.4092 8.71241 27.5561C6.77881 28.5719 4.83663 29.5731 2.90303 30.5888C2.59452 30.765 2.27225 30.9266 2.00327 31.162C1.86233 31.2609 1.95428 31.4388 1.99123 31.5677C2.2035 32.1331 2.49998 32.6625 2.77584 33.1988C3.66788 34.9089 4.55991 36.6199 5.4528 38.331C5.67194 38.7374 5.87475 39.1594 6.16436 39.5221C6.24686 39.6656 6.41358 39.5968 6.53733 39.565C7.16295 39.3631 7.75163 39.0674 8.34975 38.7993C8.65053 38.6721 8.94616 38.4659 9.28905 38.5071C12.9569 38.856 16.623 39.2196 20.2908 39.5736C20.8313 39.62 21.3959 39.6707 21.9167 39.4782C22.4624 39.2754 22.9694 38.9832 23.4851 38.7168C27.3462 36.7024 31.21 34.6924 35.0686 32.6728C35.8781 32.2543 36.3018 31.2445 36.0491 30.3723C35.8601 29.6375 35.2181 29.0488 34.4722 28.9199C34.021 28.8323 33.5475 28.9156 33.1436 29.1288C30.299 30.6112 27.4554 32.0936 24.6126 33.5778C24.3951 33.6955 24.1416 33.7806 24.0058 34.0023C23.3269 34.9476 22.0851 35.3885 20.9525 35.2054C18.3812 34.3942 15.8091 33.5872 13.237 32.7777C12.7927 32.6737 12.479 32.1985 12.5925 31.7499C12.6853 31.2695 13.2344 30.9584 13.6959 31.1234C16.14 31.8874 18.5806 32.6617 21.0255 33.4256C21.3762 33.5528 21.7783 33.5597 22.1178 33.3921C22.618 33.1713 22.948 32.6307 22.9187 32.085C22.8938 31.5281 22.5062 30.9996 21.9683 30.8363C18.1604 29.6306 14.3456 28.4464 10.5412 27.2304C10.2301 27.1711 9.90092 27.0482 9.58639 27.1436Z"
        fill="#1A1A1A" />
</svg>
    