<svg width="140" height="73" viewBox="0 0 140 73" fill="none" xmlns="http://www.w3.org/2000/svg">
    <path
        d="M30.1976 17.071C28.837 15.4398 27.1798 14.1865 25.2195 13.2979C23.2592 12.416 21.2086 11.9717 19.0742 11.9717C16.9398 11.9717 15.0827 12.3828 13.2127 13.2117C11.3426 14.0406 9.737 15.2143 8.40219 16.7395C5.99051 19.5975 4.78467 23.3574 4.78467 28.0257C4.78467 30.3002 5.13288 32.5216 5.82285 34.6834C6.51283 36.8451 7.53167 38.682 8.87937 40.1806C11.4458 42.9325 15.0182 44.3118 19.6094 44.3118C22.7498 44.3118 25.3807 43.7548 27.4893 42.6474V34.385C27.4893 32.3161 27.4377 30.7776 27.341 29.7697C28.5726 29.8758 29.3722 29.9222 29.7333 29.9222C30.8166 29.9222 31.5389 29.8161 31.9 29.6105V31.1225L31.7323 36.2019V43.9736C27.3474 45.5121 22.8723 46.2813 18.3068 46.2813C14.7603 46.2813 11.5167 45.5386 8.5763 44.0532C5.82285 42.7999 3.55304 40.5785 1.77329 37.3823C0.593248 35.0945 0 32.0773 0 28.3307C0 24.5841 0.831837 21.2221 2.49551 18.4835C4.15918 15.7448 6.44834 13.6825 9.35655 12.2966C12.2648 10.9107 15.5792 10.2211 19.2999 10.2211C21.5762 10.2211 23.6461 10.4067 25.5225 10.7847C27.3926 11.1627 29.3142 11.7926 31.2745 12.6878C31.3518 12.7674 31.4615 12.8404 31.6162 12.9199C31.7645 12.9995 31.8613 13.0526 31.9 13.0923C31.6872 13.6892 31.4679 14.3987 31.2422 15.2342C31.0165 16.0697 30.8489 16.6798 30.7328 17.0644H30.204L30.1976 17.071ZM48.2594 10.7118H50.426C52.2767 10.7118 53.6631 10.7648 54.5917 10.8643C56.8035 11.2887 58.3511 11.8987 59.228 12.6878C60.7241 13.9942 61.4721 15.7183 61.4721 17.8668C61.4721 20.1413 60.7434 22.0577 59.2861 23.6027C57.8287 25.1544 55.9523 26.2287 53.6696 26.8188C53.9211 26.8188 54.1274 26.852 54.2886 26.9183C54.9786 27.0841 55.5718 27.2233 56.0619 27.3228C56.552 27.4289 57.0356 27.5549 57.5063 27.7074C57.9771 27.8599 58.3704 28.0456 58.6864 28.2512C59.9567 29.0005 60.8853 29.8493 61.4785 30.7909C62.2974 32.0309 62.7037 33.3837 62.7037 34.8425C62.7037 38.3968 61.2141 41.2615 58.235 43.4299C56.9905 44.2986 55.5396 44.8423 53.8824 45.0678C52.2251 45.2932 50.2004 45.406 47.8145 45.406H40.7084C40.7342 44.6832 40.7858 43.6222 40.8567 42.2296C40.9341 40.8305 40.9792 39.7496 41.005 38.9737L41.0824 21.6598L41.005 15.6321L40.7793 10.7051C41.5983 10.7582 42.8299 10.7847 44.4742 10.7847L48.2659 10.7051L48.2594 10.7118ZM45.0933 21.746L45.0159 26.1292H47.3373C49.9295 26.1292 51.935 25.7777 53.3729 25.0815C55.8878 23.8282 57.1452 21.7659 57.1452 18.8946C57.1452 17.7673 56.9002 16.6997 56.4101 15.6785C55.92 14.6573 55.2172 13.9279 54.3015 13.4902C53.0699 12.8603 51.2127 12.542 48.743 12.542C48.3561 12.542 47.7693 12.5685 46.9891 12.6215C46.2088 12.6746 45.6091 12.7011 45.1771 12.7011C45.1255 13.6029 45.0997 14.9292 45.0997 16.6732V21.7526L45.0933 21.746ZM45.1706 43.2641C45.6607 43.2906 46.3894 43.3503 47.3502 43.4498C48.311 43.5492 49.1299 43.5957 49.8135 43.5957C52.2638 43.5957 54.2435 42.853 55.7524 41.3676C57.3 39.7761 58.0738 37.873 58.0738 35.6449C58.0738 34.1993 57.8416 32.9792 57.3838 31.9978C56.926 31.0164 56.1328 30.141 54.9979 29.3785C53.7018 28.4766 51.3353 28.0191 47.8918 28.0191H45.0288L45.1771 43.2575L45.1706 43.2641ZM105.643 16.4344C105.566 16.3416 105.488 16.2488 105.405 16.1427C105.321 16.0366 105.218 15.9504 105.095 15.8708C102.542 13.3377 99.5818 12.0711 96.2157 12.0711C93.3011 12.0711 90.8056 12.8006 88.7421 14.2594C86.6722 15.7183 85.1246 17.6877 84.0929 20.1545C83.0611 22.6213 82.5453 25.3268 82.5453 28.2578C82.5453 29.8758 82.829 31.9911 83.3964 34.6171C83.9381 36.4804 84.757 38.0918 85.8661 39.4644C87.0333 41.0161 88.51 42.2097 90.2962 43.0519C92.0824 43.8941 93.9524 44.3118 95.9127 44.3118C99.2658 44.3118 102.561 43.0917 105.792 40.6448C106.043 40.3862 106.301 40.2602 106.565 40.2602L106.114 43.3437C103.361 45.2534 99.7301 46.215 95.2162 46.215C91.6439 46.215 88.5422 45.4789 85.892 44.0068C83.2481 42.5347 81.2298 40.4326 79.8369 37.6939C78.4506 34.9619 77.7541 31.7391 77.7541 28.0323C77.7541 25.5788 78.2635 23.1054 79.2888 20.6253C80.3141 18.1453 81.707 16.1427 83.4674 14.6175C86.8721 11.6468 91.2054 10.1614 96.4543 10.1614C100.123 10.1614 103.651 10.9306 107.03 12.469C106.656 13.4902 106.314 14.7899 106.011 16.3681L105.637 16.4477L105.643 16.4344ZM138.614 16.4344C138.536 16.3416 138.459 16.2488 138.375 16.1427C138.291 16.0366 138.188 15.9504 138.065 15.8708C135.512 13.3377 132.552 12.0711 129.186 12.0711C126.271 12.0711 123.776 12.8006 121.712 14.2594C119.643 15.7183 118.095 17.6877 117.063 20.1545C116.032 22.6213 115.516 25.3268 115.516 28.2578C115.516 29.8758 115.799 31.9911 116.367 34.6171C116.908 36.4804 117.727 38.0918 118.837 39.4644C120.004 41.0161 121.48 42.2097 123.267 43.0519C125.053 43.8941 126.923 44.3118 128.883 44.3118C132.236 44.3118 135.531 43.0917 138.762 40.6448C139.013 40.3862 139.271 40.2602 139.536 40.2602L139.084 43.3437C136.331 45.2534 132.7 46.215 128.187 46.215C124.614 46.215 121.513 45.4789 118.862 44.0068C116.219 42.5347 114.2 40.4326 112.807 37.6939C111.421 34.9619 110.725 31.7391 110.725 28.0323C110.725 25.5788 111.234 23.1054 112.259 20.6253C113.285 18.1453 114.677 16.1427 116.438 14.6175C119.842 11.6468 124.176 10.1614 129.425 10.1614C133.094 10.1614 136.621 10.9306 140 12.469C139.626 13.4902 139.284 14.7899 138.981 16.3681L138.607 16.4477L138.614 16.4344Z"
        fill="#3E3E3E" />
    <path
        d="M70.0162 31.9338C70.5256 42.106 75.652 51.0183 83.2869 56.4956H56.7455C64.3803 51.0183 69.5068 42.106 70.0162 31.9338Z"
        fill="#FFCF10" />
    <path
        d="M69.9839 24.5087C70.4934 14.3631 75.6391 5.46407 83.2933 0H56.6746C64.3287 5.46407 69.4745 14.3564 69.9839 24.5087Z"
        fill="#F30D07" />
    <path
        d="M139.864 68.8467L137.977 68.8182L136.656 68.8467C136.656 69.4503 136.797 69.9303 137.077 70.2867C137.361 70.6408 137.762 70.8178 138.281 70.8178C138.506 70.8178 138.737 70.7655 138.976 70.661C139.214 70.5541 139.413 70.4162 139.574 70.2475C139.6 70.2214 139.644 70.2024 139.705 70.1905L139.645 70.6574C139.125 71.0281 138.594 71.2135 138.051 71.2135C137.969 71.2135 137.75 71.179 137.396 71.1101C137.153 71.0555 136.925 70.9497 136.713 70.7929C136.5 70.636 136.327 70.4447 136.192 70.219C135.97 69.8697 135.859 69.4324 135.859 68.9073C135.859 68.6007 135.91 68.2918 136.012 67.9805C136.113 67.6668 136.256 67.4102 136.44 67.2106C136.832 66.7924 137.344 66.5833 137.977 66.5833C138.569 66.5833 139.03 66.752 139.358 67.0894C139.686 67.4268 139.864 67.8914 139.893 68.4831L139.864 68.8467ZM137.977 66.8898C137.573 66.8898 137.264 67.0454 137.049 67.3567C136.834 67.668 136.708 68.0435 136.67 68.4831C136.805 68.4831 137.008 68.4879 137.279 68.4974C137.551 68.5069 137.755 68.5116 137.892 68.5116C138.031 68.5116 138.24 68.5069 138.519 68.4974C138.797 68.4879 139.004 68.4831 139.138 68.4831C139.12 67.4209 138.732 66.8898 137.977 66.8898Z"
        fill="#797979" />
    <path
        d="M134.928 67.6062H134.854C134.75 67.4564 134.668 67.3543 134.609 67.2996C134.505 67.1879 134.366 67.0941 134.191 67.018C134.019 66.942 133.854 66.904 133.696 66.904C133.181 66.904 132.781 67.0964 132.495 67.4814C132.212 67.864 132.07 68.319 132.07 68.8466C132.07 69.4193 132.216 69.8862 132.506 70.2474C132.655 70.4399 132.842 70.5908 133.069 70.7001C133.298 70.807 133.535 70.8605 133.781 70.8605C134.215 70.8605 134.641 70.6668 135.059 70.2795L135.116 70.308L135.073 70.7464C134.646 71.0577 134.171 71.2134 133.65 71.2134C132.609 71.2134 131.893 70.8142 131.504 70.0157C131.348 69.6854 131.27 69.3111 131.27 68.8929C131.27 68.4224 131.373 68.0161 131.578 67.6739C131.786 67.3293 132.073 67.0667 132.439 66.8861C132.805 66.7055 133.218 66.6152 133.678 66.6152C134.247 66.6152 134.736 66.7412 135.144 66.9931L134.928 67.6062Z"
        fill="#797979" />
    <path
        d="M130.147 69.7662L130.176 70.6716V71.0245V71.0958C130.06 71.0767 129.926 71.0672 129.772 71.0672C129.607 71.0672 129.481 71.0767 129.393 71.0958C129.393 71.0007 129.398 70.8664 129.407 70.693C129.417 70.5195 129.422 70.3864 129.422 70.2937C129.433 70.0585 129.449 69.7175 129.468 69.2708C129.468 69.1971 129.47 69.0902 129.475 68.95C129.479 68.8097 129.482 68.7076 129.482 68.6434C129.482 68.1705 129.438 67.8592 129.351 67.7095C129.145 67.2913 128.831 67.0822 128.409 67.0822C127.925 67.0822 127.581 67.2711 127.378 67.6489C127.244 67.9127 127.176 68.3464 127.176 68.95V70.4827L127.205 71.0387V71.0958C127.049 71.0767 126.923 71.0672 126.826 71.0672C126.654 71.0672 126.528 71.0767 126.451 71.0958C126.455 70.9746 126.462 70.8047 126.472 70.586C126.479 70.3698 126.486 70.1702 126.493 69.9872C126.512 69.2458 126.521 68.6909 126.521 68.3226C126.521 68.1087 126.512 67.8069 126.493 67.4172C126.484 67.2509 126.479 67.0026 126.479 66.6723C126.585 66.6913 126.705 66.7008 126.84 66.7008C127.005 66.7008 127.127 66.6913 127.205 66.6723V66.8754L127.176 67.1677V67.4172V67.5028C127.538 66.9111 128.04 66.6152 128.685 66.6152C129.204 66.6152 129.595 66.7709 129.857 67.0822C130.003 67.2747 130.093 67.4636 130.126 67.6489C130.159 67.8343 130.176 68.0874 130.176 68.4082L130.147 69.7662Z"
        fill="#797979" />
    <path
        d="M121.921 67.6348V67.1108C122.417 66.7591 122.914 66.5833 123.412 66.5833C123.901 66.5833 124.283 66.7294 124.56 67.0217C124.718 67.1809 124.815 67.3413 124.85 67.5029C124.888 67.6621 124.907 67.8867 124.907 68.1766L124.878 69.2851C124.878 69.3635 124.876 69.4776 124.871 69.6273C124.866 69.777 124.864 69.8923 124.864 69.973C124.864 70.2487 124.887 70.4566 124.931 70.5968C124.976 70.7347 125.069 70.8036 125.211 70.8036C125.317 70.8036 125.391 70.7941 125.431 70.775V70.9782C125.402 70.9782 125.382 70.9877 125.37 71.0067C125.328 71.0186 125.287 71.0305 125.247 71.0424C125.209 71.0543 125.178 71.0626 125.154 71.0673C125.018 71.0863 124.916 71.0958 124.85 71.0958C124.463 71.0792 124.246 70.8891 124.198 70.5255L124.11 70.6146C123.72 71.0044 123.266 71.1992 122.746 71.1992C122.404 71.1992 122.11 71.0935 121.865 70.882C121.622 70.6681 121.5 70.3937 121.5 70.0586C121.5 69.8519 121.548 69.6522 121.645 69.4598C121.744 69.2649 121.879 69.1235 122.049 69.0356C122.285 68.9049 122.677 68.798 123.225 68.7148C123.635 68.6483 123.907 68.5758 124.039 68.4974C124.096 68.4688 124.144 68.4344 124.184 68.394C124.203 68.337 124.213 68.2348 124.213 68.0875C124.213 67.7429 124.117 67.472 123.926 67.2748C123.737 67.0775 123.47 66.9789 123.125 66.9789C122.679 66.9789 122.336 67.1536 122.095 67.5029C122.05 67.5765 122.025 67.6205 122.021 67.6348H121.921ZM124.213 68.7754C124.191 68.7754 124.162 68.7849 124.124 68.8039L123.848 68.8609C123.472 68.9299 123.195 68.9893 123.016 69.0392C122.836 69.0891 122.666 69.1853 122.506 69.3279C122.348 69.4705 122.268 69.6701 122.268 69.9267C122.268 70.5113 122.573 70.8036 123.182 70.8036C123.444 70.8036 123.691 70.6871 123.922 70.4542C124.026 70.3426 124.084 70.2796 124.096 70.2653C124.129 70.2416 124.152 70.2071 124.166 70.162L124.213 68.7754Z"
        fill="#797979" />
    <path
        d="M118.759 69.8696L118.731 66.7436V66.6723L118.933 66.7008C119.176 66.7008 119.355 66.6913 119.471 66.6723L119.428 67.3139V67.5349L119.443 67.5919L119.513 67.4743C119.681 67.2057 119.865 66.9954 120.066 66.8434C120.269 66.6913 120.534 66.6152 120.863 66.6152C120.9 66.6342 120.935 66.6437 120.965 66.6437L120.919 66.8754V67.0964L120.905 67.2854V67.403L120.834 67.4315C120.832 67.4291 120.818 67.4196 120.792 67.403C120.766 67.384 120.746 67.3745 120.732 67.3745C120.649 67.3151 120.538 67.2854 120.399 67.2854C120.141 67.2854 119.943 67.3626 119.804 67.517C119.688 67.6477 119.605 67.7749 119.556 67.8984C119.48 68.1218 119.443 68.4818 119.443 68.9785V70.1191L119.471 71.0245V71.0958C119.384 71.0767 119.253 71.0672 119.078 71.0672C119.002 71.0672 118.887 71.0767 118.731 71.0958V70.8462L118.759 69.8696Z"
        fill="#797979" />
    <path
        d="M114.188 67.6348V67.1108C114.683 66.7591 115.18 66.5833 115.678 66.5833C116.167 66.5833 116.549 66.7294 116.826 67.0217C116.984 67.1809 117.081 67.3413 117.116 67.5029C117.154 67.6621 117.173 67.8867 117.173 68.1766L117.144 69.2851C117.144 69.3635 117.142 69.4776 117.137 69.6273C117.133 69.777 117.13 69.8923 117.13 69.973C117.13 70.2487 117.153 70.4566 117.198 70.5968C117.242 70.7347 117.336 70.8036 117.477 70.8036C117.583 70.8036 117.657 70.7941 117.697 70.775V70.9782C117.668 70.9782 117.648 70.9877 117.637 71.0067C117.594 71.0186 117.553 71.0305 117.513 71.0424C117.475 71.0543 117.444 71.0626 117.421 71.0673C117.284 71.0863 117.182 71.0958 117.116 71.0958C116.729 71.0792 116.512 70.8891 116.464 70.5255L116.376 70.6146C115.986 71.0044 115.532 71.1992 115.013 71.1992C114.67 71.1992 114.376 71.0935 114.131 70.882C113.888 70.6681 113.766 70.3937 113.766 70.0586C113.766 69.8519 113.815 69.6522 113.911 69.4598C114.01 69.2649 114.145 69.1235 114.315 69.0356C114.551 68.9049 114.943 68.798 115.491 68.7148C115.901 68.6483 116.173 68.5758 116.305 68.4974C116.362 68.4688 116.41 68.4344 116.45 68.394C116.469 68.337 116.479 68.2348 116.479 68.0875C116.479 67.7429 116.383 67.472 116.192 67.2748C116.003 67.0775 115.736 66.9789 115.392 66.9789C114.945 66.9789 114.602 67.1536 114.361 67.5029C114.316 67.5765 114.291 67.6205 114.287 67.6348H114.188ZM116.479 68.7754C116.457 68.7754 116.428 68.7849 116.39 68.8039L116.114 68.8609C115.739 68.9299 115.461 68.9893 115.282 69.0392C115.102 69.0891 114.932 69.1853 114.772 69.3279C114.614 69.4705 114.535 69.6701 114.535 69.9267C114.535 70.5113 114.839 70.8036 115.448 70.8036C115.71 70.8036 115.957 70.6871 116.188 70.4542C116.292 70.3426 116.35 70.2796 116.362 70.2653C116.395 70.2416 116.418 70.2071 116.433 70.162L116.479 68.7754Z"
        fill="#797979" />
    <path
        d="M113.023 68.8467L111.135 68.8182L109.814 68.8467C109.814 69.4503 109.955 69.9303 110.236 70.2867C110.519 70.6408 110.92 70.8178 111.44 70.8178C111.664 70.8178 111.895 70.7655 112.134 70.661C112.372 70.5541 112.572 70.4162 112.732 70.2475C112.758 70.2214 112.802 70.2024 112.863 70.1905L112.803 70.6574C112.284 71.0281 111.752 71.2135 111.209 71.2135C111.127 71.2135 110.908 71.179 110.554 71.1101C110.311 71.0555 110.083 70.9497 109.871 70.7929C109.658 70.636 109.485 70.4447 109.35 70.219C109.128 69.8697 109.017 69.4324 109.017 68.9073C109.017 68.6007 109.068 68.2918 109.17 67.9805C109.271 67.6668 109.414 67.4102 109.598 67.2106C109.99 66.7924 110.502 66.5833 111.135 66.5833C111.728 66.5833 112.188 66.752 112.516 67.0894C112.844 67.4268 113.023 67.8914 113.051 68.4831L113.023 68.8467ZM111.135 66.8898C110.731 66.8898 110.422 67.0454 110.207 67.3567C109.992 67.668 109.866 68.0435 109.828 68.4831C109.963 68.4831 110.166 68.4879 110.437 68.4974C110.709 68.5069 110.913 68.5116 111.05 68.5116C111.189 68.5116 111.398 68.5069 111.677 68.4974C111.955 68.4879 112.162 68.4831 112.297 68.4831C112.278 67.4209 111.891 66.8898 111.135 66.8898Z"
        fill="#797979" />
    <path
        d="M107.76 70.03L107.775 71.0066L107.789 71.0958L107.541 71.0815C107.291 71.0815 107.108 71.0862 106.992 71.0958V70.8177L107.063 68.6577V65.0219L107.034 64.1736L107.02 64.1023L107.137 64.1308H107.718C107.756 64.1308 107.793 64.1213 107.831 64.1023V64.3661L107.76 66.4228V70.03Z"
        fill="#797979" />
    <path
        d="M105.515 65.7525C105.501 65.7359 105.486 65.7181 105.469 65.6991C105.455 65.6801 105.436 65.6634 105.413 65.6492C104.933 65.1834 104.377 64.9505 103.745 64.9505C103.197 64.9505 102.728 65.0848 102.339 65.3533C101.952 65.6218 101.661 65.983 101.468 66.4369C101.274 66.8908 101.177 67.3874 101.177 67.9269C101.177 68.2239 101.231 68.6136 101.337 69.096C101.438 69.4382 101.593 69.7352 101.801 69.9871C102.02 70.2723 102.298 70.4921 102.633 70.6465C102.968 70.801 103.32 70.8782 103.688 70.8782C104.318 70.8782 104.937 70.6537 105.544 70.2045C105.591 70.157 105.639 70.1333 105.689 70.1333L105.604 70.7C105.087 71.0517 104.405 71.2275 103.557 71.2275C102.887 71.2275 102.302 71.0921 101.804 70.8212C101.308 70.5503 100.93 70.1641 100.667 69.6627C100.408 69.159 100.278 68.5661 100.278 67.8841C100.278 67.4326 100.374 66.9787 100.565 66.5225C100.758 66.0662 101.02 65.6979 101.351 65.4175C101.991 64.8709 102.804 64.5977 103.791 64.5977C104.48 64.5977 105.142 64.739 105.777 65.0218C105.707 65.2096 105.643 65.4484 105.586 65.7383L105.515 65.7525Z"
        fill="#797979" />
    <path
        d="M93.7977 70.2189C93.9228 70.4138 94.0821 70.573 94.2757 70.6965C94.4693 70.8177 94.6676 70.8783 94.8706 70.8783C95.1067 70.8783 95.318 70.8011 95.5045 70.6466C95.691 70.4922 95.7842 70.2961 95.7842 70.0585C95.7842 69.7805 95.6981 69.5904 95.5257 69.4882C95.3558 69.3836 95.0843 69.2767 94.7113 69.1674C94.3359 69.0438 94.0892 68.9274 93.9712 68.8181C93.7209 68.5828 93.5958 68.306 93.5958 67.9875C93.5958 67.5479 93.7375 67.2069 94.0207 66.9646C94.3064 66.7198 94.6676 66.5974 95.1043 66.5974C95.4396 66.5974 95.7677 66.6711 96.0888 66.8184C96.0959 66.8232 96.1065 66.8279 96.1206 66.8327C96.1348 66.8374 96.1443 66.8422 96.149 66.8469C96.0663 67.0513 95.9932 67.2699 95.9294 67.5028H95.8444C95.7854 67.3412 95.6827 67.201 95.5364 67.0822C95.39 66.9634 95.2318 66.904 95.0618 66.904C94.8187 66.904 94.6168 66.9717 94.4563 67.1071C94.2981 67.2402 94.2191 67.4256 94.2191 67.6632C94.2191 67.9198 94.2934 68.1064 94.4421 68.2228C94.5932 68.3392 94.814 68.4355 95.1043 68.5115C95.5458 68.6375 95.8267 68.7396 95.9471 68.8181C96.2564 69.0723 96.411 69.3741 96.411 69.7234C96.411 70.2272 96.1596 70.6454 95.6568 70.9781C95.4419 71.1255 95.122 71.1991 94.6971 71.1991C94.2533 71.1991 93.8673 71.1017 93.5392 70.9068C93.6548 70.5195 93.7174 70.2902 93.7268 70.2189H93.7977Z"
        fill="#797979" />
    <path
        d="M92.4308 69.4169V70.2189L92.4626 70.8462V71.0958L92.3741 71.0815L92.1864 71.0672C91.9645 71.0672 91.7946 71.0767 91.6765 71.0958C91.6883 71.0363 91.6942 70.9437 91.6942 70.8177L91.7367 70.2332L91.765 69.2422V68.54C91.765 68.0244 91.7119 67.6691 91.6057 67.4743C91.4286 67.2034 91.1631 67.0679 90.8089 67.0679C90.5398 67.0679 90.3085 67.1368 90.1149 67.2747C89.9213 67.4101 89.7844 67.6038 89.7041 67.8557C89.6781 67.965 89.6545 68.2133 89.6333 68.6006V69.7377C89.6333 70.0775 89.638 70.3306 89.6474 70.4969V70.8926L89.6758 71.0958C89.5884 71.0767 89.4633 71.0672 89.3004 71.0672C89.1068 71.0672 88.9664 71.0767 88.879 71.0958C88.879 71.0173 88.8837 70.9544 88.8932 70.9068L88.9498 69.8268V69.1389V68.3796C88.9498 67.9448 88.8731 67.6287 88.7197 67.4315C88.5639 67.2081 88.3124 67.0964 87.9654 67.0964C87.4673 67.0964 87.1285 67.3151 86.9491 67.7523C86.8523 68.0066 86.8039 68.4105 86.8039 68.9642V69.4739V70.2332L86.8322 70.9068L86.8499 71.0958L86.7614 71.0815C86.693 71.072 86.5914 71.0672 86.4569 71.0672C86.2822 71.0672 86.1512 71.0767 86.0638 71.0958C86.0733 71.0482 86.078 70.9757 86.078 70.8783L86.1523 69.0355V67.9127L86.1098 66.8897V66.6723L86.1665 66.6865C86.2444 66.696 86.3506 66.7008 86.4852 66.7008C86.641 66.7008 86.7626 66.6913 86.8499 66.6723C86.8358 66.803 86.8287 66.923 86.8287 67.0323C86.8263 67.144 86.8228 67.2865 86.8181 67.46C87.1793 66.8968 87.6491 66.6152 88.2274 66.6152C88.5438 66.6152 88.8235 66.6948 89.0667 66.8541C89.3122 67.0133 89.4822 67.2402 89.5766 67.5349C89.9402 66.9313 90.4477 66.6295 91.0993 66.6295C91.5172 66.6295 91.8536 66.7483 92.1085 66.9859C92.3635 67.2236 92.491 67.5515 92.491 67.9697C92.491 68.1646 92.4815 68.4474 92.4626 68.8181L92.4308 69.4169Z"
        fill="#797979" />
    <path
        d="M82.9122 66.5833C83.5709 66.5833 84.1067 66.8221 84.5199 67.2997C84.8882 67.6965 85.0723 68.2217 85.0723 68.8752C85.0723 69.3172 84.9613 69.7414 84.7394 70.1477C84.3216 70.8487 83.6594 71.1992 82.7528 71.1992C82.4294 71.1992 82.1143 71.1351 81.8074 71.0067C81.5453 70.8879 81.3045 70.7085 81.085 70.4685C80.8819 70.2404 80.7438 70.0028 80.6707 69.7556C80.5975 69.5061 80.5609 69.2031 80.5609 68.8467C80.5609 68.1718 80.7828 67.6264 81.2266 67.2106C81.6704 66.7924 82.2323 66.5833 82.9122 66.5833ZM83.8541 70.3366C84.0336 70.0705 84.154 69.7295 84.2153 69.3136C84.2342 69.2162 84.2437 69.0558 84.2437 68.8324C84.2437 68.3239 84.1374 67.8736 83.925 67.4815C83.7149 67.087 83.3773 66.8898 82.9122 66.8898C82.3716 66.8898 81.9821 67.0942 81.7436 67.5029C81.5075 67.9116 81.3895 68.4083 81.3895 68.9928C81.3895 69.5132 81.5064 69.96 81.7401 70.3331C81.9738 70.7061 82.335 70.8927 82.8237 70.8927C83.2203 70.8927 83.5638 70.7073 83.8541 70.3366Z"
        fill="#797979" />
    <path
        d="M79.2153 65.4175C79.2153 65.5244 79.2106 65.6016 79.2011 65.6492L79.1445 66.7755L80.1289 66.7577V67.1391L79.1445 67.1106C79.1256 67.1581 79.1161 67.2258 79.1161 67.3138L79.102 69.3598V69.7376C79.102 70.0774 79.1492 70.3531 79.2436 70.5646C79.338 70.7737 79.5316 70.8782 79.8244 70.8782C79.8834 70.8782 79.9542 70.8687 80.0368 70.8497C80.1194 70.8307 80.1891 70.8153 80.2457 70.8034V71.0386C79.9979 71.1242 79.737 71.1669 79.4632 71.1669C79.423 71.1669 79.3817 71.1634 79.3392 71.1562C79.2967 71.1515 79.2519 71.1444 79.2047 71.1349C79.1574 71.1277 79.1079 71.1194 79.0559 71.1099C78.9166 71.0838 78.7903 71.0113 78.677 70.8925C78.5637 70.7713 78.4823 70.6347 78.4327 70.4826C78.3949 70.2972 78.376 70.0489 78.376 69.7376L78.4327 68.1015V67.3138V67.1106L77.8236 67.1391V67.0072V66.7435L78.4327 66.7755C78.4327 66.6543 78.428 66.4785 78.4185 66.248C78.4091 66.0175 78.4044 65.8476 78.4044 65.7383L79.2153 65.4175Z"
        fill="#797979" />
    <path
        d="M74.7038 70.2189C74.829 70.4138 74.9883 70.573 75.1819 70.6965C75.3755 70.8177 75.5738 70.8783 75.7768 70.8783C76.0129 70.8783 76.2242 70.8011 76.4107 70.6466C76.5972 70.4922 76.6904 70.2961 76.6904 70.0585C76.6904 69.7805 76.6043 69.5904 76.4319 69.4882C76.2619 69.3836 75.9905 69.2767 75.6175 69.1674C75.2421 69.0438 74.9954 68.9274 74.8774 68.8181C74.6271 68.5828 74.502 68.306 74.502 67.9875C74.502 67.5479 74.6436 67.2069 74.9269 66.9646C75.2126 66.7198 75.5738 66.5974 76.0105 66.5974C76.3458 66.5974 76.6739 66.6711 76.995 66.8184C77.002 66.8232 77.0127 66.8279 77.0268 66.8327C77.041 66.8374 77.0504 66.8422 77.0552 66.8469C76.9725 67.0513 76.8994 67.2699 76.8356 67.5028H76.7506C76.6916 67.3412 76.5889 67.201 76.4425 67.0822C76.2962 66.9634 76.138 66.904 75.968 66.904C75.7249 66.904 75.523 66.9717 75.3625 67.1071C75.2043 67.2402 75.1252 67.4256 75.1252 67.6632C75.1252 67.9198 75.1996 68.1064 75.3483 68.2228C75.4994 68.3392 75.7202 68.4355 76.0105 68.5115C76.452 68.6375 76.7329 68.7396 76.8533 68.8181C77.1626 69.0723 77.3172 69.3741 77.3172 69.7234C77.3172 70.2272 77.0658 70.6454 76.5629 70.9781C76.3481 71.1255 76.0282 71.1991 75.6033 71.1991C75.1595 71.1991 74.7735 71.1017 74.4453 70.9068C74.561 70.5195 74.6236 70.2902 74.633 70.2189H74.7038Z"
        fill="#797979" />
    <path
        d="M72.5509 67.2854L72.5367 66.7437V66.6724C72.6146 66.6914 72.7409 66.7009 72.9156 66.7009C73.0879 66.7009 73.2178 66.6914 73.3051 66.6724C73.2673 67.1571 73.2485 67.5219 73.2485 67.7667C73.239 68.1469 73.2343 68.7065 73.2343 69.4455C73.2343 69.5548 73.2367 69.7247 73.2414 69.9552C73.2461 70.1857 73.2485 70.3568 73.2485 70.4685C73.2485 70.7513 73.2532 70.9604 73.2626 71.0958C73.069 71.0768 72.9486 71.0673 72.9014 71.0673C72.7362 71.0673 72.6146 71.0768 72.5367 71.0958V70.9069L72.5509 70.3509V70.2653C72.2227 70.8475 71.7246 71.1386 71.0565 71.1386C70.556 71.1386 70.1653 70.983 69.8844 70.6717C69.7451 70.5148 69.6566 70.3342 69.6188 70.1299C69.5834 69.9231 69.5657 69.6606 69.5657 69.3421L69.594 68.0019L69.5657 67.0823V66.7437V66.6724C69.6814 66.6914 69.8159 66.7009 69.9694 66.7009C70.1441 66.7009 70.2751 66.6914 70.3624 66.6724C70.3341 66.9029 70.3199 67.131 70.3199 67.3567C70.2798 68.0934 70.2597 68.6827 70.2597 69.1247C70.2597 69.5857 70.3129 69.9172 70.4191 70.1192C70.6056 70.497 70.9302 70.6859 71.3929 70.6859C71.6951 70.6859 71.9359 70.5933 72.1153 70.4079C72.3183 70.2321 72.4493 69.9849 72.5084 69.6665C72.5367 69.4716 72.5509 69.1841 72.5509 68.8039V67.2854Z"
        fill="#797979" />
    <path
        d="M68.2767 65.7525C68.2625 65.7359 68.2472 65.7181 68.2306 65.6991C68.2165 65.6801 68.1976 65.6634 68.174 65.6492C67.6948 65.1834 67.1388 64.9505 66.5061 64.9505C65.9584 64.9505 65.4898 65.0848 65.1003 65.3533C64.7131 65.6218 64.4227 65.983 64.2292 66.4369C64.0356 66.8908 63.9388 67.3874 63.9388 67.9269C63.9388 68.2239 63.9919 68.6136 64.0981 69.096C64.1997 69.4382 64.3543 69.7352 64.562 69.9871C64.7816 70.2723 65.059 70.4921 65.3942 70.6465C65.7294 70.801 66.0812 70.8782 66.4495 70.8782C67.0798 70.8782 67.6983 70.6537 68.305 70.2045C68.3522 70.157 68.4006 70.1333 68.4502 70.1333L68.3652 70.7C67.8482 71.0517 67.1659 71.2275 66.3184 71.2275C65.648 71.2275 65.0637 71.0921 64.5656 70.8212C64.0698 70.5503 63.6909 70.1641 63.4289 69.6627C63.1692 69.159 63.0393 68.5661 63.0393 67.8841C63.0393 67.4326 63.1349 66.9787 63.3262 66.5225C63.5198 66.0662 63.7818 65.6979 64.1123 65.4175C64.7521 64.8709 65.5653 64.5977 66.5521 64.5977C67.2415 64.5977 67.9037 64.739 68.5387 65.0218C68.4679 65.2096 68.4042 65.4484 68.3475 65.7383L68.2767 65.7525Z"
        fill="#797979" />
    <path
        d="M57.2 69.8696L57.1717 66.7436V66.6723L57.3735 66.7008C57.6167 66.7008 57.7961 66.6913 57.9118 66.6723L57.8693 67.3139V67.5349L57.8834 67.5919L57.9543 67.4743C58.1219 67.2057 58.306 66.9954 58.5067 66.8434C58.7097 66.6913 58.9753 66.6152 59.3034 66.6152C59.3412 66.6342 59.3754 66.6437 59.4061 66.6437L59.3601 66.8754V67.0964L59.3459 67.2854V67.403L59.2751 67.4315C59.2727 67.4291 59.2586 67.4196 59.2326 67.403C59.2066 67.384 59.1866 67.3745 59.1724 67.3745C59.0898 67.3151 58.9788 67.2854 58.8395 67.2854C58.5822 67.2854 58.3839 67.3626 58.2446 67.517C58.1289 67.6477 58.0463 67.7749 57.9967 67.8984C57.9212 68.1218 57.8834 68.4818 57.8834 68.9785V70.1191L57.9118 71.0245V71.0958C57.8244 71.0767 57.6934 71.0672 57.5187 71.0672C57.4431 71.0672 57.3275 71.0767 57.1717 71.0958V70.8462L57.2 69.8696Z"
        fill="#797979" />
    <path
        d="M53.9315 66.5833C54.5902 66.5833 55.1261 66.8221 55.5392 67.2997C55.9075 67.6965 56.0916 68.2217 56.0916 68.8752C56.0916 69.3172 55.9807 69.7414 55.7587 70.1477C55.3409 70.8487 54.6787 71.1992 53.7722 71.1992C53.4487 71.1992 53.1336 71.1351 52.8267 71.0067C52.5646 70.8879 52.3238 70.7085 52.1043 70.4685C51.9013 70.2404 51.7632 70.0028 51.69 69.7556C51.6168 69.5061 51.5802 69.2031 51.5802 68.8467C51.5802 68.1718 51.8021 67.6264 52.2459 67.2106C52.6898 66.7924 53.2516 66.5833 53.9315 66.5833ZM54.8735 70.3366C55.0529 70.0705 55.1733 69.7295 55.2347 69.3136C55.2535 69.2162 55.263 69.0558 55.263 68.8324C55.263 68.3239 55.1568 67.8736 54.9443 67.4815C54.7342 67.087 54.3966 66.8898 53.9315 66.8898C53.3909 66.8898 53.0014 67.0942 52.7629 67.5029C52.5269 67.9116 52.4088 68.4083 52.4088 68.9928C52.4088 69.5132 52.5257 69.96 52.7594 70.3331C52.9931 70.7061 53.3543 70.8927 53.843 70.8927C54.2396 70.8927 54.5831 70.7073 54.8735 70.3366Z"
        fill="#797979" />
    <path
        d="M51.3819 64.8899L51.1942 64.8044C51.1045 64.764 50.9971 64.7438 50.872 64.7438C50.6217 64.7438 50.434 64.8305 50.3089 65.004C50.1838 65.1751 50.1212 65.3949 50.1212 65.6634C50.1212 65.8678 50.1496 66.1743 50.2062 66.5831L50.2204 66.7435H51.18C51.18 66.7601 51.1765 66.7767 51.1694 66.7934C51.1647 66.8076 51.1623 66.8159 51.1623 66.8183C51.1529 66.8563 51.1482 66.9146 51.1482 66.993C51.1482 67.0524 51.1529 67.0963 51.1623 67.1249L50.2204 67.0963C50.2204 67.2199 50.218 67.4088 50.2133 67.6631C50.2086 67.9174 50.2062 68.1075 50.2062 68.2334V68.9784L50.2487 70.8604V71.0957L50.1779 71.0814C50.1094 71.0719 50.0032 71.0671 49.8592 71.0671C49.6751 71.0671 49.5346 71.0766 49.4378 71.0957C49.4425 71.0648 49.4472 71.022 49.452 70.9673C49.4567 70.9127 49.4614 70.8723 49.4661 70.8461L49.4945 70.176L49.5263 67.1106H48.8571V66.7435H49.5263L49.5547 66.5831C49.6184 65.9343 49.8002 65.3616 50.1 64.865C50.3998 64.366 50.8613 64.1165 51.4846 64.1165C51.4751 64.1521 51.4681 64.1913 51.4633 64.2341C51.461 64.2769 51.4574 64.3113 51.4527 64.3375C51.4527 64.3897 51.448 64.4729 51.4385 64.587C51.4291 64.701 51.4244 64.7878 51.4244 64.8472L51.3819 64.8899Z"
        fill="#797979" />
    <path
        d="M44.7635 69.7662L44.7918 70.6716V71.0245V71.0958C44.6762 71.0767 44.5416 71.0672 44.3881 71.0672C44.2229 71.0672 44.0966 71.0767 44.0092 71.0958C44.0092 71.0007 44.014 70.8664 44.0234 70.693C44.0329 70.5195 44.0376 70.3864 44.0376 70.2937C44.0494 70.0585 44.0647 69.7175 44.0836 69.2708C44.0836 69.1971 44.086 69.0902 44.0907 68.95C44.0954 68.8097 44.0978 68.7076 44.0978 68.6434C44.0978 68.1705 44.0541 67.8592 43.9668 67.7095C43.7614 67.2913 43.4474 67.0822 43.0248 67.0822C42.5409 67.0822 42.1974 67.2711 41.9943 67.6489C41.8598 67.9127 41.7925 68.3464 41.7925 68.95V70.4827L41.8208 71.0387V71.0958C41.665 71.0767 41.5387 71.0672 41.4419 71.0672C41.2696 71.0672 41.1445 71.0767 41.0666 71.0958C41.0713 70.9746 41.0784 70.8047 41.0878 70.586C41.0949 70.3698 41.102 70.1702 41.1091 69.9872C41.1279 69.2458 41.1374 68.6909 41.1374 68.3226C41.1374 68.1087 41.1279 67.8069 41.1091 67.4172C41.0996 67.2509 41.0949 67.0026 41.0949 66.6723C41.2011 66.6913 41.3215 66.7008 41.4561 66.7008C41.6213 66.7008 41.7429 66.6913 41.8208 66.6723V66.8754L41.7925 67.1677V67.4172V67.5028C42.1537 66.9111 42.6565 66.6152 43.301 66.6152C43.8204 66.6152 44.2111 66.7709 44.4731 67.0822C44.6195 67.2747 44.7092 67.4636 44.7423 67.6489C44.7753 67.8343 44.7918 68.0874 44.7918 68.4082L44.7635 69.7662Z"
        fill="#797979" />
    <path
        d="M36.5375 67.6348V67.1108C37.0332 66.7591 37.5302 66.5833 38.0283 66.5833C38.517 66.5833 38.8994 66.7294 39.1756 67.0217C39.3338 67.1809 39.4306 67.3413 39.466 67.5029C39.5037 67.6621 39.5226 67.8867 39.5226 68.1766L39.4943 69.2851C39.4943 69.3635 39.4919 69.4776 39.4872 69.6273C39.4825 69.777 39.4801 69.8923 39.4801 69.973C39.4801 70.2487 39.5026 70.4566 39.5474 70.5968C39.5923 70.7347 39.6855 70.8036 39.8272 70.8036C39.9334 70.8036 40.0066 70.7941 40.0467 70.775V70.9782C40.0184 70.9782 39.9983 70.9877 39.9865 71.0067C39.944 71.0186 39.9027 71.0305 39.8626 71.0424C39.8248 71.0543 39.7941 71.0626 39.7705 71.0673C39.6336 71.0863 39.5321 71.0958 39.466 71.0958C39.0788 71.0792 38.8616 70.8891 38.8144 70.5255L38.7259 70.6146C38.3364 71.0044 37.8819 71.1992 37.3625 71.1992C37.0202 71.1992 36.7263 71.0935 36.4808 70.882C36.2376 70.6681 36.1161 70.3937 36.1161 70.0586C36.1161 69.8519 36.1645 69.6522 36.2612 69.4598C36.3604 69.2649 36.495 69.1235 36.6649 69.0356C36.901 68.9049 37.2929 68.798 37.8406 68.7148C38.2514 68.6483 38.5229 68.5758 38.6551 68.4974C38.7117 68.4688 38.7601 68.4344 38.8002 68.394C38.8191 68.337 38.8286 68.2348 38.8286 68.0875C38.8286 67.7429 38.733 67.472 38.5417 67.2748C38.3529 67.0775 38.0861 66.9789 37.7414 66.9789C37.2953 66.9789 36.9518 67.1536 36.711 67.5029C36.6661 67.5765 36.6413 67.6205 36.6366 67.6348H36.5375ZM38.8286 68.7754C38.8073 68.7754 38.7778 68.7849 38.74 68.8039L38.4638 68.8609C38.0885 68.9299 37.8111 68.9893 37.6317 69.0392C37.4522 69.0891 37.2823 69.1853 37.1217 69.3279C36.9636 69.4705 36.8845 69.6701 36.8845 69.9267C36.8845 70.5113 37.189 70.8036 37.7981 70.8036C38.0601 70.8036 38.3068 70.6871 38.5382 70.4542C38.6421 70.3426 38.6999 70.2796 38.7117 70.2653C38.7448 70.2416 38.7684 70.2071 38.7825 70.162L38.8286 68.7754Z"
        fill="#797979" />
    <path
        d="M32.5855 72.2187L32.9644 71.4915L33.1238 71.1529L33.1663 71.0816L33.0494 70.775L31.2966 66.6724L31.6011 66.7009H31.8313L32.1783 66.6866L32.2527 66.9361L32.7307 68.1766L33.5133 70.0586L33.5877 70.1192L33.6868 69.8839L34.0091 69.1817L34.3703 68.2193L34.9369 66.6724C35.0124 66.6914 35.1045 66.7009 35.2131 66.7009C35.3571 66.7009 35.468 66.6914 35.5459 66.6724L33.354 71.5485L32.7732 73.01C32.6906 72.9791 32.5997 72.9636 32.5006 72.9636C32.3802 72.9636 32.2633 72.9791 32.15 73.01L32.5855 72.2187Z"
        fill="#797979" />
    <path
        d="M27.2455 67.6348V67.1108C27.7413 66.7591 28.2382 66.5833 28.7363 66.5833C29.225 66.5833 29.6074 66.7294 29.8836 67.0217C30.0418 67.1809 30.1386 67.3413 30.174 67.5029C30.2118 67.6621 30.2307 67.8867 30.2307 68.1766L30.2023 69.2851C30.2023 69.3635 30.2 69.4776 30.1953 69.6273C30.1905 69.777 30.1882 69.8923 30.1882 69.973C30.1882 70.2487 30.2106 70.4566 30.2555 70.5968C30.3003 70.7347 30.3936 70.8036 30.5352 70.8036C30.6414 70.8036 30.7146 70.7941 30.7548 70.775V70.9782C30.7264 70.9782 30.7064 70.9877 30.6946 71.0067C30.6521 71.0186 30.6108 71.0305 30.5706 71.0424C30.5328 71.0543 30.5022 71.0626 30.4786 71.0673C30.3416 71.0863 30.2401 71.0958 30.174 71.0958C29.7868 71.0792 29.5697 70.8891 29.5224 70.5255L29.4339 70.6146C29.0444 71.0044 28.5899 71.1992 28.0706 71.1992C27.7283 71.1992 27.4344 71.0935 27.1888 70.882C26.9457 70.6681 26.8241 70.3937 26.8241 70.0586C26.8241 69.8519 26.8725 69.6522 26.9693 69.4598C27.0684 69.2649 27.203 69.1235 27.373 69.0356C27.609 68.9049 28.0009 68.798 28.5486 68.7148C28.9594 68.6483 29.2309 68.5758 29.3631 68.4974C29.4198 68.4688 29.4681 68.4344 29.5083 68.394C29.5272 68.337 29.5366 68.2348 29.5366 68.0875C29.5366 67.7429 29.441 67.472 29.2498 67.2748C29.0609 67.0775 28.7942 66.9789 28.4495 66.9789C28.0033 66.9789 27.6598 67.1536 27.419 67.5029C27.3742 67.5765 27.3494 67.6205 27.3446 67.6348H27.2455ZM29.5366 68.7754C29.5154 68.7754 29.4859 68.7849 29.4481 68.8039L29.1719 68.8609C28.7965 68.9299 28.5191 68.9893 28.3397 69.0392C28.1603 69.0891 27.9903 69.1853 27.8298 69.3279C27.6716 69.4705 27.5925 69.6701 27.5925 69.9267C27.5925 70.5113 27.8971 70.8036 28.5061 70.8036C28.7682 70.8036 29.0149 70.6871 29.2462 70.4542C29.3501 70.3426 29.4079 70.2796 29.4198 70.2653C29.4528 70.2416 29.4764 70.2071 29.4906 70.162L29.5366 68.7754Z"
        fill="#797979" />
    <path
        d="M23.0139 64.7012H23.4211C23.7681 64.7012 24.029 64.7107 24.2037 64.7297C24.6192 64.8081 24.9096 64.9198 25.0748 65.0647C25.3557 65.3048 25.4962 65.622 25.4962 66.0165C25.4962 66.4347 25.3593 66.7864 25.0854 67.0715C24.8116 67.3567 24.4598 67.5539 24.0302 67.6632C24.0774 67.6632 24.1163 67.6692 24.147 67.6811C24.2769 67.7119 24.3878 67.7369 24.4799 67.7559C24.572 67.7749 24.6617 67.7987 24.749 67.8272C24.8387 67.8557 24.9131 67.889 24.9721 67.927C25.2106 68.0648 25.3853 68.2205 25.4962 68.3939C25.6497 68.6221 25.7264 68.8704 25.7264 69.1389C25.7264 69.7924 25.4466 70.3187 24.8871 70.718C24.6534 70.8772 24.3807 70.9782 24.0691 71.0209C23.7575 71.0613 23.3774 71.0815 22.9289 71.0815H21.824H21.5939C21.5986 70.9485 21.608 70.7536 21.6222 70.497C21.6364 70.2403 21.6458 70.0407 21.6505 69.8981L21.6647 66.7151L21.6505 65.6065L21.608 64.7012C21.7615 64.7107 21.9928 64.7154 22.3021 64.7154L23.0139 64.7012ZM22.419 66.7293L22.4048 67.5349H22.8404C23.3267 67.5349 23.7044 67.4708 23.9735 67.3424C24.4457 67.1119 24.6817 66.7329 24.6817 66.2054C24.6817 65.9986 24.6357 65.8014 24.5436 65.6137C24.4516 65.4259 24.3194 65.2917 24.147 65.2109C23.9157 65.0944 23.5675 65.0362 23.1024 65.0362C23.0292 65.0362 22.9194 65.041 22.7731 65.0505C22.6267 65.06 22.5134 65.0647 22.4331 65.0647C22.4237 65.2311 22.419 65.4747 22.419 65.7955V66.7293ZM22.4331 70.6859C22.5252 70.6906 22.6609 70.7025 22.8404 70.7215C23.0221 70.7382 23.1768 70.7465 23.3042 70.7465C23.7646 70.7465 24.1364 70.6098 24.4197 70.3366C24.7101 70.0443 24.8553 69.6938 24.8553 69.2851C24.8553 69.0189 24.8116 68.7955 24.7242 68.6149C24.6393 68.4343 24.4905 68.2739 24.2781 68.1337C24.0349 67.9674 23.5899 67.8842 22.943 67.8842H22.4048L22.4331 70.6859Z"
        fill="#797979" />
    <path
        d="M17.6703 64.8899L17.4826 64.8044C17.3929 64.764 17.2855 64.7438 17.1604 64.7438C16.9101 64.7438 16.7224 64.8305 16.5973 65.004C16.4722 65.1751 16.4096 65.3949 16.4096 65.6634C16.4096 65.8678 16.438 66.1743 16.4946 66.5831L16.5088 66.7435H17.4684C17.4684 66.7601 17.4649 66.7767 17.4578 66.7934C17.4531 66.8076 17.4507 66.8159 17.4507 66.8183C17.4413 66.8563 17.4366 66.9146 17.4366 66.993C17.4366 67.0524 17.4413 67.0963 17.4507 67.1249L16.5088 67.0963C16.5088 67.2199 16.5064 67.4088 16.5017 67.6631C16.497 67.9174 16.4946 68.1075 16.4946 68.2334V68.9784L16.5371 70.8604V71.0957L16.4663 71.0814C16.3978 71.0719 16.2916 71.0671 16.1476 71.0671C15.9634 71.0671 15.823 71.0766 15.7262 71.0957C15.7309 71.0648 15.7356 71.022 15.7404 70.9673C15.7451 70.9127 15.7498 70.8723 15.7545 70.8461L15.7829 70.176L15.8147 67.1106H15.1454V66.7435H15.8147L15.8431 66.5831C15.9068 65.9343 16.0886 65.3616 16.3884 64.865C16.6882 64.366 17.1497 64.1165 17.773 64.1165C17.7635 64.1521 17.7564 64.1913 17.7517 64.2341C17.7494 64.2769 17.7458 64.3113 17.7411 64.3375C17.7411 64.3897 17.7364 64.4729 17.7269 64.587C17.7175 64.701 17.7128 64.7878 17.7128 64.8472L17.6703 64.8899Z"
        fill="#797979" />
    <path
        d="M14.0335 70.03L14.0477 71.0066L14.0618 71.0958L13.814 71.0815C13.5637 71.0815 13.3808 71.0862 13.2651 71.0958V70.8177L13.3359 68.6577V65.0219L13.3076 64.1736L13.2934 64.1023L13.4103 64.1308H13.991C14.0288 64.1308 14.0666 64.1213 14.1043 64.1023V64.3661L14.0335 66.4228V70.03Z"
        fill="#797979" />
    <path
        d="M10.8925 67.2854L10.8784 66.7437V66.6724C10.9563 66.6914 11.0826 66.7009 11.2573 66.7009C11.4296 66.7009 11.5594 66.6914 11.6468 66.6724C11.609 67.1571 11.5901 67.5219 11.5901 67.7667C11.5807 68.1469 11.576 68.7065 11.576 69.4455C11.576 69.5548 11.5783 69.7247 11.5831 69.9552C11.5878 70.1857 11.5901 70.3568 11.5901 70.4685C11.5901 70.7513 11.5949 70.9604 11.6043 71.0958C11.4107 71.0768 11.2903 71.0673 11.2431 71.0673C11.0778 71.0673 10.9563 71.0768 10.8784 71.0958V70.9069L10.8925 70.3509V70.2653C10.5644 70.8475 10.0663 71.1386 9.39817 71.1386C8.89769 71.1386 8.50698 70.983 8.22605 70.6717C8.08677 70.5148 7.99824 70.3342 7.96047 70.1299C7.92505 69.9231 7.90735 69.6606 7.90735 69.3421L7.93568 68.0019L7.90735 67.0823V66.7437V66.6724C8.02303 66.6914 8.15759 66.7009 8.31104 66.7009C8.48573 66.7009 8.61676 66.6914 8.7041 66.6724C8.67578 66.9029 8.66161 67.131 8.66161 67.3567C8.62148 68.0934 8.60141 68.6827 8.60141 69.1247C8.60141 69.5857 8.65453 69.9172 8.76076 70.1192C8.94726 70.497 9.27187 70.6859 9.73458 70.6859C10.0368 70.6859 10.2776 70.5933 10.457 70.4079C10.66 70.2321 10.791 69.9849 10.85 69.6665C10.8784 69.4716 10.8925 69.1841 10.8925 68.8039V67.2854Z"
        fill="#797979" />
    <path
        d="M6.12261 65.8703C5.86765 65.5709 5.55603 65.3404 5.18775 65.1788C4.81947 65.0148 4.43467 64.9329 4.03334 64.9329C3.6509 64.9329 3.2838 65.0089 2.93205 65.161C2.58029 65.3131 2.2793 65.5293 2.02905 65.8097C1.57579 66.3349 1.34916 67.0264 1.34916 67.8842C1.34916 68.3025 1.41408 68.7112 1.54392 69.1104C1.67376 69.5072 1.86498 69.8435 2.11758 70.1191C2.59918 70.6253 3.27081 70.8784 4.13249 70.8784C4.72268 70.8784 5.21608 70.7762 5.61269 70.5718V69.5631V69.0534C5.61269 68.6732 5.60324 68.3904 5.58436 68.205C5.81571 68.224 5.96562 68.2335 6.03408 68.2335C6.23711 68.2335 6.37285 68.2145 6.44131 68.1765V68.4545L6.40944 69.3884V70.497V70.8178C5.58554 71.1006 4.74511 71.2419 3.88815 71.2419C3.22242 71.2419 2.61334 71.1053 2.06093 70.832C1.54392 70.6015 1.1178 70.1928 0.782574 69.6059C0.560663 69.1853 0.449707 68.6304 0.449707 67.9413C0.449707 67.2379 0.605517 66.6343 0.917137 66.1305C1.23112 65.6267 1.66078 65.2477 2.20611 64.9935C2.75381 64.7392 3.37705 64.6121 4.07583 64.6121C4.50313 64.6121 4.89266 64.6465 5.24441 64.7154C5.59616 64.7843 5.95618 64.9008 6.32446 65.0647C6.33862 65.079 6.35987 65.0933 6.3882 65.1075C6.41653 65.1218 6.43423 65.1325 6.44131 65.1396C6.40118 65.2489 6.35987 65.3808 6.31737 65.5353C6.27488 65.6873 6.24301 65.799 6.22176 65.8703H6.12261Z"
        fill="#797979" />
</svg>
    