<svg width="200" height="80" viewBox="0 0 200 80" fill="none" xmlns="http://www.w3.org/2000/svg">
    <path
        d="M43.1394 24.2415C41.1957 21.9361 38.8282 20.1648 36.0278 18.909C33.2274 17.6626 30.298 17.0347 27.2489 17.0347C24.1997 17.0347 21.5467 17.6157 18.8752 18.7872C16.2038 19.9586 13.91 21.6174 12.0031 23.7729C8.55787 27.8121 6.83524 33.1259 6.83524 39.7235C6.83524 42.938 7.33269 46.0776 8.31836 49.1327C9.30404 52.1879 10.7595 54.7839 12.6848 56.9019C16.3512 60.7911 21.4546 62.7404 28.0134 62.7404C32.4997 62.7404 36.2581 61.9532 39.2704 60.3881L39.2704 48.711C39.2704 45.787 39.1967 43.6128 39.0585 42.1883C40.818 42.3382 41.9603 42.4038 42.4762 42.4038C44.0238 42.4038 45.0555 42.2539 45.5714 41.9634L45.5714 44.1001L45.3319 51.2788L45.3319 62.2625C39.0678 64.4367 32.6747 65.5238 26.1526 65.5238C21.0861 65.5238 16.4525 64.4742 12.2519 62.3749C8.31836 60.6037 5.07577 57.4642 2.53328 52.947C0.847496 49.7138 -1.62294e-07 45.4496 -1.34549e-07 40.1546C-1.06804e-07 34.8596 1.18834 30.1082 3.56501 26.2377C5.94169 22.3672 9.21192 19.4526 13.3665 17.4939C17.5211 15.5352 22.256 14.5605 27.5713 14.5605C30.8231 14.5605 33.7801 14.8229 36.4608 15.3571C39.1322 15.8913 41.8774 16.7816 44.6778 18.0468C44.7884 18.1593 44.945 18.2624 45.166 18.3748C45.3779 18.4873 45.5161 18.5623 45.5714 18.6185C45.2674 19.4619 44.9542 20.4647 44.6318 21.6455C44.3093 22.8264 44.0698 23.6886 43.904 24.2321L43.1486 24.2321L43.1394 24.2415ZM68.942 15.254L72.0372 15.254C74.681 15.254 76.6616 15.329 77.9881 15.4696C81.1478 16.0694 83.3587 16.9316 84.6115 18.0468C86.7486 19.893 87.8172 22.3297 87.8172 25.3661C87.8172 28.5806 86.7763 31.289 84.6944 33.4726C82.6125 35.6656 79.9318 37.1838 76.6708 38.0179C77.0301 38.0179 77.3249 38.0648 77.5551 38.1585C78.5408 38.3928 79.3883 38.5896 80.0884 38.7301C80.7885 38.8801 81.4794 39.0582 82.1519 39.2737C82.8244 39.4893 83.3863 39.7517 83.8377 40.0422C85.6524 41.1012 86.9789 42.3008 87.8264 43.6315C88.9964 45.384 89.5767 47.2959 89.5767 49.3576C89.5767 54.3809 87.4488 58.4294 83.1928 61.494C81.4149 62.7217 79.3423 63.4902 76.9748 63.8088C74.6073 64.1274 71.7148 64.2868 68.3064 64.2868L58.1548 64.2868C58.1917 63.2652 58.2654 61.7658 58.3667 59.7977C58.4773 57.8203 58.5418 56.2927 58.5786 55.1962L58.6891 30.7267L58.5786 22.2078L58.2562 15.2447C59.4261 15.3196 61.1856 15.3571 63.5346 15.3571L68.9512 15.2447L68.942 15.254ZM64.419 30.8485L64.3084 37.0432L67.6247 37.0432C71.3279 37.0432 74.1928 36.5465 76.2471 35.5625C79.8397 33.7913 81.636 30.8767 81.636 26.8187C81.636 25.2255 81.286 23.7167 80.5859 22.2734C79.8858 20.8302 78.8817 19.7993 77.5736 19.1808C75.8141 18.2905 73.1611 17.8406 69.6329 17.8406C69.0802 17.8406 68.2419 17.8781 67.1273 17.9531C66.0126 18.0281 65.1559 18.0656 64.5387 18.0656C64.465 19.3401 64.4282 21.2144 64.4282 23.6792L64.4282 30.8579L64.419 30.8485ZM64.5295 61.2597C65.2296 61.2972 66.2706 61.3815 67.6431 61.5221C69.0157 61.6627 70.1856 61.7283 71.1621 61.7283C74.6626 61.7283 77.4907 60.6787 79.6463 58.5794C81.8571 56.3302 82.9625 53.6405 82.9625 50.4916C82.9625 48.4486 82.6309 46.7242 81.9769 45.3372C81.3228 43.9502 80.1898 42.7131 78.5685 41.6354C76.7169 40.3608 73.3361 39.7142 68.4169 39.7142L64.3268 39.7142L64.5387 61.2503L64.5295 61.2597ZM150.919 23.3418C150.808 23.2106 150.698 23.0794 150.578 22.9295C150.458 22.7795 150.311 22.6577 150.136 22.5452C146.488 18.9652 142.26 17.1752 137.451 17.1752C133.287 17.1752 129.722 18.2061 126.774 20.2679C123.817 22.3297 121.607 25.1131 120.133 28.5993C118.659 32.0856 117.922 35.9093 117.922 40.0516C117.922 42.3382 118.327 45.3278 119.138 49.039C119.912 51.6725 121.081 53.9498 122.666 55.8897C124.333 58.0827 126.443 59.7696 128.995 60.9598C131.546 62.15 134.218 62.7404 137.018 62.7404C141.808 62.7404 146.516 61.016 151.131 57.5579C151.49 57.1924 151.859 57.0143 152.236 57.0143L151.591 61.3722C147.658 64.0712 142.472 65.4301 136.023 65.4301C130.92 65.4301 126.489 64.3898 122.703 62.3093C118.926 60.2288 116.043 57.258 114.053 53.3875C112.072 49.5263 111.077 44.9717 111.077 39.7329C111.077 36.2654 111.805 32.7697 113.27 29.2647C114.734 25.7597 116.724 22.9295 119.239 20.774C124.103 16.5755 130.293 14.4762 137.792 14.4762C143.033 14.4762 148.072 15.5633 152.899 17.7375C152.365 19.1808 151.877 21.0176 151.444 23.2481L150.91 23.3606L150.919 23.3418ZM198.019 23.3418C197.909 23.2106 197.798 23.0794 197.679 22.9295C197.559 22.7795 197.411 22.6577 197.236 22.5452C193.589 18.9652 189.36 17.1752 184.552 17.1752C180.388 17.1752 176.823 18.2061 173.875 20.2679C170.918 22.3297 168.707 25.1131 167.233 28.5993C165.759 32.0856 165.022 35.9093 165.022 40.0516C165.022 42.3382 165.428 45.3278 166.238 49.039C167.012 51.6725 168.182 53.9498 169.766 55.8897C171.434 58.0827 173.543 59.7696 176.095 60.9598C178.647 62.15 181.318 62.7404 184.119 62.7404C188.909 62.7404 193.616 61.016 198.231 57.5579C198.591 57.1924 198.959 57.0143 199.337 57.0143L198.692 61.3722C194.758 64.0712 189.572 65.4301 183.124 65.4301C178.02 65.4301 173.589 64.3898 169.803 62.3093C166.026 60.2288 163.143 57.258 161.153 53.3875C159.173 49.5263 158.178 44.9717 158.178 39.7329C158.178 36.2654 158.906 32.7697 160.37 29.2647C161.835 25.7597 163.825 22.9295 166.34 20.774C171.204 16.5755 177.394 14.4762 184.892 14.4762C190.134 14.4762 195.173 15.5633 200 17.7375C199.466 19.1808 198.977 21.0176 198.545 23.2481L198.01 23.3606L198.019 23.3418Z"
        fill="white" />
    <path
        d="M100 45.3333C100.723 59.6904 108.004 72.2692 118.846 80L81.1538 80C91.9963 72.2692 99.2766 59.6904 100 45.3333Z"
        fill="white" />
    <path
        d="M100 34.6667C100.721 20.316 108.008 7.72872 118.846 1.93755e-07L81.1538 0C91.9922 7.72872 99.2787 20.3066 100 34.6667Z"
        fill="white" />
</svg>
    