<svg width="338" height="210" viewBox="0 0 338 210" fill="none" xmlns="http://www.w3.org/2000/svg">
    <path opacity="0.2"
        d="M112.644 63.6439C107.59 57.5921 101.435 52.9426 94.1539 49.6461C86.8728 46.3742 79.2564 44.726 71.3286 44.726C63.4009 44.726 56.503 46.2512 49.5572 49.3263C42.6114 52.4014 36.6476 56.7557 31.6897 62.4139C22.7321 73.0168 18.2532 86.9654 18.2532 104.284C18.2532 112.722 19.5466 120.964 22.1093 128.983C24.6721 137.003 28.4564 143.818 33.4621 149.377C42.9946 159.587 56.2635 164.704 73.3166 164.704C84.9807 164.704 94.7527 162.637 102.585 158.529L102.585 127.876C102.585 120.201 102.393 114.494 102.034 110.754C106.608 111.148 109.578 111.32 110.92 111.32C114.943 111.32 117.626 110.926 118.967 110.164L118.967 115.773L118.344 134.617L118.344 163.449C102.058 169.156 85.4358 172.01 68.4785 172.01C55.3054 172.01 43.2581 169.255 32.3364 163.744C22.1093 159.095 13.6786 150.853 7.06812 138.996C2.68509 130.509 0.481597 119.315 0.481598 105.416C0.481598 91.5165 3.57128 79.0439 9.75063 68.8839C15.93 58.7238 24.4326 51.0729 35.2345 45.9314C46.0364 40.7899 58.3472 38.2314 72.1669 38.2314C80.6216 38.2314 88.3099 38.9202 95.2796 40.3224C102.225 41.7247 109.363 44.0618 116.644 47.3828C116.931 47.6781 117.338 47.9487 117.913 48.2439C118.464 48.5391 118.823 48.7359 118.967 48.8835C118.177 51.0975 117.362 53.7298 116.524 56.8295C115.686 59.9292 115.063 62.1925 114.632 63.6193L112.668 63.6193L112.644 63.6439ZM179.731 40.0518L187.778 40.0518C194.652 40.0518 199.802 40.2486 203.251 40.6177C211.466 42.1921 217.214 44.4554 220.471 47.3828C226.028 52.2292 228.806 58.6254 228.806 66.596C228.806 75.034 226.1 82.1436 220.687 87.8756C215.274 93.6322 208.304 97.6175 199.826 99.8069C200.76 99.8069 201.526 99.9299 202.125 100.176C204.688 100.791 206.891 101.308 208.712 101.677C210.532 102.07 212.328 102.538 214.077 103.103C215.825 103.669 217.286 104.358 218.46 105.121C223.178 107.901 226.627 111.049 228.83 114.543C231.872 119.143 233.381 124.162 233.381 129.574C233.381 142.76 227.848 153.387 216.783 161.432C212.16 164.654 206.771 166.672 200.616 167.508C194.461 168.344 186.94 168.763 178.078 168.763L151.684 168.763C151.78 166.081 151.972 162.145 152.235 156.979C152.522 151.788 152.69 147.778 152.786 144.9L153.073 80.6676L152.786 58.3056L151.948 40.0272C154.989 40.224 159.564 40.3224 165.672 40.3224L179.755 40.0272L179.731 40.0518ZM167.971 80.9874L167.683 97.2485L176.306 97.2485C185.934 97.2485 193.383 95.9446 198.724 93.3615C208.065 88.712 212.735 81.0612 212.735 70.4091C212.735 66.227 211.825 62.2663 210.005 58.4778C208.185 54.6893 205.574 51.9832 202.173 50.3595C197.598 48.0225 190.7 46.8416 181.527 46.8416C180.09 46.8416 177.911 46.94 175.012 47.1368C172.114 47.3336 169.887 47.432 168.282 47.432C168.091 50.7777 167.995 55.6979 167.995 62.1679L167.995 81.012L167.971 80.9874ZM168.258 160.817C170.079 160.915 172.785 161.136 176.354 161.505C179.922 161.874 182.964 162.047 185.503 162.047C194.604 162.047 201.957 159.291 207.562 153.781C213.31 147.877 216.184 140.816 216.184 132.55C216.184 127.188 215.322 122.661 213.621 119.02C211.921 115.379 208.975 112.132 204.76 109.303C199.945 105.957 191.155 104.26 178.366 104.26L167.731 104.26L168.282 160.792L168.258 160.817ZM392.871 61.2822C392.583 60.9378 392.296 60.5934 391.985 60.1998C391.673 59.8062 391.29 59.4864 390.835 59.1912C381.35 49.7937 370.357 45.095 357.854 45.095C347.029 45.095 337.759 47.8011 330.095 53.2132C322.407 58.6254 316.659 65.9318 312.826 75.0832C308.994 84.2347 307.078 94.2718 307.078 105.145C307.078 111.148 308.132 118.995 310.24 128.737C312.252 135.65 315.293 141.628 319.413 146.72C323.748 152.477 329.233 156.905 335.867 160.029C342.502 163.154 349.448 164.704 356.729 164.704C369.183 164.704 381.422 160.177 393.422 151.099C394.356 150.14 395.314 149.673 396.296 149.673L394.619 161.112C384.392 168.197 370.908 171.764 354.142 171.764C340.873 171.764 329.353 169.033 319.509 163.572C309.689 158.111 302.192 150.312 297.019 140.152C291.869 130.017 289.283 118.061 289.283 104.309C289.283 95.2066 291.175 86.0305 294.983 76.8299C298.791 67.6292 303.965 60.1998 310.503 54.5417C323.149 43.5205 339.244 38.01 358.741 38.01C372.369 38.01 385.47 40.8637 398.02 46.571C396.631 50.3595 395.362 55.1813 394.236 61.0362L392.847 61.3314L392.871 61.2822ZM515.332 61.2822C515.045 60.9378 514.757 60.5934 514.446 60.1998C514.135 59.8062 513.751 59.4864 513.296 59.1912C503.812 49.7937 492.818 45.095 480.316 45.095C469.49 45.095 460.221 47.8011 452.557 53.2132C444.868 58.6254 439.12 65.9318 435.288 75.0832C431.456 84.2347 429.54 94.2718 429.54 105.145C429.54 111.148 430.594 118.995 432.701 128.737C434.713 135.65 437.755 141.628 441.874 146.72C446.21 152.477 451.694 156.905 458.329 160.029C464.963 163.154 471.909 164.704 479.19 164.704C491.645 164.704 503.884 160.177 515.883 151.099C516.817 150.14 517.775 149.673 518.757 149.673L517.081 161.112C506.853 168.197 493.369 171.764 476.603 171.764C463.335 171.764 451.814 169.033 441.97 163.572C432.15 158.111 424.654 150.312 419.48 140.152C414.331 130.017 411.744 118.061 411.744 104.309C411.744 95.2066 413.636 86.0305 417.444 76.8299C421.253 67.6292 426.426 60.1998 432.965 54.5417C445.611 43.5205 461.706 38.01 481.202 38.01C494.83 38.01 507.931 40.8637 520.482 46.571C519.092 50.3595 517.823 55.1813 516.697 61.0362L515.308 61.3314L515.332 61.2822Z"
        fill="#3177B8" />
    <path opacity="0.2"
        d="M260.482 119.01C262.363 156.697 281.291 189.717 309.482 210.01L211.482 210.01C239.672 189.717 258.601 156.697 260.482 119.01Z"
        fill="#3177B8" />
    <path opacity="0.2"
        d="M260.482 91.01C262.357 53.3395 281.302 20.2979 309.482 0.00997976L211.482 0.00997925C239.661 20.2979 258.606 53.3149 260.482 91.01Z"
        fill="#3177B8" />
</svg>
    